/* XPM */
static char * c_xpm[] = {
"64 64 519 2",
"  	c #F4545A",
". 	c #F5555A",
"+ 	c #F6565A",
"@ 	c #F4575C",
"# 	c #F45D61",
"$ 	c #F45C61",
"% 	c #F4555B",
"& 	c #F04E5B",
"* 	c #E6405D",
"= 	c #E7415D",
"- 	c #E8415D",
"; 	c #EE495B",
"> 	c #F45458",
", 	c #F7565A",
"' 	c #EB325A",
") 	c #E6225C",
"! 	c #E7245D",
"~ 	c #F4525A",
"{ 	c #F54E5A",
"] 	c #F54F5A",
"^ 	c #F4535A",
"/ 	c #F45359",
"( 	c #F45B60",
"_ 	c #F46B6D",
": 	c #F46A6C",
"< 	c #F46B6C",
"[ 	c #F4696B",
"} 	c #F4565C",
"| 	c #F5575A",
"1 	c #EF445A",
"2 	c #E7265A",
"3 	c #E8285A",
"4 	c #E8275A",
"5 	c #E92C5A",
"6 	c #F3505A",
"7 	c #F4555A",
"8 	c #F46A6B",
"9 	c #F4686A",
"0 	c #F46366",
"a 	c #F46164",
"b 	c #EF435B",
"c 	c #E6215C",
"d 	c #E7235C",
"e 	c #E7225C",
"f 	c #E8275C",
"g 	c #E6225D",
"h 	c #E7235D",
"i 	c #E8285D",
"j 	c #F56066",
"k 	c #F46769",
"l 	c #E69194",
"m 	c #7F5555",
"n 	c #4E3F3E",
"o 	c #7C4F4F",
"p 	c #DC8088",
"q 	c #F57273",
"r 	c #DBA0A1",
"s 	c #3A3A39",
"t 	c #000000",
"u 	c #262524",
"v 	c #C6586A",
"w 	c #F79C9C",
"x 	c #616060",
"y 	c #140D0C",
"z 	c #3E3738",
"A 	c #E66078",
"B 	c #E7405D",
"C 	c #EE485B",
"D 	c #EA305A",
"E 	c #E51F5C",
"F 	c #E6215D",
"G 	c #C78A8A",
"H 	c #060707",
"I 	c #010100",
"J 	c #855251",
"K 	c #E28A8A",
"L 	c #935A5A",
"M 	c #060303",
"N 	c #070707",
"O 	c #B38287",
"P 	c #EB475C",
"Q 	c #EC475C",
"R 	c #F04D5A",
"S 	c #F45459",
"T 	c #F6555A",
"U 	c #EE3D5A",
"V 	c #EB325B",
"W 	c #EB335C",
"X 	c #8A5050",
"Y 	c #462B2A",
"Z 	c #F59595",
"` 	c #E78C8D",
" .	c #F99898",
"..	c #583636",
"+.	c #794648",
"@.	c #F5565A",
"#.	c #715454",
"$.	c #825050",
"%.	c #F29494",
"&.	c #DF8888",
"*.	c #F09393",
"=.	c #935A59",
"-.	c #5E3E3F",
";.	c #F57577",
">.	c #513B3A",
",.	c #754847",
"'.	c #F19393",
").	c #865252",
"!.	c #282828",
"~.	c #DC7A7E",
"{.	c #9C6060",
"].	c #070606",
"^.	c #6C4242",
"/.	c #EF9292",
"(.	c #ED9191",
"_.	c #975C5C",
":.	c #423534",
"<.	c #F55D63",
"[.	c #E96D6F",
"}.	c #1C1918",
"|.	c #482D2C",
"1.	c #EE9191",
"2.	c #8E5756",
"3.	c #010101",
"4.	c #A6474B",
"5.	c #F3535A",
"6.	c #9B5555",
"7.	c #180F0E",
"8.	c #D78483",
"9.	c #E98E8E",
"0.	c #DE8888",
"a.	c #E08989",
"b.	c #F69696",
"c.	c #5D3A39",
"d.	c #3B2828",
"e.	c #F46C6E",
"f.	c #F46668",
"g.	c #F46568",
"h.	c #F1505B",
"i.	c #E9445D",
"j.	c #4C3333",
"k.	c #774949",
"l.	c #F49595",
"m.	c #C87A7A",
"n.	c #080505",
"o.	c #090B0A",
"p.	c #D66C6E",
"q.	c #F4696C",
"r.	c #F4575D",
"s.	c #F14F5B",
"t.	c #EF6F71",
"u.	c #1C1616",
"v.	c #BC7373",
"w.	c #EA8E8F",
"x.	c #E08888",
"y.	c #EC9090",
"z.	c #3D2525",
"A.	c #A27070",
"B.	c #F4686B",
"C.	c #DD6D6F",
"D.	c #0C0E0E",
"E.	c #160D0C",
"F.	c #E88E8D",
"G.	c #FF9E9E",
"H.	c #734746",
"I.	c #845857",
"J.	c #D39494",
"K.	c #080909",
"L.	c #150C0C",
"M.	c #8C5656",
"N.	c #8E5757",
"O.	c #4E302F",
"P.	c #775E5E",
"Q.	c #EF425A",
"R.	c #E5205B",
"S.	c #E6225B",
"T.	c #E6215B",
"U.	c #E7265B",
"V.	c #F45F63",
"W.	c #F45E62",
"X.	c #E88F91",
"Y.	c #4A4848",
"Z.	c #1D1A19",
"`.	c #BF7878",
" +	c #F0475A",
".+	c #EA2D5A",
"++	c #EA2F5A",
"@+	c #EA2E5A",
"#+	c #F3515A",
"$+	c #855254",
"%+	c #3E3938",
"&+	c #F28283",
"*+	c #F5545A",
"=+	c #F7545A",
"-+	c #F7555A",
";+	c #4A3939",
">+	c #5E2601",
",+	c #8F3B00",
"'+	c #8B3700",
")+	c #8D3900",
"!+	c #813401",
"~+	c #0C0500",
"{+	c #0D0E0F",
"]+	c #DF7274",
"^+	c #463A3A",
"/+	c #CE5200",
"(+	c #FF7500",
"_+	c #FF6E00",
":+	c #FF7000",
"<+	c #FF6B00",
"[+	c #1E0B00",
"}+	c #0B0E11",
"|+	c #D78484",
"1+	c #F4555C",
"2+	c #4C3D3E",
"3+	c #B64900",
"4+	c #FC6500",
"5+	c #FE6700",
"6+	c #F26100",
"7+	c #180800",
"8+	c #0E1214",
"9+	c #DB8788",
"0+	c #F4545B",
"a+	c #F45257",
"b+	c #F44E52",
"c+	c #F6888B",
"d+	c #473F3F",
"e+	c #180A00",
"f+	c #2B1200",
"g+	c #291000",
"h+	c #2A1100",
"i+	c #240F00",
"j+	c #020100",
"k+	c #1B1819",
"l+	c #EA888A",
"m+	c #F4565D",
"n+	c #F44849",
"o+	c #F43229",
"p+	c #F4342B",
"q+	c #F65048",
"r+	c #796563",
"s+	c #050404",
"t+	c #080808",
"u+	c #7A5959",
"v+	c #F57274",
"w+	c #F43027",
"x+	c #F4332A",
"y+	c #CA7F7C",
"z+	c #131212",
"A+	c #1D190E",
"B+	c #312D1A",
"C+	c #2F2A18",
"D+	c #1D180E",
"E+	c #131313",
"F+	c #CD8687",
"G+	c #F43128",
"H+	c #F54138",
"I+	c #806462",
"J+	c #3F3920",
"K+	c #F1E37F",
"L+	c #FFEC83",
"M+	c #FFE881",
"N+	c #F1E27E",
"O+	c #3E371F",
"P+	c #856464",
"Q+	c #F5443C",
"R+	c #65312E",
"S+	c #9D8E4F",
"T+	c #FFFF8D",
"U+	c #FFE981",
"V+	c #FFEA81",
"W+	c #FFFF8E",
"X+	c #9A8B4E",
"Y+	c #653737",
"Z+	c #F7625B",
"`+	c #655C5B",
" @	c #A39252",
".@	c #FFF889",
"+@	c #FFE780",
"@@	c #FFF88A",
"#@	c #A09151",
"$@	c #5D494A",
"%@	c #F46E70",
"&@	c #F54037",
"*@	c #632826",
"=@	c #AC9A57",
"-@	c #FFFF93",
";@	c #FFF789",
">@	c #FFEB82",
",@	c #FFE680",
"'@	c #9E8F50",
")@	c #613A3B",
"!@	c #F45B5F",
"~@	c #F45A5F",
"{@	c #F7655E",
"]@	c #696161",
"^@	c #6A5E36",
"/@	c #AAA15B",
"(@	c #A79555",
"_@	c #AB9956",
":@	c #F2DB79",
"<@	c #5F5353",
"[@	c #F56267",
"}@	c #F43930",
"|@	c #632522",
"1@	c #756A3B",
"2@	c #FFF98A",
"3@	c #F45B61",
"4@	c #5F4F4E",
"5@	c #7B703E",
"6@	c #5E5656",
"7@	c #F5686D",
"8@	c #F4372E",
"9@	c #612320",
"0@	c #73673A",
"a@	c #B7B162",
"b@	c #B5A45B",
"c@	c #B8A75D",
"d@	c #F6DF7C",
"e@	c #FFEA82",
"f@	c #614545",
"g@	c #F77476",
"h@	c #F5453C",
"i@	c #5F4E4D",
"j@	c #AB9957",
"k@	c #FFFF92",
"l@	c #FFF688",
"m@	c #5F5556",
"n@	c #F25D70",
"o@	c #F0455B",
"p@	c #F0445B",
"q@	c #F3525A",
"r@	c #F4382F",
"s@	c #612623",
"t@	c #A19051",
"u@	c #5E3B45",
"v@	c #EA4576",
"w@	c #E6235D",
"x@	c #F24D5B",
"y@	c #F6514A",
"z@	c #615454",
"A@	c #A19052",
"B@	c #5E5054",
"C@	c #EA3E70",
"D@	c #E7255D",
"E@	c #F53D35",
"F@	c #612E2B",
"G@	c #AD9B58",
"H@	c #FFEE84",
"I@	c #FFE67F",
"J@	c #5E3944",
"K@	c #E9376B",
"L@	c #F54D45",
"M@	c #614E4D",
"N@	c #453D23",
"O@	c #6E693A",
"P@	c #6C6136",
"Q@	c #716638",
"R@	c #D9C56D",
"S@	c #5F4C51",
"T@	c #E9396D",
"U@	c #F4494A",
"V@	c #F4342C",
"W@	c #F5423B",
"X@	c #603231",
"Y@	c #5D542F",
"Z@	c #FFFA8B",
"`@	c #5D404A",
" #	c #EB4777",
".#	c #F44F53",
"+#	c #F55F63",
"@#	c #614343",
"##	c #050503",
"$#	c #0A0805",
"%#	c #070704",
"&#	c #0B0906",
"*#	c #95864B",
"=#	c #FFF689",
"-#	c #5E464D",
";#	c #EB4576",
">#	c #F5676D",
",#	c #60494A",
"'#	c #8E7F48",
")#	c #E3DB79",
"!#	c #E0CB71",
"~#	c #E4CE73",
"{#	c #FFE880",
"]#	c #5F4C52",
"^#	c #EC507D",
"/#	c #F5696E",
"(#	c #644042",
"_#	c #A79554",
":#	c #FFEF85",
"<#	c #FFEF84",
"[#	c #EC5581",
"}#	c #F6777C",
"|#	c #675757",
"1#	c #5E4F53",
"2#	c #EB4B7A",
"3#	c #F5585D",
"4#	c #603435",
"5#	c #5D424B",
"6#	c #ED5884",
"7#	c #ED4A5C",
"8#	c #EF5C6D",
"9#	c #5E5051",
"0#	c #AE9B58",
"a#	c #FFFF94",
"b#	c #5E5155",
"c#	c #EB4878",
"d#	c #EA5C75",
"e#	c #61343D",
"f#	c #494125",
"g#	c #75713E",
"h#	c #736839",
"i#	c #776C3C",
"j#	c #DCC76F",
"k#	c #5F414A",
"l#	c #ED5B86",
"m#	c #F08698",
"n#	c #6C6667",
"o#	c #5F5530",
"p#	c #5F5457",
"q#	c #EC677D",
"r#	c #60333B",
"s#	c #030302",
"t#	c #060403",
"u#	c #040302",
"v#	c #070604",
"w#	c #918249",
"x#	c #5D3F48",
"y#	c #ED5D87",
"z#	c #F08799",
"A#	c #696667",
"B#	c #8A7C46",
"C#	c #DED576",
"D#	c #DAC56E",
"E#	c #DEC970",
"F#	c #5F5558",
"G#	c #EB4575",
"H#	c #EA5D75",
"I#	c #5E2F38",
"J#	c #A79655",
"K#	c #FFF085",
"L#	c #5E3F48",
"M#	c #ED5E87",
"N#	c #E7245C",
"O#	c #E7255C",
"P#	c #E9445C",
"Q#	c #ED6F84",
"R#	c #686263",
"S#	c #EA4271",
"T#	c #E7245A",
"U#	c #E7235A",
"V#	c #E7255A",
"W#	c #F24D5A",
"X#	c #E84A65",
"Y#	c #5D2B33",
"Z#	c #A49353",
"`#	c #A19252",
" $	c #5F3B3F",
".$	c #F45767",
"+$	c #F3495A",
"@$	c #F3485A",
"#$	c #EA5C74",
"$$	c #665D5E",
"%$	c #877A44",
"&$	c #FFF387",
"*$	c #847743",
"=$	c #696261",
"-$	c #F8696C",
";$	c #F7575A",
">$	c #E84863",
",$	c #955D65",
"'$	c #020202",
")$	c #18150C",
"!$	c #AD9F59",
"~$	c #C9BA67",
"{$	c #C7B465",
"]$	c #AC9E58",
"^$	c #17140C",
"/$	c #9D6063",
"($	c #DC576D",
"_$	c #1E191A",
":$	c #221D1D",
"<$	c #E77A7F",
"[$	c #AF636F",
"}$	c #1A1A19",
"|$	c #151414",
"1$	c #B69594",
"2$	c #F65B57",
"3$	c #F43D39",
"4$	c #E7425E",
"5$	c #CF7583",
"6$	c #8D505A",
"7$	c #7F535A",
"8$	c #81535B",
"9$	c #815960",
"0$	c #804F57",
"a$	c #845A5C",
"b$	c #84595A",
"c$	c #864A4D",
"d$	c #854F51",
"e$	c #845B5C",
"f$	c #854D4A",
"g$	c #855B58",
"h$	c #84514E",
"i$	c #834946",
"j$	c #924744",
"k$	c #D86761",
"l$	c #F76E67",
"m$	c #F3362C",
"n$	c #F43127",
"o$	c #E8425D",
"p$	c #F44B4D",
"q$	c #F43228",
"r$	c #F4352C",
"s$	c #F44A4C",
"t$	c #EC485C",
"            . + + + + + + + + +         @ # # # # # # # # $ %     . & * = = = = = = = = = = - ; >     , ' ) ! ! ! ! ! ! ! ! ! ! ",
"            ~ { ] ] ] ] ] ] { ] ^     / ( _ : : : : : : < [ } /   . & * = = = = = = = = = = - ; >     , ' ) ! ! ! ! ! ! ! ! ! ! ",
"/ ^       | 1 2 3 3 3 3 3 3 4 5 6 7   / ( : [ [ [ [ [ [ 8 9 } /   . & * = = = = = = = = = = - ; >     , ' ) ! ! ! ! ! ! ! ! ! ! ",
"0 a % ^   | b c d d d d d d e f 6 7   / ( : [ [ [ [ [ [ 8 9 } /   . & * = = = = = = = = = = - ; >     , ' ) ! ! ! ! ! ! ! ! ! ! ",
"_ 9 % ^   | b g ! ! ! ! ! ! h i 6 7   / ( : [ [ [ [ [ [ 8 9 } / j . & * = = = = = = = = = = - ; >     , ' ) ! ! ! ! ! ! ! ! ! ! ",
": k % ^   | b g ! ! ! ! ! ! h i 6 7   / ( : [ [ [ [ [ [ 8 9 l m n o p * = = = = = = = = = = - ; >     , ' ) ! ! ! ! ! ! ! ! ! ! ",
": k % ^   | b g ! ! ! ! ! ! h i 6 7   / ( : [ [ [ [ [ [ q r s t t t u v = = = = = = = = = = - ; >     , ' ) ! ! ! ! ! ! ! ! ! ! ",
": k % ^   | b g ! ! ! ! ! ! h i 6 7   / ( : [ [ [ [ [ [ w x t t y t t z A * * * * * * * * * B C >     , D E F F F F F F F F F F ",
": k % ^   | b g ! ! ! ! ! ! h i 6 7   / ( : [ [ [ [ [ [ G H I J K L M N O P P P P P P P P P Q R S     T U V W W W W W W W W W W ",
": k % ^   | b g ! ! ! ! ! ! h i 6 7   / ( : [ [ [ [ [ [ X t Y Z `  ...t +.. . . . . . . . . 7           7 @.@.@.@.@.@.@.@.@.@.@.",
": k % ^   | b g ! ! ! ! ! ! h i 6 7   / ( : [ [ [ [ [ [ #.t $.%.&.*.=.t -.                                                      ",
": k % ^   | b g ! ! ! ! ! ! h i 6 7   / ( : [ [ [ [ [ ;.>.t ,.'.&.*.).t !.~.                                                    ",
": k % ^   | b g ! ! ! ! ! ! h i 6 7   / ( : [ [ [ [ [ {.].t ^./.&.(._.t t :.<.                                                  ",
": k % ^   | b g ! ! ! ! ! ! h i 6 7   / ( : [ [ [ [ [.}.t |.K K &.&.1.2.t 3.4.% % % % % % % % % % % % % % % % % % %           5.",
": k % ^   | b g ! ! ! ! ! ! h i 6 7   / ( : [ [ [ [ 6.t 7.8.9.0.&.&.a.b.c.t d.e.f.f.f.f.f.f.f.f.f.f.f.f.f.f.f.f.f.g.@ /   . h.i.",
": k % ^   | b g ! ! ! ! ! ! h i 6 7   / ( : [ [ [ e.j.t k.l.0.&.&.&.&.9.m.n.o.p.: : : : : : : : : : : : : : : : : q.r./   . s.* ",
": k % ^   | b g ! ! ! ! ! ! h i 6 7   / ( : [ [ [ t.u.I v.w.&.&.&.&.&.x.y.z.t A.[ [ [ [ [ [ [ [ [ [ [ [ [ [ [ [ [ B.r./   . s.= ",
": k % ^   | b g ! ! ! ! ! ! h i 6 7   / ( : [ [ [ C.D.E.F.l././././././.G.H.t I.: [ [ [ [ [ [ [ [ [ [ [ [ [ [ [ [ B.r./   . s.= ",
": k % ^   | b g ! ! ! ! ! ! h i 6 7   / ( _ : : _ J.K.L.M.N.M.M.M.M.M.M._.O.t P.[ [ [ [ [ [ [ [ [ [ [ [ [ [ [ [ [ B.r./   . s.= ",
": k % ^   | Q.R.S.S.S.S.S.S.T.U.6 7   ^ r.V.W.W.X.Y.t t t t t t t t t t t t t Z.`.[ [ [ [ [ [ [ [ [ [ [ [ [ [ [ [ B.r./   . s.= ",
": k % ^   @. +.+++++++++++++@+' #+7       / / / $+t t t t t t t t t t t t t t t %+&+[ [ [ [ [ [ [ [ [ [ [ [ [ [ [ B.r./   . s.= ",
": k % ^     *+=+-+-+-+-+-+-+-+-+              ( ;+t >+,+'+'+'+'+'+'+'+'+'+)+!+~+{+]+[ [ [ [ [ [ [ [ [ [ [ [ [ [ [ B.r./   . s.= ",
": k % ^       . . . . . . . . .               <.^+t /+(+_+_+_+_+_+_+_+_+_+:+<+[+}+|+[ [ [ [ [ [ [ [ [ [ [ [ [ [ [ B.r./   . s.= ",
": k % ^     % 1+1+1+1+1+1+1+1+1+1+1+1+1+1+1+1+1+2+t 3+<+4+4+4+4+4+4+4+4+4+5+6+7+8+9+[ [ [ [ [ [ [ [ [ [ [ [ [ [ [ B.r./   . s.= ",
": k % ^   0+a+b+b+b+b+b+b+b+b+b+b+b+b+b+b+b+b+c+d+t e+f+g+g+g+g+g+g+g+g+g+h+i+j+k+l+[ [ [ [ [ [ [ [ [ [ [ [ [ [ [ B.r./   . s.= ",
": k % ^   m+n+o+p+p+p+p+p+p+p+p+p+p+p+p+p+p+q+r+s+t t t t t t t t t t t t t t t t+u+v+[ [ [ [ [ [ [ [ [ [ [ [ [ [ B.r./   . s.= ",
": k % ^   m+n+w+o+o+o+o+o+o+o+o+o+o+o+o+o+x+y+z+t A+B+C+C+C+C+C+C+C+C+C+C+C+B+D+t E+F+[ [ [ [ [ [ [ [ [ [ [ [ [ [ B.r./   . s.= ",
": k % ^   m+n+G+x+x+x+x+x+x+x+x+x+x+x+x+x+H+I+t J+K+L+M+M+M+M+M+M+M+M+M+M+M+L+N+O+t P+[ [ [ [ [ [ [ [ [ [ [ [ [ [ B.r./   . s.= ",
": k % ^   m+n+G+x+x+x+x+x+x+x+x+x+x+x+x+x+Q+R+t S+T+U+V+V+V+V+V+V+V+V+V+V+V+U+W+X+t Y+: [ [ [ [ [ [ [ [ [ [ [ [ [ B.r./   . s.= ",
": k % ^   m+n+G+x+x+x+x+x+x+x+x+x+x+x+x+x+Z+`+t  @.@+@+@+@+@+@+@+@+@+@+@+@+@+@@@#@t $@%@: : : : : : : : : : : : : q.r./   . s.= ",
": k % ^   m+n+G+x+x+x+x+x+x+x+x+x+x+x+x+x+&@*@t =@-@.@;@>@,@+@+@+@+@+@+@+@+@+@@@'@t )@V.!@!@!@!@!@!@!@!@!@!@!@!@!@~@%     . s.= ",
": k % ^   m+n+G+x+x+x+x+x+x+x+x+x+x+x+x+x+{@]@t ^@/@(@_@:@>@+@+@+@+@+@+@+@+@+@@@'@t <@[@/ / / / / / / / / / / / / /       . s.= ",
": k % ^   m+n+G+x+x+x+x+x+x+x+x+x+x+x+x+x+}@|@t t t t t 1@2@+@+@+@+@+@+@+@+@+@@@'@t )@3@                                  . s.= ",
": k % ^   m+n+G+x+x+x+x+x+x+x+x+x+x+x+x+x+Q+4@t t t t t 5@2@+@+@+@+@+@+@+@+@+@@@'@t 6@7@                                  . s.= ",
": k % ^   m+n+G+x+x+x+x+x+x+x+x+x+x+x+x+x+8@9@t 0@a@b@c@d@e@+@+@+@+@+@+@+@+@+@@@'@t f@g@| | | | | | | | | | | | | |       . s.= ",
": k % ^   m+n+G+x+x+x+x+x+x+x+x+x+x+x+x+x+h@i@t j@k@l@l@e@,@+@+@+@+@+@+@+@+@+@@@'@t m@n@o@o@o@o@o@o@o@o@o@o@o@o@p@o@q@7   . s.= ",
": k % ^   m+n+G+x+x+x+x+x+x+x+x+x+x+x+x+x+r@s@t t@.@+@+@+@+@+@+@+@+@+@+@+@+@+@@@'@t u@v@g g g g g g g g g g g g F w@x@@.  . s.= ",
": k % ^   m+n+G+x+x+x+x+x+x+x+x+x+x+x+x+x+y@z@t A@.@+@+@+@+@+@+@+@+@+@+@+@+@+@@@'@t B@C@! ! ! ! ! ! ! ! ! ! ! ! h D@x@@.  . s.= ",
": k % ^   m+n+G+x+x+x+x+x+x+x+x+x+x+x+x+x+E@F@t G@-@@@2@H@I@+@+@+@+@+@+@+@+@+@@@'@t J@K@! ! ! ! ! ! ! ! ! ! ! ! h D@x@@.  . s.= ",
": k % ^   m+n+w+o+o+o+o+o+o+o+o+o+o+o+o+o+L@M@t N@O@P@Q@R@H@+@+@+@+@+@+@+@+@+@@@'@t S@T@! ! ! ! ! ! ! ! ! ! ! ! h D@x@@.  . s.= ",
"[ f.% ^   m+U@x+V@V@V@V@V@V@V@V@V@V@V@V@V@W@X@t t t t t Y@Z@+@+@+@+@+@+@+@+@+@@@'@t `@ #! ! ! ! ! ! ! ! ! ! ! ! h D@x@@.  . s.= ",
"@ @       0+a+.#.#.#.#.#.#.#.#.#.#.#.#.#.#+#@#t ##$#%#&#*#=#+@+@+@+@+@+@+@+@+@@@'@t -#;#! ! ! ! ! ! ! ! ! ! ! ! h D@x@@.  . s.= ",
"/ /         0+1+1+1+1+1+1+1+1+1+1+1+1+1+1+>#,#t '#)#!#~#e@{#+@+@+@+@+@+@+@+@+@@@'@t ]#^#! ! ! ! ! ! ! ! ! ! ! ! h D@x@@.  . s.= ",
"                                          /#(#t _#W+:#<#M++@+@+@+@+@+@+@+@+@+@@@'@t -#[#! ! ! ! ! ! ! ! ! ! ! ! h D@x@@.  . s.= ",
"                                          }#|#t A@.@+@+@+@+@+@+@+@+@+@+@+@+@+@@@'@t 1#2#! ! ! ! ! ! ! ! ! ! ! ! h D@x@@.  . s.= ",
". . . . . . . . . . . . . . . . . . . . . 3#4#t A@.@+@+@+@+@+@+@+@+@+@+@+@+@+@@@'@t 5#6#! ! ! ! ! ! ! ! ! ! ! ! h D@x@@.  . s.= ",
"7#7#7#7#7#7#7#7#7#7#7#7#7#7#7#7#7#7#7#7#7#8#9#t 0#a#2@2@H@I@+@+@+@+@+@+@+@+@+@@@'@t b#c#! ! ! ! ! ! ! ! ! ! ! ! h D@x@@.  . s.= ",
"* * * * * * * * * * * * * * * * * * * * * d#e#t f#g#h#i#j#H@+@+@+@+@+@+@+@+@+@@@'@t k#l#! ! ! ! ! ! ! ! ! ! ! ! h D@x@@.  . s.= ",
"= = = = = = = = = = = = = = = = = = = = = m#n#t t t t t o#Z@+@+@+@+@+@+@+@+@+@@@'@t p#;#! ! ! ! ! ! ! ! ! ! ! ! h D@x@@.  . s.= ",
"= = = = = = = = = = = = = = = = = = = = = q#r#t s#t#u#v#w#;@+@+@+@+@+@+@+@+@+@@@'@t x#y#! ! ! ! ! ! ! ! ! ! ! ! h D@x@@.  . s.= ",
"= = = = = = = = = = = = = = = = = = = = = z#A#t B#C#D#E#U+{#+@+@+@+@+@+@+@+@+@@@'@t F#G#! ! ! ! ! ! ! ! ! ! ! ! h D@x@@.  . s.* ",
"= = = = = = = = = = = = = = = = = = = = = H#I#t J#W+K#K#M++@+@+@+@+@+@+@+@+@+@@@'@t L#M#N#N#N#N#N#N#N#N#N#N#N#N#d O#x@@.  . h.P#",
"= = = = = = = = = = = = = = = = = = = = = Q#R#t A@.@+@+@+@+@+@+@+@+@+@+@+@+@+@@@'@t p#S#T#T#T#T#T#T#T#T#T#T#T#T#U#V#W#@.      ^ ",
"= = = = = = = = = = = = = = = = = = = = = X#Y#t Z#.@+@+@+@+@+@+@+@+@+@+@+@+@+@2@`#t  $.$+$+$+$+$+$+$+$+$+$+$+$+$@$+$~ 7         ",
"= = = = = = = = = = = = = = = = = = = = = #$$$t %$k@&$&$&$&$&$&$&$&$&$&$&$&$&$k@*$t =$-$;$;$;$;$;$;$;$;$;$;$;$;$;$;$            ",
"= = = = = = = = = = = = = = = = = = = = = >$,$'$)$!$~${${${${${${${${${${${$~$]$^$3./$(                                         ",
"= = = = = = = = = = = = = = = = = = = = = = ($_$t t t t t t t t t t t t t t t t t :$<$1+1+1+1+1+1+1+1+1+1+1+1+1+1+1+1+1+1+1+1+1+",
"= = = = = = = = = = = = = = = = = = = = = = = [$}$t t t t t t t t t t t t t t t |$1$2$3$3$3$3$3$3$3$3$3$3$3$3$3$3$3$3$3$3$3$3$3$",
"= = = = = = = = = = = = = = = = = = = = = = = 4$5$6$7$8$9$0$a$b$c$d$e$f$g$h$i$j$k$l$m$n$n$n$n$n$n$n$n$n$n$n$n$n$n$n$n$n$n$n$n$n$",
"= = = = = = = = = = = = = = = = = = = = = = = = = = = = = o$q@7   m+p$q$r$x+x+x+x+x+x+x+x+x+x+x+x+x+x+x+x+x+x+x+x+x+x+x+x+x+x+x+",
"= = = = = = = = = = = = = = = = = = = = = = = = = = = = = o$q@7   m+s$q$x+x+x+x+x+x+x+x+x+x+x+x+x+x+x+x+x+x+x+x+x+x+x+x+x+x+x+x+",
"* * * * * * * * * * * * * * * * * * * * * * * * * * * * * = q@7   m+s$q$x+x+x+x+x+x+x+x+x+x+x+x+x+x+x+x+x+x+x+x+x+x+x+x+x+x+x+x+",
"P P P P P P P P P P P P P P P P P P P P P P P P P P P P P t$5.    m+s$q$x+x+x+x+x+x+x+x+x+x+x+x+x+x+x+x+x+x+x+x+x+x+x+x+x+x+x+x+",
"7 7 7 7 7 7 7 7 7 7 7 7 7 7 7 7 7 7 7 7 7 7 7 7 7 7 7 7 7 7       m+s$q$x+x+x+x+x+x+x+x+x+x+x+x+x+x+x+x+x+x+x+x+x+x+x+x+x+x+x+x+"};
