/* XPM */
static char *_cd154c94ac24589a313141844a44555R1nH4g0kQMECyrLT[] = {
/* columns rows colors chars-per-pixel */
"75 75 245 2 ",
"   c #2C075C",
".  c #350D68",
"X  c #371068",
"o  c #3B126C",
"O  c #3B0E74",
"+  c #3E1572",
"@  c #3D1476",
"#  c #411674",
"$  c #431A74",
"%  c #44157D",
"&  c #461979",
"*  c #491C7D",
"=  c #492576",
"-  c #4B237C",
";  c #F42F24",
":  c #F43127",
">  c #F4332A",
",  c #F43933",
"<  c #F43B35",
"1  c #F5433C",
"2  c #E51E5C",
"3  c #E7235D",
"4  c #E92B5B",
"5  c #E53F5D",
"6  c #EE3D5B",
"7  c #E9386C",
"8  c #F44443",
"9  c #F54B44",
"0  c #F44C4F",
"q  c #F6544B",
"w  c #E7415D",
"e  c #EB445C",
"r  c #EE4B5B",
"t  c #F44D50",
"y  c #F24C5B",
"u  c #F45156",
"i  c #F4545A",
"p  c #F5595C",
"a  c #F6615B",
"s  c #E84B66",
"d  c #E9536B",
"f  c #F05167",
"g  c #F45D62",
"h  c #EA4274",
"j  c #EB5D74",
"k  c #F46366",
"l  c #F76B61",
"z  c #F46669",
"x  c #F46A6C",
"c  c #F47071",
"v  c #F6767A",
"b  c #4B1C82",
"n  c #4B188A",
"m  c #4A0F91",
"M  c #561D98",
"N  c #4D2282",
"B  c #512286",
"V  c #54238B",
"C  c #572A8A",
"Z  c #573286",
"A  c #5B328C",
"S  c #5C2A94",
"D  c #5B2698",
"F  c #5D3191",
"G  c #602D97",
"H  c #632D9C",
"J  c #643997",
"K  c #65319D",
"L  c #5815A6",
"P  c #5E25A1",
"I  c #662AA8",
"U  c #6731A0",
"Y  c #6A34A3",
"T  c #6D3BA4",
"R  c #6D33AB",
"E  c #6D39A9",
"W  c #723CAB",
"Q  c #6A27B4",
"!  c #6D39B1",
"~  c #753AB7",
"^  c #6A4399",
"/  c #734F9D",
"(  c #7548A7",
")  c #7542AC",
"_  c #7348AA",
"`  c #794AAD",
"'  c #7D53A9",
"]  c #7A44B4",
"[  c #7D4AB4",
"{  c #7C44BA",
"}  c #7C49B8",
"|  c #680DC8",
" . c #7B3AC3",
".. c #7F45C3",
"X. c #814CBA",
"o. c #8552BA",
"O. c #8758BA",
"+. c #8D61BC",
"@. c #9268BF",
"#. c #A673B6",
"$. c #ED5A82",
"%. c #D67595",
"&. c #EC7487",
"*. c #ED728B",
"=. c #D175AB",
"-. c #D579AC",
";. c #CB7DB3",
":. c #E97CAB",
">. c #873BD7",
",. c #8D3DE1",
"<. c #8449C4",
"1. c #8A54C6",
"2. c #8D5DC4",
"3. c #9058CA",
"4. c #915BCC",
"5. c #8D47D7",
"6. c #914DD7",
"7. c #9354D5",
"8. c #965AD6",
"9. c #9656D9",
"0. c #9858DA",
"q. c #9A5DDA",
"w. c #996EC7",
"e. c #9462CC",
"r. c #9668C8",
"t. c #9760D2",
"y. c #9A64D4",
"u. c #9C6AD3",
"i. c #9E63DB",
"p. c #BF70CA",
"a. c #A16ED6",
"s. c #A066DC",
"d. c #A36CDD",
"f. c #A578D6",
"g. c #A672DD",
"h. c #A975DE",
"j. c #AB7CDD",
"k. c #B475D3",
"l. c #9345E4",
"z. c #9446E6",
"x. c #964BE3",
"c. c #994CE9",
"v. c #9B53E5",
"b. c #9E59E7",
"n. c #9E53EB",
"m. c #A05CE7",
"M. c #A25DE9",
"N. c #A459F3",
"B. c #9F61E1",
"V. c #A567E6",
"C. c #A56BE2",
"Z. c #A563EA",
"A. c #AA6BEC",
"S. c #AA74E3",
"D. c #AA75E4",
"F. c #AD7BE2",
"G. c #AE72EC",
"H. c #B17EE5",
"J. c #BA7BE2",
"K. c #B175EF",
"L. c #B27DEA",
"P. c #AD69F5",
"I. c #B16EF6",
"U. c #B274F2",
"Y. c #B57CF1",
"T. c #B97EF6",
"R. c #C175CC",
"E. c #BC84A7",
"W. c #B2ABBD",
"Q. c #D1869A",
"!. c #F68587",
"~. c #EE8F93",
"^. c #F58E94",
"/. c #F79699",
"(. c #CB87A7",
"). c #D589AA",
"_. c #DD92AE",
"`. c #CB86B8",
"'. c #D488B8",
"]. c #CC91B6",
"[. c #D797B9",
"{. c #EA92A9",
"}. c #F498A6",
"|. c #E39BB9",
" X c #D6A1B0",
".X c #F7A7A7",
"XX c #F5ABB4",
"oX c #F4B2B7",
"OX c #AC85D7",
"+X c #B48DD0",
"@X c #BCA7D4",
"#X c #AF80E2",
"$X c #B283E4",
"%X c #B68AE5",
"&X c #B88CE7",
"*X c #B683EB",
"=X c #B888EB",
"-X c #BB8CEC",
";X c #BB94E4",
":X c #BD92EB",
">X c #BA84F3",
",X c #B981F4",
"<X c #BE8BF3",
"1X c #BFA0E3",
"2X c #CA99C4",
"3X c #D39DC4",
"4X c #CB91D0",
"5X c #D3A3C9",
"6X c #D2AAD8",
"7X c #DBB4D7",
"8X c #E5A5C4",
"9X c #EAB5CA",
"0X c #F2B3C7",
"qX c #C497EB",
"wX c #C18EF6",
"eX c #C58DFD",
"rX c #C392F6",
"tX c #C69AF2",
"yX c #C595F9",
"uX c #C999F8",
"iX c #CA9CFA",
"pX c #C8A5E9",
"aX c #D1AAE5",
"sX c #D5B6E9",
"dX c #CDA6F4",
"fX c #CEA1FC",
"gX c #D1A6FE",
"hX c #D5ACFA",
"jX c #D4AAFE",
"kX c #DBB3FF",
"lX c #D8B8F8",
"zX c #E1BAFF",
"xX c #F8C5CA",
"cX c #EAC5D9",
"vX c #F4D1D7",
"bX c #DFC3EC",
"nX c #DEC6F7",
"mX c #EAC6E6",
"MX c #EDDBEC",
"NX c #E5C8FA",
"BX c #E9DAFA",
"VX c #F3ECEC",
"CX c #F5E6FF",
"ZX c #FAF6F6",
"AX c #FFFEFD",
/* pixels */
"i i < : : : > > > > : : : : : : > > > > : 8 i i i i k x x x x x x x x z i i i i i i i i i i i i i i i i i i i i i i i i i i i i i i i i i i i c ^.i i ",
"i i < : : : > > > > : : : : > > > > > > : 8 i i i i k x x x x x x x x z i i i i i i i i i i i i i i i i i i i i i i i i i i i i i i i i i i XXhX5Xi i ",
"i i < : : : : : > > > : > > > > : : : : : 8 i i i i k x x x x x x x x z i i i i i e e e e e e e e e e e e e i i i i y 4 4 4 4 4 4 4 4 4 4 }.fXu.%.4 e ",
"i i < : : : : : > > : : > > > > : : : : : 8 i i i i k x x x x x x x x z i i i i i w w w w w w w w w w w w e i i i i y 3 3 3 3 3 3 3 3 7 :.3.j.*.3 2 6 ",
"i i < : : : : : : : : : > > : : : : : : : 8 i i i i k x x x x x x x x z i i i i y w w w w w w w w w w w w e i i i i y 3 3 3 3 3 3 3 $.mXL.f.].3 3 3 6 ",
"i i , : : : : : : : : : : : : : : : : : : 8 i i i i k x x x x x x x x z i i i i y w w w w w w w w w w w w e i i i i y 3 3 3 3 3 3 $.sXS.BXAX=.3 3 3 6 ",
"i i < , , , , , , , , , , , , , , , , , > 8 i i i i k z z z z z z z z k i i i i y w w w w w w w w w w w w e i i i i y 3 3 3 3 3 *.dX1.2X0XmX;.3 3 3 6 ",
"i i i i i i i i i i i i i i i i i i i i i i i i i i i i i i i i i i i i i i i i y w w w w w w w w w w w w e i i i i y 3 3 3 3 *.L.%XsX%.3 -.`.3 3 3 6 ",
"i i i i i i i i i i i i i i i i i i i i i i i i i i i i i i i i i i i i i i i i y w w w w w w w w w w w w e i i i i y 3 3 7 '.0.OXAXBX=.3 -.`.3 3 3 6 ",
"i i i i i i i i i i i i p p p p p p p p p i i i i i g k k k k k k k k k i i i i y w w w w w w w w w w w w e i i i p y 3 h 7XA.pXAXAXBX-.3 -.`.3 3 3 6 ",
"i i i i i i i i i i i y 6 6 6 6 6 6 6 6 6 y i i i i k x x x x x x x x z i i i i y w w w w w w w w w w w w e i i i p y $.aX>.@XAXAXZXNX=.3 -.`.3 3 3 6 ",
"i i p g g g g i i i i y 3 3 3 3 3 3 3 3 2 6 i i i i k x x x x x x x x z i i i i y w w w w w w w w w w w w e i i i i /.%Xy.;X[.h h h 3X-.3 -.`.3 3 3 6 ",
"i i z x x x x i i i i y 3 3 3 3 3 3 3 3 3 6 i i i i k x x x x x x x x z i i i i y w w w w w w w w w w w w e i i i XX*Xe.VXBX'.3 3 3 '.).3 -.`.3 3 3 6 ",
"i i k x x x z i i i i y 3 3 3 3 3 3 3 3 3 6 i i i i k x x x x x x x x z i i i i y w w w w w w w w w w w w e i z |.G.OXZXAXNX'.3 3 3 ;.-.3 -.`.3 3 3 6 ",
"i i k x x x z i i i i y 3 3 3 3 3 3 3 3 3 6 i i i i k x x x x x x x x z i i i i y w w w w w w w w w w w w e ^.NXV.@XAXAXAXnX`.3 3 3 ;.-.3 =.;.3 3 3 6 ",
"i i k x x x z i i i i y 3 3 3 3 3 3 3 3 3 6 i i i i k x x x x x x x x z i i i i y w w w w w w w w w w w w }.sX5.6XVXVXZXZXbX`.3 3 3 ;.-.3 -.`.3 3 2 6 ",
"i i k x x x z i i i i y 3 3 3 3 3 3 3 3 3 6 i i i i k x x x x x x x x z i i i i i r r r r r r r r r r r XXdXu.sX[.k g f f 5X[.e e e [.).e ).].e e e y ",
"i i k x x x z i i i i y 3 3 3 3 3 3 3 3 3 6 i i i i k x x x x x x x x z i i i i i i i i i i i i i i i /.%XOXZXBX).i i p i 3X5Xi i i [.).i _.[.i i i i ",
"i i k x x x z i i i i y 3 3 3 3 3 3 3 3 3 6 i i i i k x x x x x x x x z i i i i i i i i i i i i i z 0X-X1XAXAXCX).i i i i 2X[.i i i [._.i _.[.i i i i ",
"i i k x x x z i i i i y 3 3 3 3 3 3 3 3 3 6 i i i i k x x x x x x x x z i i i i i i i i i i i i v cXL.4XvXvXvXmX'.i i i i 2X].i i i [.|.i ).].i i i i ",
"i i k x x x z i i i i y 3 3 3 3 3 3 3 3 3 6 i i i i k x x x x x x x x z i i i i i i i i i i i !.NXg.;X_.i i i %.[.i i i i 2X].i i i [._.i ).(.i i i i ",
"i i k x x x z i i i i y 3 3 3 3 3 3 3 3 3 6 i i i i k x x x x x x x x z i i i i p z z z z z /.aXi.MXCX).z z z %.].z z z z 2X[.z k i [.).i (.E.e e e r ",
"i i k x x x z i i i i y 3 3 3 3 3 3 3 3 3 6 i i i i k x x x x x x x x z i i i i p x x x x oXkXy.MXAXCX(.x x x %.].x x x x 5X3Xx z i [.).i (.E.w w 5 r ",
"i i k x x x z i i i i y 3 3 3 3 3 3 3 3 3 6 i i i i k x x x x x x x x z i i i i p x x x XXtXr.MXZXVXBX).x x x %.].x x x x 5X3Xx z i (.(.i Q.E.w w w r ",
"i i k x x x z i i i i y 3 3 3 3 3 3 3 3 3 6 i i i i k x x x x x x x x z i i i i p x c vX<X<.7XoXoXXX7X5X.X.X.X9X].x x x x 5X[.x z i (.(.i %.E.w w 5 r ",
"i i k x x x z i i i i y 3 3 3 3 3 3 3 3 3 6 i i i i g z z z z z z z z k i i i i p x xX*X} <.g.=X-XrXH.*XkXkXNXkX+X|.|.8X0X6X].!.!.c  XQ.i Q.E.w w 5 r ",
"i i k x x x z i i i i y 4 4 4 4 4 4 4 4 3 e i i i i i i i i i i i i i i i i i i p 0XA.OX@XI I Y R W { } o.1.e.y.d.rXyXjXjXj.j.hXlXhXOX#.'.+X+X8X{.w r ",
"i i k x x x z i i i i i i i i i i i i i i i i i i i i i i i i i i i i i i i i p 9XD.Q MXW.n V B S S R R H U H R R Y W O.O.[ X.f.OXF.2.u.yXwX] E 7Xs r ",
"i i k x x x z i i i i i i i i i i i i i i i i i i i i i i i i i i i i i i i i XXY.f.2.pX+XU V $ o . b B o * B D U K U ` o.T T ' ` Y S D ) ` } dXvXs r ",
"i i k x x x z i i i i i i i i i i i i i i i i i i i i i i i i i i i i i i i !.dXQ o.<.<.u.i.d.j.f.w.2.` ^ Z = b n X o * ^ J ^ ' T Y D S R H } NX&.w r ",
"i i k x x x z i i i i u 8 8 8 8 8 8 8 8 8 8 8 8 8 8 8 8 8 8 8 8 8 8 8 8 i i cX7.D K <.I K ] ] ] O.r.y.u.:X:X:Xf.1.w.O.( ^ J Z - + # @ & V C W kX&.w r ",
"i i k x x x z i i i i 0 : : : : : : : : : : : : : : : : : : : : : : : > u c nXM X & { D C W R H H H R R T ) o.} { j.$X%X:Xe.2.g.2.X.K B B & K kX&.w r ",
"i i k x x x z i i i i t : : : : > > > > : : > > > > > > : : : : 9 /./.~.{.mX%XM - o ) %   C B & B C H I K K U U M Y Y W ] Y W e.y.i.C.D.*X=XL.gX&.w r ",
"i i k x x x z i i i i t : : : > > > > > : : : > > > > > : : : : q pXj.F.G.C.7.5.C.d.8.] ( ` F $ o . O n # b F J H K U U Y D V Y U H j.kXjXiX,XqXd w r ",
"i i k x x x z i i i i t : > > > > > : : : : > > > : > > : : : : q ' D U R W 1.~ 3.u.8.i.<XL.$X%Xf.@.` D Z - - - N # & B S V V Y Y H f.kXfXrXT.qXd w r ",
"i i k x x x z i i i i t > > : : > > : : : : > > : : > > : : : : 9 / b S H H X.R U Y <.~ o.4.u.j.&XtXH.y.tX;XOXr.T / Z - $ o O & * b w.jXiXwXU.tXj w r ",
"i i k x x x z i i i i t > > > : > : : : > > > > : : : 1 a a c ~.9X' X X o o J R V G <.I H ] W Y W X.} } OX%XqXj.[ yX*Xj.u.) S K B # @.jXyX<XA.gX!.w r ",
"i i k x x x z i i i i t > > > > > : : : : : > > : a {.7XnXdXtXwXL.S.a.2.( A Z Y . . W D B W W H U U H H ` ` o.W K r.u.d.C.q.q.G.*X-XtXiXwX,XA.dX&.w r ",
"i i k x x x z i i i i t : > > > : : : : : : : : > Q.u.X.<.3.i.S.F.H.H.*X*X*X$X{ ) / X.V . C B # B C H K T ) T D n U U E W h.gXjXjXgXiXyX<XY.I.4Xs w r ",
"i i k x x x z i i i i t : : : > > : : : : : : : > %.] U U Y W ] o.e.a.F.$X%X:X<.4.tXg.4.w.2.( N # = # N - B S D n Y Y Y H j.kXgXfXiXyXrX<XU.I.p.w w r ",
"i i k x x x z i i i i t : : : : > > : : : : : > 9  XS V G U U U U U R ) X.e.f.1.<.tXd.y.qX$XF.%Xj.w.( V Z o X o O N C S D f.kXfXiXiXyXwX,XK.P.p.w w r ",
"i i k x x x z i i i i t : : : : > > : > 1 c /.9XsX;X) F N & * V S K U U U U U W I 2.3.4.%Xj.j.:XqX:Xj.1.H.y.o.K @ & o X . +.kXiXiXyXrX<XY.G.P.p.w w r ",
"i i k x x x z i i i i t : : : : > 1 {.7XpXyXL.C.q.i.F.F.f.2.` A - & * B S K U R P K { R ) X.1.f.j.:Xf.} *XD.D.q.! 8.<.R C r.jXiXyXrXwX>XY.A.P.p.w w r ",
"i i z x x x x i i i i 0 : : : : : v OX..<.6.8.i.C.d.g.F.H.*X=X%Xj.r.( A * # & D M K ] Y U Y Y ) ) O.o.E a.d.d.s.7.9.C.>XiXgXiXyXyXwX<X,XK.A.N.R.w w r ",
"i i k z k z k i i i i t < < < < < !.+.H Y R W X.4.d.S.F.H.H.$X$X%X:X:X&Xf.@.( Y n o U D C T ) ` ) ) K n R W ] X.g.tXjXjXgXiXiXyXwX<X>XY.G.Z.N.R.w w r ",
"i i i i i i i i i i i i i i p v /.vX^ O N S K U U W } 1.y.h.$X%X%X%X%X%X&X-XrX<.X.+.} V + C b B S H D V R Y U H %XkXjXgXfXiXyXrX<X>XT.U.A.Z.N.R.w w r ",
"i i i i i i i i i i z !.xXvX7XsXhX-Xe.` C $ + & C H K Y U W } 2.a.$X&X&X&X%X%X{ u.<X8.1.OX+.J N # o # % C G K H #XkXjXgXfXiXrXwX>X,XY.G.A.Z.N.p.w w r ",
"i i i i i i i i x |.aXdX<XS.V.q.i.d.D.L.L.f.O.^ - + # B S H H U Y W o.r.f.%X$X~ h.*X4.2.:Xf.u.F.e.[ S @ o X # b f.kXjXfXiXyXwX>XY.Y.K.A.A.M.N.R.w w r ",
"i i i i i i i i ~.u.~ <.7.q.i.s.d.g.S.F.F.$X=X-XF.r.` C & + & V G K H K R ) 1.~ g.%Xy.2.-Xu.1.S.C.C.8.I 1.W S % f.kXgXfXiXrX<XT.U.G.A.A.Z.m.c.qXd w r ",
"i i r r r r r r &.X.H Y E ] 1.y.C.S.F.F.F.#X$X$X$X$X*X$Xf.O.J - + # b S H H { I R [ } } :Xe.1.S.i.q.7...0.0.V.*XdXjXfXiXrX<X,XU.G.A.A.Z.Z.b.c.qXd w r ",
"i i e 5 w w w w {.A * H U U U E { 3.d.F.H.H.F.F.F.F.F.$X%X-X-XF.r.( Z $ + # ] I H K R P ` Y W 8.8.0.0.9.d.-XjXkXjXgXiXyX<X,XK.A.A.Z.Z.Z.M.v.l.dXj w r ",
"i i e w w &.*.3XdX_ * X + B H Y U U T { 2.a.F.F.F.F.F.$X%X$X%X%X*X*XH.u.o.A [ M o * U D K D D R W W 3.tXjXkXjXgXfXiXyX<XY.K.A.A.Z.Z.M.M.v.v.l.qXj w r ",
"i g &.9X6XpX=XG.i.D.S.2.( - o # V K U U U R ] 1.u.F.$X%X$X$X$X$X$XF.F.H.*X-Xa.I ( - S n $ b n K K H O.kXjXjXgXfXiXrX<XY.G.A.Z.Z.M.m.b.b.v.c.N.hXd w r ",
"&.aX%XG.V.0.s.d.d.g.S.F.L.S.e.^ - + & C H U U U Y W O.u.F.%X$XH.#X#XF.$X$X%Xf.I $X%X4.P A @ . o * B ` kXjXgXiXuXwX>XY.G.A.Z.M.b.b.v.v.x.c.U.'.XXs 5 r ",
"{.fXV.8.7.q.s.d.d.g.h.S.F.F.H.*XF.e.^ - + & V K U U H K W o.u.h.$X%X$X$X%X%X%X~ 1.-Xt.~ G.<.U K * . Z jXgXiXyXwX,XK.A.Z.Z.b.b.v.v.c.l.T.NX.Xi i y y i ",
"v uX<X<XD.s.q.i.d.d.g.S.S.F.F.F.F.H.*Xh.2.J - o # B H U U U U W o.u.F.&X&X&X&Xa.I g.y.~ D.1...V.7.{ +.jXfXyXwX,XK.A.Z.M.b.v.v.x.n.T.NXxXx i i i i i i ",
"g L.A.K.>X<X*XC.i.i.d.g.h.F.F.F.F.F.F.F.H.L.g.2.J $ X + B H U U U U W o.u.j.%X&X4.! <.~ F.i.8.i.D.iXkXfXiXwX,XK.A.Z.M.b.v.x.c.U.4XoX^.i i i i i i i i ",
"k D.n.Z.Z.A.Y.<X<XF.d.s.d.g.S.F.F.F.F.F.F.F.F.$X*Xh.O.J $ . + B G K U U U E X.e.h.e.I Q S.D.L.tXjXjXfXiXwX,XK.A.Z.m.v.x.l.U.lX/.i i i i i i i i i i i ",
"z dXn.l.v.M.Z.A.Y.<X<X*XS.d.d.h.F.F.F.F.F.F.F.F.F.H.*XL.g.O.J $ X + B S K U U U T } X.R I 3.dXzXkXgXiXyX,XU.A.Z.b.v.c.I.dXvX^.u u u u u u u u u u u i ",
"p xXCXgXZ.l.v.M.Z.A.U.>XwX<XH.S.d.h.F.F.F.F.$X$X$X$XF.j.F.H.L.g.O.J $ X # B S K K K Y W W R Q 3.*XrXwXG.i.V.Z.v.c.I.qXxXa > > > > > > > > > > > > > 8 ",
"i i &.0XcXpXU.n.c.b.Z.A.G.,X<XwX=XF.g.g.F.F.F.$X$X$X$XF.F.F.F.F.L.L.g.O.F $ o $ B S H H W dXF.Q !  .~  .0.8.9.Z.hX/.1 : : : : : : : : : : : : : : : 8 ",
"i i e 5 w j *.6XeXN.c.v.Z.A.G.Y.<XrX<X*XF.h.j.F.$X$X$X$X$XF.F.F.F.F.S.D.S.y.} F $ o & b K dXiX| L Q 7.7.0.8.9.bX!.: : : : : > : : : : : : : : : : : 8 ",
"i i e 5 w w w s }.8XyXM.l.v.M.Z.A.K.,XwXrX<X*XF.h.F.F.F.F.F.F.F.F.F.j.S.d.C.C.C.8.] S + & rXL.| m L i.q.8.9.Z.).> > > : > : > > : > > > > > : : : : 8 ",
"i i r e e e e e e e ^.MXpXU.n.x.b.Z.A.A.U.>XwXrX-XH.h.h.F.F.F.F.F.F.F.S.h.g.d.s.V.V.B.7.] q.6.| m Q q.8.8.6.yX.X> > : : : > > > : > > > > > : : : : 8 ",
"i i i i i i i i i i i k v ^.6X<XN.c.v.M.Z.A.A.U.<XrXrX*XF.h.h.F.F.F.F.F.S.g.d.d.s.i.q.q.q.9.9.>. .9.0.9.7.C.BX.X> > > > > > : : : : > > > : : : : : 8 ",
"i i i i i i i i i i i i i i p &.8XqXP.N.x.v.M.Z.Z.A.U.<XyX<X*XF.g.g.h.S.h.g.d.d.d.i.i.0.8.9.9.q.q.9.7.q.*XA.NX^.> : > > > > : : : : > > > : : : : : 8 ",
"i i i i i i i i i i i i i i i i i g }.4XK.N.l.x.v.b.Z.G.L.Y.<XrX<XH.g.d.d.d.d.d.i.i.q.q.8.9.9.7.7.i.L.>XZ.,.nXl : : : : > : : : > > > > : : : : : : 8 ",
"i i i i i i i i i i i i i i i i i i i i }.9X&XP.l.l.v.Z.Z.Z.M.A.Y.<XwX=XF.d.s.i.q.8.7.7.8.0.i.S.L.,XA.x.5.l.sX1 : : : : > > : : > > > > > : : : : : 8 ",
"i i 8 1 8 8 8 8 8 8 8 8 8 8 8 8 8 1 8 8 1 0 v xXlXeXM.x.v.v.v.v.b.m.Z.K.,X>X>X*XL.L.L.L.L.*XY.A.m.l.l.l.,.P.XX> > > > : : : : : > : : : > > > > : : 8 ",
"i i , ; : : : : : : : : : : : : : : : : ; 8 i i !..XmXkXV.l.,.l.x.v.v.v.v.b.M.A.A.G.A.A.M.v.x.l.l.x.l.l.n.sX1 : > > : : : : : : > : : : > > > > : : 8 ",
"i i < : : : : : : : : : > > : : : : : : : 8 i i i i x oXZXNX<XM.,.,.l.x.x.x.v.v.v.v.x.x.x.x.v.x.x.l.z.b.7Xc : : > > > > : : > > > > : : : : > > : : 8 ",
"i i < : : : : : : : : : : > : : : : : : : 8 i i i i k x v !.^.cXnXyXv.,.,.l.x.x.x.x.v.v.x.x.x.l.,.N.J.d , : : : > > > : > : > > > > : : : > > > : : 8 ",
"i i < : : : : : : > > > : : : : : : : : : 8 i i i i k x x x x x ^.xXCXlX<XM.l.,.l.z.z.c.c.c.n.P.jXmXq : : : : : : : : : : > > : > > > > : : : : > : 8 ",
"i i < : : : : : : : > > : > : : : : : : : 8 i i i i k x x x x x x x !.^.!.cXbXhX&XJ.H.*Xk.4X7XvX.Xp 0 0 0 0 0 0 t t t t 0 t t t t t t t 0 0 0 t t 0 u ",
"i i < : : : : : > > > > > > > > : : : : : 8 i i i i k x x x x x x x x z i i z c x k k z i i i i i i i i i i i i i i i i i i i i i i i i i i i i i i i "
};
