/* XPM */
static char * f_xpm[] = {
"64 64 142 2",
"  	c #F43A34",
". 	c #F43831",
"+ 	c #F44544",
"@ 	c #F4565C",
"# 	c #F4545A",
"$ 	c #F45359",
"% 	c #F45E62",
"& 	c #F46668",
"* 	c #F46568",
"= 	c #F46467",
"- 	c #F5555A",
"; 	c #F1505B",
"> 	c #E7415D",
", 	c #EA435D",
"' 	c #F25059",
") 	c #F45459",
"! 	c #F5565A",
"~ 	c #F54E5A",
"{ 	c #E8275A",
"] 	c #E7235C",
"^ 	c #E7245D",
"/ 	c #F4545B",
"( 	c #F4555B",
"_ 	c #F7585A",
": 	c #F6565A",
"< 	c #F45D61",
"[ 	c #F46366",
"} 	c #F4565B",
"| 	c #F4555A",
"1 	c #F3515A",
"2 	c #EF3C5A",
"3 	c #EE3A5A",
"4 	c #EE395A",
"5 	c #F1455A",
"6 	c #F4565A",
"7 	c #F46165",
"8 	c #F46B6D",
"9 	c #F46A6C",
"0 	c #F46B6C",
"a 	c #F4696B",
"b 	c #F45C60",
"c 	c #F24E5A",
"d 	c #E7245B",
"e 	c #E6205B",
"f 	c #E6215B",
"g 	c #E51E5B",
"h 	c #EC375B",
"i 	c #F5575A",
"j 	c #F46064",
"k 	c #F46A6B",
"l 	c #F4686A",
"m 	c #F4585D",
"n 	c #E8275D",
"o 	c #E7235D",
"p 	c #E6215D",
"q 	c #ED385C",
"r 	c #E6405D",
"s 	c #E9425D",
"t 	c #E7245A",
"u 	c #E6205C",
"v 	c #F3525A",
"w 	c #EE4C5B",
"x 	c #F04C5B",
"y 	c #F35259",
"z 	c #F4525A",
"A 	c #EF405A",
"B 	c #EE3E5B",
"C 	c #EE3F5B",
"D 	c #F4535A",
"E 	c #F4575C",
"F 	c #F46367",
"G 	c #F2505B",
"H 	c #F4676A",
"I 	c #F14F5B",
"J 	c #F46669",
"K 	c #F46B6B",
"L 	c #F4696A",
"M 	c #F45F63",
"N 	c #F46769",
"O 	c #E7235A",
"P 	c #E6215A",
"Q 	c #ED385A",
"R 	c #F3495A",
"S 	c #F3485A",
"T 	c #F44E5A",
"U 	c #F6575A",
"V 	c #F4555C",
"W 	c #F44E51",
"X 	c #F44E50",
"Y 	c #F45054",
"Z 	c #F4352D",
"` 	c #F43229",
" .	c #F4332A",
"..	c #F45055",
"+.	c #F4352C",
"@.	c #F43128",
"#.	c #F43329",
"$.	c #F46265",
"%.	c #F24F5A",
"&.	c #ED3A5C",
"*.	c #ED395C",
"=.	c #EE3D5C",
"-.	c #F14A5B",
";.	c #E6225D",
">.	c #E6205D",
",.	c #E61F5D",
"'.	c #F14B5B",
").	c #E7255D",
"!.	c #E7225D",
"~.	c #E92A5D",
"{.	c #F4342C",
"].	c #F4595E",
"^.	c #F44C4E",
"/.	c #F44B4D",
"(.	c #F44B4E",
"_.	c #F4565D",
":.	c #F3535A",
"<.	c #E8435D",
"[.	c #E8425D",
"}.	c #E9445D",
"|.	c #E7405D",
"1.	c #E73F5D",
"2.	c #E8415D",
"3.	c #E7245C",
"4.	c #E7225C",
"5.	c #E7215C",
"6.	c #E9295C",
"7.	c #F14C5A",
"8.	c #E8295A",
"9.	c #E8285A",
"0.	c #E8265A",
"a.	c #EA2E5A",
"b.	c #F5505A",
"c.	c #F45257",
"d.	c #F44848",
"e.	c #F43026",
"f.	c #F43127",
"g.	c #F4332B",
"h.	c #E63F5D",
"i.	c #EF4C5B",
"j.	c #F43C37",
"k.	c #F44645",
"                            . + @ # # $ % & * * * * * * & = @ $ # - ; > > > > > > > > > > > > , ' ) # ! ~ { ] ^ ^ ^ ^ ^ ^ ^ ^ ^ ",
"# # # # # # # # # # # # # # # # # # # # # # # # # # # # # # # # # - ; > > > > > > > > > > > > , ' ) # ! ~ { ] ^ ^ ^ ^ ^ ^ ^ ^ ^ ",
"/ / / / / / ( ( ( ( ( ( ( ( ( # # # # # # $ $ $ $ $ $ $ $ $ # # # - ; > > > > > > > > > > > > , ' ) # ! ~ { ] ^ ^ ^ ^ ^ ^ ^ ^ ^ ",
"# # # # # # _ _ _ _ _ _ _ _ _ : # # # $ < = = = = = = = = [ } $ # - ; > > > > > > > > > > > > , ' ) # ! ~ { ] ^ ^ ^ ^ ^ ^ ^ ^ ^ ",
"$ # # # | 1 2 3 3 3 3 3 3 3 4 5 6 # # $ 7 8 9 9 9 9 9 9 0 a @ $ # - ; > > > > > > > > > > > > , ' ) # ! ~ { ] ^ ^ ^ ^ ^ ^ ^ ^ ^ ",
"b ( # # 6 c d e f f f f f f g h i # # $ j 9 a a a a a a k l @ $ # - ; > > > > > > > > > > > > , ' ) # ! ~ { ] ^ ^ ^ ^ ^ ^ ^ ^ ^ ",
"9 m $ # 6 c n o ^ ^ ^ ^ ^ ^ p q i # # $ j 9 a a a a a a k l @ $ # - ; > > > > > > > > > > > > , ' ) # ! ~ { ] ^ ^ ^ ^ ^ ^ ^ ^ ^ ",
"a m $ # 6 c n o ^ ^ ^ ^ ^ ^ p q i # # $ j 9 a a a a a a k l @ $ # - ; > > > > > > > > > > > > , ' ) # ! ~ { ] ^ ^ ^ ^ ^ ^ ^ ^ ^ ",
"a m $ # 6 c n o ^ ^ ^ ^ ^ ^ p q i # # $ j 9 a a a a a a k l @ $ # - ; > > > > > > > > > > > > , ' ) # ! ~ { ] ^ ^ ^ ^ ^ ^ ^ ^ ^ ",
"a m $ # 6 c n o ^ ^ ^ ^ ^ ^ p q i # # $ j 9 a a a a a a k l @ $ # - ; r r r r r r r r r r r r s ' ) # ! ~ t u p p p p p p p p p ",
"a m $ # 6 c n o ^ ^ ^ ^ ^ ^ p q i # # $ j 9 a a a a a a k l @ $ # # v w w w w w w w w w w w w x y # # | z A B C C C C C C C C C ",
"a m $ # 6 c n o ^ ^ ^ ^ ^ ^ p q i # # $ j 9 a a a a a a k l @ $ # # # - - - - - - - - - - - - - # # # # # i i i i i i i i i i i ",
"a m $ # 6 c n o ^ ^ ^ ^ ^ ^ p q i # # $ j 9 a a a a a a k l @ $ # # # # # # # # # # # # # # # # # # # # # # # # # # # # # # # # ",
"a m $ # 6 c n o ^ ^ ^ ^ ^ ^ p q i # # $ j 9 a a a a a a k l @ $ # # # # # # # # # # # # # # # # # # # # # # # # # # # # # # # # ",
"a m $ # 6 c n o ^ ^ ^ ^ ^ ^ p q i # # $ j 9 a a a a a a k l @ $ # # # D D D D D D D D D D D D D D D D D D D D D D $ # # # # # # ",
"a m $ # 6 c n o ^ ^ ^ ^ ^ ^ p q i # # $ j 9 a a a a a a k l @ $ # $ E F F F F F F F F F F F F F F F F F F F F F F = 7 ( D # - G ",
"a m $ # 6 c n o ^ ^ ^ ^ ^ ^ p q i # # $ j 9 a a a a a a k l @ $ # $ m 9 9 9 9 9 9 9 9 9 9 9 9 9 9 9 9 9 9 9 9 9 9 8 H ( D # - I ",
"a m $ # 6 c n o ^ ^ ^ ^ ^ ^ p q i # # $ j 9 a a a a a a k l @ $ # $ m a a a a a a a a a a a a a a a a a a a a a a 9 J ( D # - I ",
"a m $ # 6 c n o ^ ^ ^ ^ ^ ^ p q i # # $ j 0 k k k k k k K L @ $ # $ m a a a a a a a a a a a a a a a a a a a a a a 9 J ( D # - I ",
"a m $ # 6 c n o ^ ^ ^ ^ ^ ^ p q i # # $ M a l l l l l l L N @ $ # $ m a a a a a a a a a a a a a a a a a a a a a a 9 J ( D # - I ",
"a m $ # 6 c { O t t t t t t P Q i # # # ( @ @ @ @ @ @ @ @ @ # # # $ m a a a a a a a a a a a a a a a a a a a a a a 9 J ( D # - I ",
"a m $ # # D R S S S S S S S S T | # # # # $ $ $ $ $ $ $ $ $ # # # $ m a a a a a a a a a a a a a a a a a a a a a a 9 J ( D # - I ",
"a m $ # # # U U U U U U U U U ! # # # # # # # # # # # # # # # # # $ m a a a a a a a a a a a a a a a a a a a a a a 9 J ( D # - I ",
"a m $ # # # V @ V V V V V V V V @ @ @ @ @ @ @ @ @ @ @ @ @ V # # # $ m a a a a a a a a a a a a a a a a a a a a a a 9 J ( D # - I ",
"a m $ # # $ W X W W W W W W W W W W W W W W W W W W W W X W $ # # $ m a a a a a a a a a a a a a a a a a a a a a a 9 J ( D # - I ",
"a m $ # V Y Z `  . . . . . . . . . . . . . . . . . . . .` Z ..V # $ m a a a a a a a a a a a a a a a a a a a a a a 9 J ( D # - I ",
"a m $ # V Y +.@.#.#.#.#.#.#.#.#.#.#.#.#.#.#.#.#.#.#.#.#.@.+...V # $ m a a a a a a a a a a a a a a a a a a a a a a 9 J ( D # - I ",
"a m $ # V Y Z `  . . . . . . . . . . . . . . . . . . . .` Z ..V # $ m a a a a a a a a a a a a a a a a a a a a a a 9 J ( D # - I ",
"a m $ # V Y Z `  . . . . . . . . . . . . . . . . . . . .` Z ..V # $ m 9 9 9 9 9 9 9 9 9 9 9 9 9 9 9 9 9 9 9 9 9 9 8 H ( D # - I ",
"a m $ # V Y Z `  . . . . . . . . . . . . . . . . . . . .` Z ..V # D @ 7 7 7 7 7 7 7 7 7 7 7 7 7 7 7 7 7 7 7 7 7 7 $.M ( # # - I ",
"a m $ # V Y Z `  . . . . . . . . . . . . . . . . . . . .` Z ..V # # # $ $ $ $ $ $ $ $ $ $ $ $ $ $ $ $ $ $ $ $ $ $ $ $ # # # - I ",
"a m $ # V Y Z `  . . . . . . . . . . . . . . . . . . . .` Z ..V # # # # # # # # # # # # # # # # # # # # # # # # # # # # # # - I ",
"a m $ # V Y Z `  . . . . . . . . . . . . . . . . . . . .` Z ..V # # # # # # # # # # # # # # # # # # # # # # # # # # # # # # - I ",
"a m $ # V Y Z `  . . . . . . . . . . . . . . . . . . . .` Z ..V # # | i i i i i i i i i i i i i i i i i i i i i i i i # # # - I ",
"a m $ # V Y Z `  . . . . . . . . . . . . . . . . . . . .` Z ..V # | %.&.*.*.*.*.*.*.*.*.*.*.*.*.*.*.*.*.*.*.*.*.*.q =.z | # - I ",
"a m $ # V Y Z `  . . . . . . . . . . . . . . . . . . . .` Z ..V # ! -.;.>.p p p p p p p p p p p p p p p p p p p p ,.n 1 | # - I ",
"a m $ # V Y Z `  . . . . . . . . . . . . . . . . . . . .` Z ..V # ! '.).o ^ ^ ^ ^ ^ ^ ^ ^ ^ ^ ^ ^ ^ ^ ^ ^ ^ ^ ^ ^ !.~.1 | # - I ",
"a m $ # V Y Z `  . . . . . . . . . . . . . . . . . . . .` Z ..V # ! '.).o ^ ^ ^ ^ ^ ^ ^ ^ ^ ^ ^ ^ ^ ^ ^ ^ ^ ^ ^ ^ !.~.1 | # - I ",
"k m $ # V Y {.@.` ` ` ` ` ` ` ` ` ` ` ` ` ` ` ` ` ` ` ` @.{...V # ! '.).o ^ ^ ^ ^ ^ ^ ^ ^ ^ ^ ^ ^ ^ ^ ^ ^ ^ ^ ^ ^ !.~.1 | # - I ",
"].( # # / $ ^./.(.(.(.(.(.(.(.(.(.(.(.(.(.(.(.(.(.(.(.(./.^.$ # # ! '.).o ^ ^ ^ ^ ^ ^ ^ ^ ^ ^ ^ ^ ^ ^ ^ ^ ^ ^ ^ ^ !.~.1 | # - I ",
"$ # # # # # _._._._._._._._._._._._._._._._._._._._._._._._.# # # ! '.).o ^ ^ ^ ^ ^ ^ ^ ^ ^ ^ ^ ^ ^ ^ ^ ^ ^ ^ ^ ^ !.~.1 | # - I ",
"# # # # # # # # # # # # # # # # # # # # # # # # # # # # # # # # # ! '.).o ^ ^ ^ ^ ^ ^ ^ ^ ^ ^ ^ ^ ^ ^ ^ ^ ^ ^ ^ ^ !.~.1 | # - I ",
"# # # # # # # # # # # # # # # # # # # # # # # # # # # # # # # # # ! '.).o ^ ^ ^ ^ ^ ^ ^ ^ ^ ^ ^ ^ ^ ^ ^ ^ ^ ^ ^ ^ !.~.1 | # - I ",
":.:.:.:.:.:.:.:.:.:.:.:.:.:.:.:.:.:.:.:.:.:.:.:.:.:.:.:.:.:.# # # ! '.).o ^ ^ ^ ^ ^ ^ ^ ^ ^ ^ ^ ^ ^ ^ ^ ^ ^ ^ ^ ^ !.~.1 | # - I ",
"<.<.<.<.<.<.<.<.<.<.<.<.<.<.<.<.<.<.<.<.<.<.<.<.<.<.<.<.[.}.v | # ! '.).o ^ ^ ^ ^ ^ ^ ^ ^ ^ ^ ^ ^ ^ ^ ^ ^ ^ ^ ^ ^ !.~.1 | # - I ",
"|.|.|.|.|.|.|.|.|.|.|.|.|.|.|.|.|.|.|.|.|.|.|.|.|.|.|.|.1.2.v | # ! '.).o ^ ^ ^ ^ ^ ^ ^ ^ ^ ^ ^ ^ ^ ^ ^ ^ ^ ^ ^ ^ !.~.1 | # - I ",
"> > > > > > > > > > > > > > > > > > > > > > > > > > > > |.[.v | # ! '.).o ^ ^ ^ ^ ^ ^ ^ ^ ^ ^ ^ ^ ^ ^ ^ ^ ^ ^ ^ ^ !.~.1 | # - I ",
"> > > > > > > > > > > > > > > > > > > > > > > > > > > > |.[.v | # ! '.).o ^ ^ ^ ^ ^ ^ ^ ^ ^ ^ ^ ^ ^ ^ ^ ^ ^ ^ ^ ^ !.~.1 | # - I ",
"> > > > > > > > > > > > > > > > > > > > > > > > > > > > |.[.v | # ! '.3.4.] ] ] ] ] ] ] ] ] ] ] ] ] ] ] ] ] ] ] ] 5.6.1 | # - G ",
"> > > > > > > > > > > > > > > > > > > > > > > > > > > > |.[.v | # ! 7.8.{ 9.9.9.9.9.9.9.9.9.9.9.9.9.9.9.9.9.9.9.9.0.a.1 | # # # ",
"> > > > > > > > > > > > > > > > > > > > > > > > > > > > |.[.v | # # D b.b.b.b.b.b.b.b.b.b.b.b.b.b.b.b.b.b.b.b.b.b.b.b.# # # # # ",
"> > > > > > > > > > > > > > > > > > > > > > > > > > > > |.[.v | # # # ! ! ! ! ! ! ! ! ! ! ! ! ! ! ! ! ! ! ! ! ! ! ! ! # # # # # ",
"> > > > > > > > > > > > > > > > > > > > > > > > > > > > |.[.v | # # / _._._._._._._._._._._._._._._._._._._._._._._._._._._._._.",
"> > > > > > > > > > > > > > > > > > > > > > > > > > > > |.[.v | # ( c.d.d.d.d.d.d.d.d.d.d.d.d.d.d.d.d.d.d.d.d.d.d.d.d.d.d.d.d.d.",
"> > > > > > > > > > > > > > > > > > > > > > > > > > > > |.[.v | # @ W @.e.f.f.f.f.f.f.f.f.f.f.f.f.f.f.f.f.f.f.f.f.f.f.f.f.f.f.f.",
"> > > > > > > > > > > > > > > > > > > > > > > > > > > > |.[.v | # @ W g.`  . . . . . . . . . . . . . . . . . . . . . . . . . . .",
"> > > > > > > > > > > > > > > > > > > > > > > > > > > > |.[.v | # @ W g.`  . . . . . . . . . . . . . . . . . . . . . . . . . . .",
"r r r r r r r r r r r r r r r r r r r r r r r r r r r r h.> v | # @ W g.`  . . . . . . . . . . . . . . . . . . . . . . . . . . .",
"w w w w w w w w w w w w w w w w w w w w w w w w w w w w w i.D # # @ W g.`  . . . . . . . . . . . . . . . . . . . . . . . . . . .",
"- - - - - - - - - - - - - - - - - - - - - - - - - - - - - - # # # @ W g.`  . . . . . . . . . . . . . . . . . . . . . . . . . . .",
"# # # # # # # # # # # # # # # # # # # # # # # # # # # # # # # # # @ W g.`  . . . . . . . . . . . . . . . . . . . . . . . . . . .",
"# # # # # # # # # # # # # # # # # # # # # # # # # # # # # # # # # @ W g.`  . . . . . . . . . . . . . . . . . . . . . . . . . . .",
"( ( ( ( ( ( ( ( ( ( ( ( ( ( ( / # # # # # D D D D D D D D D # # # @ W g.`  . . . . . . . . . . . . . . . . . . . . . . . . . . .",
"j.j.j.j.j.j.j.j.j.j.j.j.j.j.  k.V # # $ < = = = = = = = = [ } $ # @ W g.`  . . . . . . . . . . . . . . . . . . . . . . . . . . ."};
