/* XPM */
static char *b981203d71904f1cafc9085e7fd7a9d3Mzy2tUIi24wKA9ZG[] = {
/* columns rows colors chars-per-pixel */
"75 75 58 1 ",
"  c #F42F25",
". c #F43127",
"X c #F4332A",
"o c #F4352C",
"O c #F43831",
"+ c #F43A34",
"@ c #F43D37",
"# c #F43E39",
"$ c #F4403D",
"% c #E51E5B",
"& c #E61F5D",
"* c #E6215B",
"= c #E7245B",
"- c #E7235D",
"; c #E7245D",
": c #E8275A",
"> c #E8275D",
", c #E8285A",
"< c #E92C5A",
"1 c #E9295C",
"2 c #EC375B",
"3 c #ED365C",
"4 c #E73F5D",
"5 c #EE3A5A",
"6 c #EF3C5A",
"7 c #ED385C",
"8 c #EE3D5C",
"9 c #F44240",
"0 c #F44442",
"q c #F44544",
"w c #F44848",
"e c #F44B4E",
"r c #F44C4E",
"t c #E7415D",
"y c #EF405A",
"u c #E9435D",
"i c #EB455D",
"p c #EE4B5B",
"a c #EE4C5B",
"s c #EC485C",
"d c #F44E51",
"f c #F1455A",
"g c #F3495A",
"h c #F24E5A",
"j c #F44E5A",
"k c #F45054",
"l c #F3515A",
"z c #F45359",
"x c #F4545A",
"c c #F4565C",
"v c #F7585A",
"b c #F4585D",
"n c #F45C60",
"m c #F46367",
"M c #F46467",
"N c #F46568",
"B c #F4696B",
"V c #F46A6C",
/* pixels */
"c#.XXXXXXXXXXXXXXXX.$cxxzmVBBBBBBBBczxxxzzzzzzzzzzzzzxxxxxzzzzzzzzzzzzzzzzx",
"c#.XXXXXXXXXXXXXXXX.$cxxzmVBBBBBBBBczxxluuuuuuuuuuuuilxxxj<1111111111111>7x",
"c#.XXXXXXXXXXXXXXXX.$cxxzmVBBBBBBBBczxxlttttttttttttulxxxj:-------------&3x",
"c#.XXXXXXXXXXXXXXXX.$cxxzmVBBBBBBBBczxxlttttttttttttulxxxj:-;;;;;;;;;;;;-7x",
"c@ XXXXXXXXXXXXXXXX $cxxzmVVVVVVVVBczxxlttttttttttttulxxxj:-;;;;;;;;;;;;-7x",
"c9O++++++++++++++++OqcxxznNNNNNNNNMczxxlttttttttttttulxxxj:-;;;;;;;;;;;;-7x",
"xxxxxxxxxxxxxxxxxxxxxxxxxxxxxxxxxxxxxxxlttttttttttttulxxxj:-;;;;;;;;;;;;-7x",
"xxxxxxxxxxxxxxxxxxxxxxxxxxzzzzzzzzzxxxxlttttttttttttulxxxj:-;;;;;;;;;;;;-7x",
"xxxxxxxxxxxvvvvvvvvvxxxxznMMMMMMMMmxzxxlttttttttttttulxxxj:-;;;;;;;;;;;;-7x",
"xzzzzzxxxxl655555555fxxxzmVVVVVVVVBczxxlttttttttttttulxxxj:-;;;;;;;;;;;;-7x",
"xbnnnnxxxxh=*******%2xxxzmVBBBBBBBBczxxlttttttttttttulxxxj:-;;;;;;;;;;;;-7x",
"zmVVVVbzxxh>-;;;;;;-7xxxzmVBBBBBBBBczxxlttttttttttttulxxxj:-;;;;;;;;;;;;-7x",
"zmVBBBbzxxh>-;;;;;;-7xxxzmVBBBBBBBBczxxlttttttttttttulxxxj:-;;;;;;;;;;;;-7v",
"zmVBBBbzxxh>-;;;;;;-7xxxzmVBBBBBBBBczxxlttttttttttttulxxxj:-;;;;;;;;;;;;-7x",
"zmVBBBbzxxh>-;;;;;;-7xxxznVBBBBBBBBczxxlttttttttttttulxxxj=-------------&3x",
"zmVBBBbzxxh>-;;;;;;-7xxxzmVBBBBBBBBczxxlaaaaaaaaaaaahlxxxzy66666666666666gx",
"zmVBBBbzxxh>-;;;;;;-7xxxzmVBBBBBBBBczxxxxxxxxxxxxxxxxxxxxxxxxxxxxxxxxxxvvxx",
"zmVBBBbzxxh>-;;;;;;-7xxxzmVBBBBBBBBczxxxxxxxxxxxxxxxxxxxxxxxxxxxxxxxxxxxxxx",
"zmVBBBbzxxh>-;;;;;;-7xxxzmVBBBBBBBBczxxxxxxxxxxxxxxxxxxxxxxxxxxxxxxxxxxxxxx",
"zmVBBBbzxxh>-;;;;;;-7xxxzmVBBBBBBBBczxxxzzzzzzzzzzzzzzzzzzzzxzzxxxxxxxxxxxx",
"zmVBBBbzxxh>-;;;;;;-7xxxzmVBBBBBBBBczxzcmmmmmmmmmmmmmmmmmmmmMMMmxzxxliiiiax",
"zmVBBBbzxxh>-;;;;;;-7xxxzmVBBBBBBBBczxzbVVVVVVVVVVVVVVVVVVVVVVVNxzxxhttt4sx",
"zmVBBBbzxxh>-;;;;;;-7xxxzmVBBBBBBBBczxzbBBBBBBBBBBBBBBBBBBBBBBVNxzxxhttttsx",
"zmVBBBbzxxh>-;;;;;;-7xxxzmVBBBBBBBBczxzbBBBBBBBBBBBBBBBBBBBBBBVNxzxxhttttsx",
"zmVBBBbzxxh>-;;;;;;-7xxxznBBBBBBBBNczxzbBBBBBBBBBBBBBBBBBBBBBBVNxzxxhttttsx",
"zmVBBBbzxxh:*======*5xxxxxcccccccccxxxzbBBBBBBBBBBBBBBBBBBBBBBVNxzxxhttttsx",
"zmVBBBbzxxzgggggggggjxxxxxzzzzzzzzzxxxzbBBBBBBBBBBBBBBBBBBBBBBVNxzxxhttttsx",
"zmVBBBbzxxxxxxxxxxxxxxxxxxxxxxxxxxxxxxzbBBBBBBBBBBBBBBBBBBBBBBVNxzxxhttttsx",
"zmVBBBbzxxxccccccccccccccccccccccccxxxzbBBBBBBBBBBBBBBBBBBBBBBVNxzxxhttttsx",
"zmVBBBbzxxzddddddddddddddddddddddddzxxzbBBBBBBBBBBBBBBBBBBBBBBVNxzxxhttttsx",
"zmVBBBbzxckoXXXXXXXXXXXXXXXXXXXXXXokcxzbBBBBBBBBBBBBBBBBBBBBBBVNxzxxhttttsx",
"zmVBBBbzxckoXXXXXXXXXXXXXXXXXXXXXXokcxzbBBBBBBBBBBBBBBBBBBBBBBVNxzxxhttttsx",
"zmVBBBbzxckoXXXXXXXXXXXXXXXXXXXXXXokcxzbBBBBBBBBBBBBBBBBBBBBBBVNxzxxhttttsx",
"zmVBBBbzxckoXXXXXXXXXXXXXXXXXXXXXXokcxzbVVVVVVVVVVVVVVVVVVVVVVVNxzxxhttttsx",
"zmVBBBbzxckoXXXXXXXXXXXXXXXXXXXXXXokcxzcmmmmmmmmmmmmmmmmmmmmmmmnxxxxhttttsx",
"zmVBBBbzxckoXXXXXXXXXXXXXXXXXXXXXXokcxxxxzzxzzzzzzzzxzzzzzzzzzzzxxxxhttttsx",
"zmVBBBbzxckoXXXXXXXXXXXXXXXXXXXXXXokcxxxxxxxxxxxxxxxxxxxxxxxxxxxxxxxhttttsx",
"zmVBBBbzxckoXXXXXXXXXXXXXXXXXXXXXXokcxxxxxxxxxxxxxxxxxxxxxxxxxxxxxxxhttttsx",
"zmVBBBbzxckoXXXXXXXXXXXXXXXXXXXXXXokcxxxxxxxxxxxxxxxvxxxvvxxxxxxxxxxhttttsx",
"zmVBBBbzxckoXXXXXXXXXXXXXXXXXXXXXXokcxxh777777777777777777777778zxxxhttttsx",
"zmVBBBbzxckoXXXXXXXXXXXXXXXXXXXXXXokcxxg----------------------&>lxxxhttttsx",
"zmVBBBbzxckoXXXXXXXXXXXXXXXXXXXXXXokcxxh;-;;;;;;;;;;;;;;;;;;;;-1lxxxhttttsx",
"zmVBBBbzxckoXXXXXXXXXXXXXXXXXXXXXXokcxxg;-;;;;;;;;;;;;;;;;;;;;-1lxxxhttttsx",
"zmVBBBbzxckoXXXXXXXXXXXXXXXXXXXXXXokcxxg;-;;;;;;;;;;;;;;;;;;;;-1lxxxhttttsx",
"xbbbbbxxxxzreeeeeeeeeeeeeeeeeeeeeerzxxxg;-;;;;;;;;;;;;;;;;;;;;-1lxxxhttttsx",
"xzzzzzxxxxxccccccccccccccccccccccccxxxxg;-;;;;;;;;;;;;;;;;;;;;-1lxxxhttttsx",
"xxxxxxxxxxxxxxxxxxxxxxxxxxxxxxxxxxxxxxxg;-;;;;;;;;;;;;;;;;;;;;-1lxxxhttttsx",
"xxxxxxxxxxxxxxxxxxxxxxxxxxxxxxxxxxxxxxxg;-;;;;;;;;;;;;;;;;;;;;-1lxxxhttttsx",
"xllllllllllllllllllllllllllllllllllxxxxg;-;;;;;;;;;;;;;;;;;;;;-1lxxxhttttsx",
"xsuuuuuuuuuuuuuuuuuuuuuuuuuuuuuuuuilxxxg;-;;;;;;;;;;;;;;;;;;;;-1lxxxhttttsx",
"xi4tttttttttttttttttttttttttttttt4ulxxxg;-;;;;;;;;;;;;;;;;;;;;-1lxxxhttttsx",
"xittttttttttttttttttttttttttttttttulxxxg;-;;;;;;;;;;;;;;;;;;;;-1lxxxhttttsx",
"xittttttttttttttttttttttttttttttttulxxxg;-;;;;;;;;;;;;;;-;;;;;-1lxxxhttt4sx",
"xittttttttttttttttttttttttttttttttulxxxg;----------------------1lxxxliiiisx",
"xittttttttttttttttttttttttttttttttulxxxh,:,,,,,,,,,,,,,,:,,,,,:<lxxxxxxxxxx",
"xittttttttttttttttttttttttttttttttulxxxzzzzzzzzzzzzzjzzzjzzzzzzzxxxxxxxxxxx",
"xittttttttttttttttttttttttttttttttulxxxxxxxxxxxxxxxxxxxxxxxxxxxxxxxxxxxxxxx",
"xittttttttttttttttttttttttttttttttulxxxxccccccccccccccccccccccccccccccccccx",
"xittttttttttttttttttttttttttttttttulxxxkwwwwwwwwwwwwwwwwwwwwwwwwwwwwwwwwqdx",
"xittttttttttttttttttttttttttttttttulxxcdX............................... $c",
"xittttttttttttttttttttttttttttttttulxxcdXXXXXXXXXXXXXXXXXXXXXXXXXXXXXXXX.$c",
"xittttttttttttttttttttttttttttttttulxxcdXXXXXXXXXXXXXXXXXXXXXXXXXXXXXXXX.$c",
"xi4tttttttttttttttttttttttttttttt4tlxxcdXXXXXXXXXXXXXXXXXXXXXXXXXXXXXXXX.$c",
"xhpaaaaaaaaaaaaaaaaaaaaaaaaaaaaaaaazxxcdXXXXXXXXXXXXXXXXXXXXXXXXXXXXXXXX.$c",
"xxxxxxxxxxxxxxxxxxxxxxxxxxxxxxxxxxxxxxcdXXXXXXXXXXXXXXXXXXXXXXXXXXXXXXXX.$c",
"xxxxxxxxxxxxxxxxxxxxxxxxxxxxxxxxxxxxxxcdXXXXXXXXXXXXXXXXXXXXXXXXXXXXXXXX.$c",
"xxxxxxxxxxxxxxxxxxxxxxxxxxxxxxxxxxxxxxcdXXXXXXXXXXXXXXXXXXXXXXXXXXXXXXXX.$c",
"xxxxxxxxxxxxxxxxxxxxxxxxxxzzzzzzzzzxxxcdXXXXXXXXXXXXXXXXXXXXXXXXXXXXXXXX.$c",
"c0+@@@@@@@@@@@@@@@@+qcxxznMMMMMMMMmxzxcdXXXXXXXXXXXXXXXXXXXXXXXXXXXXXXXX.$c",
"c@ ................ $cxxzmVVVVVVVVBczxcdXXXXXXXXXXXXXXXXXXXXXXXXXXXXXXXX.$c",
"c#.XXXXXXXXXXXXXXXX.$cxxzmVBBBBBBBBczxcdXXXXXXXXXXXXXXXXXXXXXXXXXXXXXXXX.$c",
"c#.XXXXXXXXXXXXXXXX.$cxxzmVBBBBBBBBczxcdXXXXXXXXXXXXXXXXXXXXXXXXXXXXXXXX.$c",
"c#.XXXXXXXXXXXXXXXX.$cxxzmVBBBBBBBBczxcdooooooooooooooooooooooooooooooooX9c",
"c#.XXXXXXXXXXXXXXXX.$cxxzmVBBBBBBBBczxxzkkkkkkkkkkkkkkkkkkkkkkkkkkkkkkkkkkx",
"c#.XXXXXXXXXXXXXXXX.$cxxzmVBBBBBBBBczxxxcccccccccccccccccccccccccccccccccxx"
};
