/* XPM */
static char *bf73ac53b58e4affb8463cabcb36a8e9awVNKvcs7KFcdk6C[] = {
/* columns rows colors chars-per-pixel */
"75 75 195 2 ",
"   c #000000",
".  c #0A0704",
"X  c #0A0B0B",
"o  c #1A0A00",
"O  c #150D0C",
"+  c #180F0E",
"@  c #1A170D",
"#  c #0B0E11",
"$  c #0E1214",
"%  c #141313",
"&  c #1C1616",
"*  c #1C1919",
"=  c #240F00",
"-  c #291000",
";  c #221D1D",
":  c #2F2A18",
">  c #312D1A",
",  c #3E371F",
"<  c #272726",
"1  c #3C2727",
"2  c #3F3920",
"3  c #3E3738",
"4  c #3C3A39",
"5  c #5E2601",
"6  c #472C2B",
"7  c #4A3729",
"8  c #5E2D36",
"9  c #473434",
"0  c #473D3D",
"q  c #4C3C3C",
"w  c #553938",
"e  c #5E3C3D",
"r  c #622522",
"t  c #622B29",
"y  c #65312E",
"u  c #623434",
"i  c #61373C",
"p  c #494125",
"a  c #5D542F",
"s  c #5F5530",
"d  c #6A5E36",
"f  c #6D6538",
"g  c #726739",
"h  c #756A3B",
"j  c #78713E",
"k  c #5E3A45",
"l  c #5E3F48",
"z  c #4A4848",
"x  c #5E434B",
"c  c #5E4D4C",
"v  c #5F4D52",
"b  c #5F5355",
"n  c #5F5558",
"m  c #624343",
"M  c #644848",
"N  c #774949",
"B  c #645656",
"V  c #665D5D",
"C  c #7A5758",
"Z  c #616060",
"A  c #696364",
"S  c #796563",
"D  c #813401",
"F  c #8B3700",
"G  c #8E3A00",
"H  c #F42F24",
"J  c #F43127",
"K  c #F4332A",
"L  c #F4382F",
"P  c #F43731",
"I  c #F43832",
"U  c #F43D39",
"Y  c #B64900",
"T  c #CE5200",
"R  c #F26100",
"E  c #FC6500",
"W  c #FF6D00",
"Q  c #FF7300",
"!  c #F54037",
"~  c #F5423C",
"^  c #E51F5D",
"/  c #E7245D",
"(  c #E8275B",
")  c #E92A5C",
"_  c #EB325B",
"`  c #E53F5D",
"'  c #EE3E5B",
"]  c #E9386C",
"[  c #EA3E70",
"{  c #854B4A",
"}  c #924744",
"|  c #84514E",
" . c #834F54",
".. c #855252",
"X. c #8C5656",
"o. c #865459",
"O. c #845A5B",
"+. c #9B5555",
"@. c #955B5B",
"#. c #A6474B",
"$. c #897B45",
"%. c #815960",
"&. c #955D65",
"*. c #836463",
"=. c #9D6062",
"-. c #AF636F",
";. c #A27070",
":. c #BE7676",
">. c #F44544",
",. c #F54D45",
"<. c #F4494A",
"1. c #F65149",
"2. c #E7415D",
"3. c #EB455C",
"4. c #EE4A5B",
"5. c #F44E52",
"6. c #F0455B",
"7. c #F24D5B",
"8. c #F45156",
"9. c #F65B57",
"0. c #F4545A",
"q. c #FE575D",
"w. c #F45B5F",
"e. c #FE585E",
"r. c #F7645D",
"t. c #D1586C",
"y. c #E84964",
"u. c #EF5C6D",
"i. c #F45767",
"p. c #F45C61",
"a. c #FE5960",
"s. c #EB4575",
"d. c #EB4A79",
"f. c #EA5C75",
"g. c #EC507D",
"h. c #F25D70",
"j. c #D96B6A",
"k. c #C97D7B",
"l. c #DE7679",
"z. c #E96D6F",
"x. c #F46366",
"c. c #F46769",
"v. c #F4696B",
"b. c #F86C6A",
"n. c #EB6777",
"m. c #F46E70",
"M. c #E77A7F",
"N. c #F67375",
"B. c #F6777C",
"V. c #F6787C",
"C. c #97884C",
"Z. c #9E8F50",
"A. c #A39253",
"S. c #AB9957",
"D. c #AD9D58",
"F. c #AAA15B",
"G. c #B7A65C",
"H. c #B7B162",
"J. c #C7B465",
"K. c #C9BA67",
"L. c #DAC66E",
"P. c #DEC970",
"I. c #DED576",
"U. c #E2CD72",
"Y. c #E3DB79",
"T. c #F4DD7B",
"R. c #F1E37F",
"E. c #FFE67F",
"W. c #EC5581",
"Q. c #ED5C86",
"!. c #CF7583",
"~. c #ED6F84",
"^. c #B58C8E",
"/. c #CA8889",
"(. c #D78484",
"). c #DC8488",
"_. c #DF8888",
"`. c #D39494",
"'. c #E28A8A",
"]. c #E98D8D",
"[. c #F48587",
"{. c #E88F91",
"}. c #F08799",
"|. c #E69194",
" X c #EE9292",
".X c #F39494",
"XX c #F79C9C",
"oX c #FC9B9B",
"OX c #DBA0A1",
"+X c #FFE780",
"@X c #FFEA82",
"#X c #FFF387",
"$X c #FFF689",
"%X c #FFF98A",
"&X c #FFFF93",
/* pixels */
"V.a.U J K K K K K K K K K K K K K K K K L 8.0.0.8.p.v.v.v.v.v.v.v.v.v.0.8.0.0.7.2.2.2.2.2.2.2.2.2.2.2.2.4.0.0.0.0._ / / / / / / / / / / / / / / ' 0.0.",
"V.a.U J K K K K K K K K K K K K K K K J L 8.0.0.8.p.v.v.v.v.v.v.v.v.v.0.8.0.0.7.2.2.2.2.2.2.2.2.2.2.2.2.4.0.0.0.0._ / / / / / / / / / / / / / / ' 0.0.",
"V.e.~ L I I I I I I I I I I I I I I I P I 8.0.0.8.w.c.c.c.c.c.c.c.c.x.0.8.0.0.7.2.2.2.2.2.2.2.2.2.2.2.2.4.0.0.0.0._ / / / / / / / / / / / / / / ' 0.0.",
"B.q.8.8.8.8.8.8.8.8.8.8.8.8.8.8.0.8.8.8.8.0.0.0.0.0.0.0.0.0.0.0.0.0.0.0.0.0.0.7.2.2.2.2.2.2.2.2.2.2.2.2.4.0.0.0.0._ / / / / / / / / / / / / / / ' 0.0.",
"B.q.0.0.0.0.0.0.0.0.0.0.0.0.0.0.0.0.0.0.0.0.0.0.0.8.8.8.8.8.8.8.8.8.8.0.0.0.0.7.2.2.2.2.2.2.2.2.2.2.2.2.4.0.0.0.0._ / / / / / / / / / / / / / / ' 0.0.",
"B.q.0.0.0.0.0.0.0.0.0.0.0.0.0.0.0.0.0.0.0.0.0.0.0.0.p.p.p.p.p.p.p.p.p.0.0.0.0.7.2.2.2.2.2.2.2.2.2.2.2.2.4.0.0.0.0._ / / / / / / / / / / / / / / ' 0.0.",
"B.q.0.0.0.0.0.0.0.0.0.8.7.7.7.7.7.7.7.7.7.8.0.0.8.p.v.v.v.v.v.v.v.v.v.0.8.0.0.7.2.2.2.2.2.2.2.2.2.2.2.2.4.0.0.0.0._ / / / / / / / / / / / / / / ' 0.0.",
"B.q.0.8.8.8.8.0.0.0.0.3.( ( ( ( ( ( ( ( ) 8.0.0.8.p.v.v.v.v.v.v.v.v.v.0.8.0.0.7.2.2.2.2.2.2.2.2.2.2.2.2.4.0.0.0.0._ / / / / / / / / / / / / / / ' 0.0.",
"B.q.p.x.x.x.x.0.8.0.0.3./ / / / / / / / / 8.0.0.8.p.v.v.v.v.v.v.v.v.v.0.8.0.0.7.2.2.2.2.2.2.2.2.2.2.2.2.4.0.0.0.0._ / / / / / / / / / / / / / / ' 0.0.",
"B.q.x.v.v.v.v.0.8.0.0.3./ / / / / / / / ( 8.0.0.8.p.v.v.v.v.v.v.v.v.v.0.8.p.0.7.2.2.2.2.2.2.2.2.2.2.2.2.4.0.0.0.0._ / / / / / / / / / / / / / / ' 0.0.",
"B.q.x.v.v.v.c.0.8.0.0.3./ / / / / / / / ( 8.0.0.8.p.v.v.v.v.v.v.v.v.v.|.C q N ).2.2.2.2.2.2.2.2.2.2.2.2.4.0.0.0.0._ / / / / / / / / / / / / / / ' 0.0.",
"B.q.x.v.v.v.c.0.8.0.0.3./ / / / / / / / ( 8.0.0.8.p.v.v.v.v.v.v.v.N.OX4       < t.2.2.2.2.2.2.2.2.2.2.2.4.0.0.0.0._ / / / / / / / / / / / / / / ' 0.0.",
"B.q.x.v.v.v.c.0.8.0.0.3./ / / / / / / / ( 8.0.0.8.p.v.v.v.v.v.v.v.XXZ     O     3 n.` ` ` ` 2.2.2.2.2.2.4.0.0.0.0._ ^ / / / / / / / / / / / / ^ ' 0.0.",
"B.q.x.v.v.v.c.0.8.0.0.3./ / / / / / / / ( 8.0.0.8.p.v.v.v.v.v.v.v./..   ..'.@.. . ^.3.3.3.3.3.3.3.3.3.3.7.0.0.0.0.' _ _ _ _ _ _ _ _ _ _ _ _ _ _ 6.0.0.",
"B.q.x.v.v.v.c.0.8.0.0.3./ / / / / / / / ( 8.0.0.8.p.v.v.v.v.v.v.v...  6 .X].oXw   N 0.0.0.0.0.0.0.0.0.0.0.0.0.0.0.0.0.0.0.0.0.0.0.0.0.0.0.0.0.0.0.0.0.",
"B.q.x.v.v.v.c.0.8.0.0.3./ / / / / / / / ( 8.0.0.8.p.v.v.v.v.v.v.v.C   ...X_..X@.  e 0.0.0.0.0.0.0.0.0.0.0.0.0.0.0.0.0.0.0.0.0.0.0.0.0.0.0.0.0.0.0.0.0.",
"B.q.x.v.v.v.c.0.8.0.0.6./ / / / / / / / ( 8.0.0.8.p.v.v.v.v.v.v.N.w   N .X_..X..  < l.0.0.0.0.0.0.0.0.0.0.0.0.0.0.0.0.0.0.0.0.0.0.0.0.0.0.0.0.0.0.0.0.",
"B.q.x.v.v.v.c.0.8.0.0.6./ / / / / / / / ( 8.0.0.8.p.v.v.v.v.v.v.=..   m  X_. X@.    9 p.0.0.0.0.0.0.0.0.0.0.0.0.0.0.0.0.0.0.0.0.0.0.0.0.0.0.0.0.0.0.0.",
"B.q.x.v.v.v.c.0.8.0.0.3./ / / / / / / / ( 8.0.0.8.p.v.v.v.v.v.z.*   6 '.'._._. XX.    #.0.0.0.0.0.0.0.0.0.0.0.0.0.0.0.0.0.0.0.0.0.0.0.0.8.8.8.8.0.0.0.",
"B.q.x.v.v.v.c.0.8.0.0.6./ / / / / / / / ( 8.0.0.8.p.v.v.v.v.v.+.  + (.]._._._.'..Xe   1 v.c.c.c.c.c.c.c.c.c.c.c.c.c.c.c.c.c.c.0.8.0.0.8.3.3.3.2.4.0.0.",
"B.q.x.v.v.v.c.0.8.0.0.3./ / / / / / / / ( 8.0.0.8.p.v.v.v.v.v.9   N .X_.'.'._._.].k.. X j.v.v.v.v.v.v.v.v.v.v.v.v.v.v.v.v.v.v.0.8.0.0.7.2.2.2.` 4.0.0.",
"B.q.x.v.v.v.c.0.8.0.0.3./ / / / / / / / ( 8.0.0.8.p.v.v.v.v.m.&   :.]._._._._._.'. X1   ;.v.v.v.v.v.v.v.v.v.v.v.v.v.v.v.v.v.v.0.8.0.0.7.2.2.2.2.4.0.0.",
"B.q.x.v.v.v.c.0.8.0.0.3./ / / / / / / / ( 8.0.0.8.p.v.v.v.v.j.X O ]..X X X X X X XoXN   O.v.v.v.v.v.v.v.v.v.v.v.v.v.v.v.v.v.v.0.8.0.0.7.2.2.2.2.4.0.0.",
"B.q.x.v.v.v.c.0.8.0.0.3./ / / / / / / / ( 8.0.0.8.p.v.v.v.v.`.X O X.X.X.X.X.X.X.X.@.6   C v.v.v.v.v.v.v.v.v.v.v.v.v.v.v.v.v.v.0.8.0.0.7.2.2.2.2.4.0.0.",
"B.q.x.v.v.v.c.0.8.0.0.3./ / / / / / / / ( 8.0.0.8.0.p.p.p.{.z                           * :.v.v.v.v.v.v.v.v.v.v.v.v.v.v.v.v.v.0.8.0.0.7.2.2.2.2.4.0.0.",
"B.q.x.v.v.v.c.0.8.0.0.6.) ) ) ) ) ) ) ) _ 8.0.0.0.0.8.8.8...                              3 [.v.v.v.v.v.v.v.v.v.v.v.v.v.v.v.v.0.8.0.0.8.2.2.2.2.4.0.0.",
"B.q.x.v.v.v.c.0.8.0.0.0.0.0.0.0.0.0.0.0.0.0.0.0.0.0.0.0.p.q   5 G F F F F F F F F F G D . X l.v.v.v.v.v.v.v.v.v.v.v.v.v.v.v.v.0.8.0.0.7.2.2.2.2.4.0.0.",
"B.q.x.v.v.v.c.0.8.0.0.0.0.0.0.0.0.0.0.0.0.0.0.0.0.0.0.0.p.0   T Q W W W W W W W W W Q W o # (.v.v.v.v.v.v.v.v.v.v.v.v.v.v.v.v.0.8.0.0.7.2.2.2.2.4.0.0.",
"B.q.x.v.v.v.c.0.8.0.0.0.0.0.0.0.0.0.0.0.0.0.0.0.0.0.0.0.0.q   Y W E E E E E E E E E E R o $ ).v.v.v.v.v.v.v.v.v.v.v.v.v.v.v.v.0.8.0.0.7.2.2.2.2.4.0.0.",
"B.q.x.v.v.v.c.0.8.0.0.8.5.5.5.5.5.5.5.5.5.5.5.5.5.5.5.5.[.0   o - - - - - - - - - - - =   * ].v.v.v.v.v.v.v.v.v.v.v.v.v.v.v.v.0.8.0.0.7.2.2.2.2.4.0.0.",
"B.q.x.v.v.v.c.0.8.0.0.<.K K K K K K K K K K K K L K K 1.S .                               X C N.v.v.v.v.v.v.v.v.v.v.v.v.v.v.v.0.8.0.0.7.2.2.2.2.4.0.0.",
"B.q.x.v.v.v.c.0.8.0.0.<.J K K K K K K K K K K K K K K k.%   @ > : : : : : : : : : : : > @   % /.v.v.v.v.v.v.v.v.v.v.v.v.v.v.v.0.8.0.0.7.2.2.2.2.4.0.0.",
"B.q.x.v.v.v.c.0.8.0.0.<.K K K K K K K K K K K K K K ~ *.  2 R.@X+X+X+X+X+X+X+X+X+X+X+X@XR.,   *.v.v.v.v.v.v.v.v.v.v.v.v.v.v.v.0.8.0.0.7.2.2.2.2.4.0.0.",
"B.q.x.v.v.v.c.0.8.0.0.<.K K K K K K K K K K K K K K ~ y   Z.%X+X+X+X+X+X+X+X+X+X+X+X+X+X%XC.  u v.v.v.v.v.v.v.v.v.v.v.v.v.v.v.0.8.0.0.7.2.2.2.2.4.0.0.",
"B.q.x.v.v.v.c.0.8.0.0.<.K K K K K K K K K K K K K K r.V   A.%X+X+X+X+X+X+X+X+X+X+X+X+X+X%XA.  c m.v.v.v.v.v.v.v.v.v.v.v.v.v.v.0.8.0.0.7.2.2.2.2.4.0.0.",
"B.q.x.v.v.v.c.0.8.0.0.<.K K K K K K K K K K K K K K ! t   S.&X%X$X+X+X+X+X+X+X+X+X+X+X+X%XZ.  i p.w.w.w.w.w.w.w.w.w.w.w.w.w.w.0.0.0.0.7.2.2.2.2.4.0.0.",
"B.q.x.v.v.v.c.0.8.0.0.<.K K K K K K K K K K K K K K r.A   d F.S.S.T.+X+X+X+X+X+X+X+X+X+X%XZ.  b x.8.8.8.8.8.8.8.8.8.8.8.8.8.8.0.0.0.0.7.2.2.2.2.4.0.0.",
"B.q.x.v.v.v.c.0.8.0.0.<.K K K K K K K K K K K K K K I r           h %X+X+X+X+X+X+X+X+X+X%XZ.  i p.0.0.0.0.0.0.0.0.0.0.0.0.0.0.0.0.0.0.7.2.2.2.2.4.0.0.",
"B.q.x.v.v.v.c.0.8.0.0.<.K K K K K K K K K K K K K K ~ c           j %X+X+X+X+X+X+X+X+X+X%XZ.  b v.0.0.0.0.0.0.0.0.0.0.0.0.0.0.0.0.0.0.7.2.2.2.2.4.0.0.",
"B.q.x.v.v.v.c.0.8.0.0.<.K K K K K K K K K K K K K K L r   g H.G.G.T.+X+X+X+X+X+X+X+X+X+X%XZ.  m N.0.0.0.0.0.0.0.0.0.0.0.0.0.0.0.0.0.0.7.2.2.2.2.4.0.0.",
"B.q.x.v.v.v.c.0.8.0.0.<.K K K K K K K K K K K K K K ~ c   S.&X$X$X+X+X+X+X+X+X+X+X+X+X+X%XZ.  b h.6.6.6.6.6.6.6.6.6.6.6.6.6.6.8.0.0.0.7.2.2.2.2.4.0.0.",
"B.q.x.v.v.v.c.0.8.0.0.<.K K K K K K K K K K K K K K L r   A.%X+X+X+X+X+X+X+X+X+X+X+X+X+X%XZ.  k s./ / / / / / / / / / / / / / 7.0.0.0.7.2.2.2.2.4.0.0.",
"B.q.x.v.v.v.c.0.8.0.0.<.K K K K K K K K K K K K K K 1.B   A.%X+X+X+X+X+X+X+X+X+X+X+X+X+X%XZ.  b [ / / / / / / / / / / / / / / 7.0.0.0.7.2.2.2.2.4.0.0.",
"B.q.x.v.v.v.c.0.8.0.0.<.K K K K K K K K K K K K K K U t   D.&X%X%X@XE.+X+X+X+X+X+X+X+X+X%XZ.  k ] / / / / / / / / / / / / / / 7.0.0.0.7.2.2.2.2.4.0.0.",
"V.q.x.v.v.v.c.0.8.0.0.<.J K K K K K K K K K K K K K ,.M   7 f f g L.@X+X+X+X+X+X+X+X+X+X%XZ.  v ] / / / / / / / / / / / / / / 7.0.0.0.7.2.2.2.2.4.0.0.",
"V.e.x.v.v.v.c.0.8.0.0.<.K L K K L L L L L L L L L L ~ u           a %X+X+X+X+X+X+X+X+X+X%XZ.  x s./ / / / / / / / / / / / / / 7.0.0.0.7.2.2.2.2.4.0.0.",
"V.e.0.0.0.0.0.0.0.0.0.8.5.5.5.5.5.5.5.5.5.5.5.5.5.5.p.m   . . . . C.$X+X+X+X+X+X+X+X+X+X%XZ.  x s./ / / / / / / / / / / / / / 7.0.0.0.7.2.2.2.2.4.0.0.",
"B.e.8.8.8.8.8.0.0.0.0.0.0.0.0.0.0.0.0.0.0.0.0.0.0.0.v.M   $.Y.U.U.+X+X+X+X+X+X+X+X+X+X+X%XZ.  v g./ / / / / / / / / / / / / / 7.0.0.0.7.2.2.2.2.4.0.0.",
"B.q.0.0.0.0.0.0.0.0.0.0.0.0.0.0.0.0.0.0.0.0.0.0.0.0.v.m   S.%X@X@X+X+X+X+X+X+X+X+X+X+X+X%XZ.  x W./ / / / / / / / / / / / / / 7.0.0.0.7.2.2.2.2.4.0.0.",
"B.q.0.0.0.0.0.0.0.0.0.0.0.0.0.0.0.0.0.0.0.0.0.0.0.0.B.B   A.%X+X+X+X+X+X+X+X+X+X+X+X+X+X%XZ.  v d./ / / / / / / / / / / / / / 7.0.0.0.7.2.2.2.2.4.0.0.",
"B.q.0.0.0.0.0.0.0.0.0.0.0.0.0.0.0.0.0.0.0.0.0.0.0.0.w.u   A.%X+X+X+X+X+X+X+X+X+X+X+X+X+X%XZ.  x Q./ / / / / / / / / / / / / / 7.0.0.0.7.2.2.2.2.4.0.0.",
"V.e.4.4.4.4.4.4.4.4.4.4.4.4.4.4.4.4.4.4.4.4.4.4.4.4.u.b   D.&X%X%X@XE.+X+X+X+X+X+X+X+X+X%XZ.  b d./ / / / / / / / / / / / / / 7.0.0.0.7.2.2.2.2.4.0.0.",
"V.e.3.` 2.2.2.2.2.2.2.2.2.2.2.2.2.2.2.2.2.2.2.2.2.2.f.i   p j g h L.@X+X+X+X+X+X+X+X+X+X%XZ.  x Q./ / / / / / / / / / / / / / 7.0.0.0.7.2.2.2.2.4.0.0.",
"V.e.3.2.2.2.2.2.2.2.2.2.2.2.2.2.2.2.2.2.2.2.2.2.2.2.}.A           s %X+X+X+X+X+X+X+X+X+X%XZ.  b s./ / / / / / / / / / / / / / 7.0.0.0.7.2.2.2.2.4.0.0.",
"V.e.3.2.2.2.2.2.2.2.2.2.2.2.2.2.2.2.2.2.2.2.2.2.2.2.n.i     . . . C.$X+X+X+X+X+X+X+X+X+X%XZ.  l Q./ / / / / / / / / / / / / / 7.0.0.0.7.2.2.2.2.4.0.0.",
"V.e.3.2.2.2.2.2.2.2.2.2.2.2.2.2.2.2.2.2.2.2.2.2.2.2.}.A   $.I.L.P.+X+X+X+X+X+X+X+X+X+X+X%XZ.  n s./ / / / / / / / / / / / / / 7.0.0.0.7.2.2.2.` 4.0.0.",
"V.e.3.2.2.2.2.2.2.2.2.2.2.2.2.2.2.2.2.2.2.2.2.2.2.2.f.8   S.%X#X#X+X+X+X+X+X+X+X+X+X+X+X%XZ.  l Q./ / / / / / / / / / / / / / 7.0.0.0.8.3.3.3.2.4.0.0.",
"V.e.3.2.2.2.2.2.2.2.2.2.2.2.2.2.2.2.2.2.2.2.2.2.2.2.~.A   A.%X+X+X+X+X+X+X+X+X+X+X+X+X+X%XZ.  b s.( / ( ( ( ( ( ( ( ( ( ( / ( 7.0.0.0.0.8.8.8.8.0.0.0.",
"V.e.3.2.2.2.2.2.2.2.2.2.2.2.2.2.2.2.2.2.2.2.2.2.2.2.y.8   A.%X+X+X+X+X+X+X+X+X+X+X+X+X+X%XA.  e i.7.7.7.7.7.7.7.7.7.7.7.7.7.7.8.0.0.0.0.0.0.0.0.0.0.0.",
"V.e.3.2.2.2.2.2.2.2.2.2.2.2.2.2.2.2.2.2.2.2.2.2.2.2.f.V   $.&X#X#X#X#X#X#X#X#X#X#X#X#X#X&X$.  A b.0.0.0.0.0.0.0.0.0.0.0.0.0.0.0.0.0.0.0.0.0.0.0.0.0.0.",
"V.e.3.2.2.2.2.2.2.2.2.2.2.2.2.2.2.2.2.2.2.2.2.2.2.2.y.&.  @ D.K.J.J.J.J.J.J.J.J.J.J.J.K.D.@   =.p.8.0.0.0.0.0.0.0.0.0.0.0.0.0.0.0.0.0.0.0.0.0.0.0.0.0.",
"V.e.3.2.2.2.2.2.2.2.2.2.2.2.2.2.2.2.2.2.2.2.2.2.2.2.2.t.*                                   ; M.0.0.0.0.0.0.0.0.0.0.0.0.0.0.0.0.0.0.0.0.0.0.0.0.0.0.0.",
"V.e.3.2.2.2.2.2.2.2.2.2.2.2.2.2.2.2.2.2.2.2.2.2.2.2.2.2.-.*                               % ^.9.U U U U U U U U U U U U U U U U U U U U U U U U <.0.0.",
"V.e.3.2.2.2.2.2.2.2.2.2.2.2.2.2.2.2.2.2.2.2.2.2.2.2.2.2.2.!.X.C o.%. .O.O.{  .O.{ O.| { } j.b.L J J J J J J J J J J J J J J J J J J J J J J J H >.0.0.",
"V.e.3.2.2.2.2.2.2.2.2.2.2.2.2.2.2.2.2.2.2.2.2.2.2.2.2.2.2.2.2.2.2.2.2.8.0.0.0.<.K L K K K K K K K K K K K K K K K K K K K K K K K K K K K K K J >.0.0.",
"V.e.3.2.2.2.2.2.2.2.2.2.2.2.2.2.2.2.2.2.2.2.2.2.2.2.2.2.2.2.2.2.2.2.2.8.0.0.0.<.K K K K K K K K K K K K K K K K K K K K K K K K K K K K K K K J >.0.0.",
"V.e.3.` 2.2.2.2.2.2.2.2.2.2.2.2.2.2.2.2.2.2.2.2.2.2.2.2.2.2.2.2.2.2.2.8.0.0.0.<.K K K K K K K K K K K K K K K K K K K K K K K K K K K K K K K J >.0.0.",
"V.e.4.3.3.3.3.3.3.3.3.3.3.3.3.3.3.3.3.3.3.3.3.3.3.3.3.3.3.3.3.3.3.3.4.8.0.0.0.<.K K K K K K K K K K K K K K K K K K K K K K K K K K K K K K K J >.0.0.",
"B.q.0.0.0.0.0.0.0.0.0.0.0.0.0.0.0.0.0.0.0.0.0.0.0.0.0.0.0.0.0.0.0.0.0.0.0.0.0.<.K K K K K K K K K K K K K K K K K K K K K K K K K K K K K K K J >.0.0.",
"B.q.0.0.0.0.0.0.0.0.0.0.0.0.0.0.0.0.0.0.0.0.0.0.0.0.0.0.0.0.0.0.0.0.0.0.0.0.0.<.K K K K K K K K K K K K K K K K K K K K K K K K K K K K K K K J >.0.0.",
"B.q.0.0.0.0.0.0.0.0.0.0.0.0.0.0.0.0.0.0.0.0.0.0.0.0.0.0.0.0.0.0.0.0.0.0.0.0.0.<.K K K K K K K K K K K K K K K K K K K K K K K K K K K K K K K J >.0.0.",
"B.q.0.0.0.0.0.0.0.0.0.0.0.0.0.0.0.0.0.0.0.0.0.0.0.0.0.0.0.0.0.0.0.0.0.0.0.0.0.<.K K K K K K K K K K K K K K K K K K K K K K K K K K K K K K K J >.0.0.",
"B.q.8.8.8.8.8.8.8.8.8.8.8.8.8.8.8.8.8.8.8.0.0.0.0.0.0.0.0.0.0.0.0.0.0.0.0.0.0.<.K K K K K K K K K K K K K K K K K K K K K K K K K K K K K K K J >.0.0.",
"V.a.~ L I I I I I I I I I I I I I I I P I 8.0.0.8.w.c.c.c.c.c.c.c.c.c.0.8.0.0.<.K K K K K K K K K K K K K K K K K K K K K K K K K K K K K K K J >.0.0.",
"V.a.U J K K K K K K K K K K K K K K K J L 8.0.0.8.p.v.v.v.v.v.v.v.v.v.0.8.0.0.<.K K K K K K K K K K K K K K K K K K K K K K K K K K K K K K K J >.0.0."
};
