/* XPM */
static char *d0b912a5e83a4d85a68ee32422172a48hmyX0i32y8Ae5Bd7[] = {
/* columns rows colors chars-per-pixel */
"75 75 242 2 ",
"   c #5A0D0F",
".  c #5F171A",
"X  c #631618",
"o  c #671C23",
"O  c #692525",
"+  c #722928",
"@  c #712B2B",
"#  c #7A312D",
"$  c #6F2E31",
"%  c #783635",
"&  c #7C3634",
"*  c #7D3B3C",
"=  c #7E413E",
"-  c #7D494A",
";  c #8A3531",
":  c #853A35",
">  c #823D3A",
",  c #B13E3E",
"<  c #F43127",
"1  c #F4332A",
"2  c #F4382F",
"3  c #F43730",
"4  c #F43831",
"5  c #F43D38",
"6  c #85413B",
"7  c #894439",
"8  c #8B443D",
"9  c #934A3D",
"0  c #F54239",
"q  c #853E45",
"w  c #E7245D",
"e  c #E8275A",
"r  c #E92C5D",
"t  c #EC345A",
"y  c #EE3A5B",
"u  c #EB3A65",
"i  c #E83368",
"p  c #854443",
"a  c #874846",
"s  c #8C4A42",
"d  c #8A4D4C",
"f  c #934C43",
"g  c #954D47",
"h  c #8D514D",
"j  c #9C5346",
"k  c #97544A",
"l  c #9B554B",
"z  c #8B4E51",
"x  c #8A5657",
"c  c #8C5554",
"v  c #8D5B5C",
"b  c #955955",
"n  c #9A5D5A",
"m  c #AB4C47",
"M  c #A55A4C",
"N  c #A35D53",
"B  c #9E615C",
"V  c #A9614F",
"C  c #A86455",
"Z  c #AA665A",
"A  c #AD6A5C",
"S  c #B16756",
"D  c #B46D5B",
"F  c #B8725C",
"G  c #905D60",
"H  c #946364",
"J  c #996768",
"K  c #92696B",
"L  c #9C7677",
"P  c #A56B67",
"I  c #A9736A",
"U  c #BC7563",
"Y  c #B97766",
"T  c #AC6A72",
"R  c #A67879",
"E  c #B47B77",
"W  c #F34C4B",
"Q  c #F6544C",
"!  c #E7415D",
"~  c #EA445D",
"^  c #F44D50",
"/  c #F1465A",
"(  c #F04E5B",
")  c #E85753",
"_  c #F45256",
"`  c #F65C55",
"'  c #F4545A",
"]  c #F8575A",
"[  c #F4595D",
"{  c #F9595B",
"}  c #D05C7C",
"|  c #E84762",
" . c #E94B65",
".. c #E7546E",
"X. c #F05360",
"o. c #F45B61",
"O. c #EB4B7A",
"+. c #E95A73",
"@. c #C37B65",
"#. c #C27D69",
"$. c #D87172",
"%. c #F56865",
"&. c #F46568",
"*. c #F4696B",
"=. c #EB6279",
"-. c #EC647A",
";. c #F66C72",
":. c #F07773",
">. c #F57579",
",. c #A8807E",
"<. c #B88579",
"1. c #C6836D",
"2. c #C68673",
"3. c #CC8A75",
"4. c #D38D72",
"5. c #D38D76",
"6. c #D4927A",
"7. c #D79479",
"8. c #DC997E",
"9. c #F8857F",
"0. c #A97E82",
"q. c #BB7D82",
"w. c #ED6986",
"e. c #E56388",
"r. c #EE7887",
"t. c #EE768A",
"y. c #EF6C93",
"u. c #EA7899",
"i. c #9D8788",
"p. c #AA8384",
"a. c #A78689",
"s. c #B58386",
"d. c #B38A8C",
"f. c #B5918B",
"g. c #A99597",
"h. c #B59392",
"j. c #BA999A",
"k. c #B79FA2",
"l. c #BCA4A6",
"z. c #B0A9AD",
"x. c #C68E8B",
"c. c #D59785",
"v. c #DC9A81",
"b. c #C79B9A",
"n. c #E9898D",
"m. c #F88987",
"M. c #E29E82",
"N. c #F69789",
"B. c #F58D96",
"V. c #F79597",
"C. c #F89B9D",
"Z. c #CCA196",
"A. c #D2A799",
"S. c #E3A286",
"D. c #E8A688",
"F. c #EBAB8D",
"G. c #F6A887",
"H. c #FEA38E",
"J. c #FEB18B",
"K. c #EBAC92",
"L. c #FBAA92",
"P. c #EDB194",
"I. c #F3B394",
"U. c #FDB395",
"Y. c #FDBA97",
"T. c #F8B799",
"R. c #FFBE9D",
"E. c #D094A3",
"W. c #F69AA3",
"Q. c #F291AD",
"!. c #C6A6A8",
"~. c #D4ADAF",
"^. c #DBB4A5",
"/. c #C7ADB1",
"(. c #C9B4B6",
"). c #D6B7B9",
"_. c #D2BBBC",
"`. c #F7A4A9",
"'. c #E4BBA9",
"]. c #FCB9A6",
"[. c #E5AFB5",
"{. c #F4A8B5",
"}. c #FAB7B7",
"|. c #FFC29E",
" X c #ECC1AC",
".X c #FFC4A2",
"XX c #FFC9A5",
"oX c #FDC7AB",
"OX c #FFCBAB",
"+X c #FFD0A7",
"@X c #FFD1AC",
"#X c #EBC8B7",
"$X c #F6CDB6",
"%X c #FFD2B4",
"&X c #FDD4BB",
"*X c #FAD8B9",
"=X c #FFD9BD",
"-X c #D3BEC2",
";X c #F5ABC1",
":X c #F8B8C7",
">X c #BEC3C6",
",X c #CBC8CB",
"<X c #DBC5C5",
"1X c #DAC9CA",
"2X c #CCD6D8",
"3X c #E5C6C9",
"4X c #EECFC9",
"5X c #F9C4C9",
"6X c #FBCBCC",
"7X c #FFDDC3",
"8X c #F9DAC7",
"9X c #F9CBD4",
"0X c #E7D8D9",
"qX c #F9D6D8",
"wX c #FFE5C9",
"eX c #FFE3CC",
"rX c #FEE7D6",
"tX c #F7ECD6",
"yX c #FFEAD4",
"uX c #D8DDE0",
"iX c #E6DDE1",
"pX c #FCDCE1",
"aX c #D6E9EC",
"sX c #D9EDEF",
"dX c #D7ECF0",
"fX c #DAEDF1",
"gX c #DDF2F6",
"hX c #DEF5FA",
"jX c #DDF8FB",
"kX c #ECE5E6",
"lX c #F7E5E6",
"zX c #FDE4E4",
"xX c #F3ECEC",
"cX c #FDECED",
"vX c #FEF0EF",
"bX c #FDEEF1",
"nX c #E3F6FD",
"mX c #E3FCFF",
"MX c #EBFEFF",
"NX c #FDF3F5",
"BX c #F7F7F8",
"VX c #FEFEFE",
/* pixels */
"w w w w w y ] ' ' ' ' ' _ ( ~ ~ ! ! ! ! ! ! ! ! ! ! ! ! ! ! ! ! ! ! ! ~ _ ' ' ' ' ' ' ' ' ' ' ' ' ' ' ' ' ' ' ' ' ' ' ' ' ' ' ' ' ' ' ' ' _ _ _ _ _ _ ",
"w w w w w y ] ' ' ' ' ' _ ( ~ ~ ! ! ! ! ! ! ! ! ! ! ! ! ! ! ! ! ! ! ! ~ _ ' ' ' ' ' ' ' ' ' ' ' ' ' ' ' ' ' ' ' ' ' ' ' ' ' ' ' ' ' ' ' ' ' ' ' ' ' ' ",
"w w w w w y ] ' ' ' ' ' _ ( ~ ~ ! ! ! ! ! ! ! ! ! ! ! ! ! ! ! ! ! ! ! ~ _ ' ' ' ' ' ' ' ' ' ' ' ' ' ' ' ' ' ' ' ' ' ' ' ' ' ' ' ' ' ' ' ' ' ' ' ' ' ' ",
"w w w w w y ] ' ' ' ' ' _ ( ~ ~ ! ! ! ! ..w.t.t.t.t.t.t.t.t.-.-.! ! ! ~ _ ' ' ' ' ' ' ' &.*.*.*.*.*.*.*.*.*.*.*.*.*.*.*.o.' ' ' ' ' ' ' ' { { { { { { ",
"w w w w w y ] ' ' ' ' ' _ ( ~  .B.-.B.:XbXxX0X<X_._.1X0XxXVXVXNX+.! ! ~ _ ' ' ' ' ' ' ' &.*.*.*.*.*.*.*.*.*.*.*.*.*.*.*.o.' ' ' ' ' ' ' / y y y y y y ",
"w w w w w y ] ' ' ' ' ' _ X. .=.{.B.-Xd.x d h b n n b d a c p.<Xw. .|  .o.' ' ' ' ' ' ' &.*.*.*.*.*.*.*.*.*.*.*.*.*.*.*.o.' ' ' ' ' ' ' t w w w w w w ",
"w w w w w y ] ' ' ' ' ' _ B.NXbX!.d d R ^.$X7X7X7X=X=X&X XZ.I p a !.zXzX6X' ' ' ' ' ' ' &.*.*.*.*.*.*.*.*.*.*.*.*.*.*.*.o.' ' ' ' ' ' ' y w w w w w w ",
"w w w w w y ] ' ' ' ' ' _ B.kXc s Z.8XeX&XoXR.Y.Y.R.Y.R..XXX@XoXc.s H xXqX' ' ' ' ' ' ' &.*.*.*.*.*.*.*.*.*.*.*.*.*.*.*.o.' ' ' ' ' ' ' y w w w w w w ",
"w w w w w y ] ' ' ' ' C.6Xq.* <.rXeXoXR.R.R.R.R.R.R.R.R.R.R.R.R.OX.XD % !.6X6X&.' ' ' ' &.*.*.*.*.*.*.*.*.*.*.*.*.*.*.*.o.' ' ' ' ' ' ' y w w w w w w ",
"w w w w w y ] ' ' ' ' 6X!.6 '.yX%XR.Y.R.R.R.R.R.R.R.R.R.R.R.R.R.Y.R.XX6.# _.VXo.' ' ' ' &.*.*.*.*.*.*.*.*.*.*.*.*.*.*.*.o.' ' ' ' ' ' ' y w w w w w w ",
"w w w w w y ] ' [ V.C.T s 4XyXOX|.R.R.R.R.R.R.R.R.R.R.R.R.R.R.R.R.R.R.OXS.# (.`.C.>.' ' &.*.*.*.*.*.*.*.*.*.*.*.*.*.*.*.o.' ' ' ' ' ' ' y w w w w w w ",
"r r r e e y ' ' o.VX<X* #XyXI.@.v..XR.R.R.R.R.R.R.R.R.R.R.R.R.R.R.R.R.R.XX7.% xXVXC.' ' &.*.*.*.*.*.*.*.*.*.*.*.*.*.*.*.o.' ' ' ' ' ' ' y w w w w w w ",
"( ( ( ( ( _ ' ;.>.3X> ^.yXP.6 f s 3.XXR.R.R.R.R.R.R.R.R.R.R.R.R.R.R.R.R.R.OXD x VXV.' ' &.*.*.*.*.*.*.*.*.*.*.*.*.*.*.*.o.' ' ' ' ' ' ' y w w w w w w ",
"' ' ' ' ' ' >.VXNXH I yXOXU > OXK.1..XR..X.XR.R.R.R.R.R.R.R.R.R.R.R.R.R.R.R.R.: <XC.' ' &.*.*.*.*.*.*.*.*.*.*.*.*.*.*.*.o.' ' ' ' ' ' ' y w w w w w w ",
"' ' ' ' ' ' V.VX1X* 8X&X|.1.> |..X.XR.XXS.7..XR.R.R.R.R.R.R.R.R.R.R.R.R.R.R.XX1.H V.' ' &.*.*.*.*.*.*.*.*.*.*.*.*.*.*.*.o.' ' ' ' ' ' ' y w w w w w w ",
"' ' ' ' ' ' B.VXJ <.yX.X|.T.& D XXXXXXI.# Z XXR.R.R.R.R.R.R.R.R.R.R.R.R.R.R.|.R.8 ~.pXB.&.*.*.*.*.*.*.*.*.*.*.*.*.*.*.*.o.' ' ' ' ' ' ' y w w w w w w ",
"' ' ' ' ' ' B.NX> #X&XR.R..X8.@ p A C @ 8 T.|.R.R.R.R.R.R.R.R.R.R.R.R.R.R.R.R.XXS R VX`.&.*.*.*.*.*.*.*.*.*.*.*.*.*.*.*.o.' ' ' ' ' ' ' y w w w w w w ",
"' ' ' ' ' ' B.).b yXoXR.R.R..XF.Z f k #.R.|.R.R.R.R.R.R.R.R.R.R.R.R.R.R.R.R.R.XX8.d VXW.&.*.*.*.*.*.*.*.*.*.*.*.*.*.*.*.o.' ' ' ' ' ' ' y w w w w w w ",
"&.&.&.&.&.&.C.0.<.rXR.R.R.R.R..XXX.X.XXX.XR.R.R.R.R.R.R.R.R.R.R.R.R.R.R.R.R.R..XT.a xXV.&.*.*.*.*.*.*.*.*.*.*.*.*.*.*.*.o.' ' ' ' ' ' ' y w w w w w w ",
"*.*.*.*.*.*.C.J ^.7XY.R.R.R.R.R.R.R.R.R.R.R.R.R.R.R.R.R.R.R.R.R.R.R.R.R.R.R.R.R.|.8 0XW.&.*.*.*.*.*.*.*.*.*.*.*.*.*.*.*.o.' ' ' ' ' ' ' y w w w w w w ",
"*.*.*.*.*.*.n.n $X%XY.R.R.R.R.R.R.R.R.R.R.R.R.R.R.R.R.R.R.R.R.R.R.R.R.R.R.R.R.R..Xg <XW.&.*.*.*.*.*.*.*.*.*.*.*.*.*.*.*.o.' ' ' ' ' ' ' y w w w w w w ",
"*.*.*.*.*.*.$.n 8XoXY.R.R.R.R.R.R.R.R.R.R.R.R.R.R.R.R.R.R.R.R.R.R.R.R.R.R.R.R.R..Xj -X`.&.*.*.*.*.*.*.*.*.*.*.*.*.*.*.*.o.' ' ' ' ' ' ' y w w w w w w ",
"*.*.*.*.m.m.).b eXXXY.R.R.R.R.R.R.R.R.R.R.R.R.R.R.R.R.R.R.R.R.R.R.R.R.R.R.R.R.R..Xj _.qX&.*.*.*.*.*.*.*.*.*.*.*.*.*.*.*.o.' ' ' ' ' ' ' y w w w w w w ",
"*.*.*.*.>.m.<Xb eX.XY.R.R.|..XR.R.R.R.R.R.R.R.R.R.R.R.R..X.XR.R.R.R.R.R.R.R.R.R.|.g 0X6X&.*.*.*.*.*.*.*.*.*.*.*.*.*.*.*.o.' ' ' ' ' ' ' y w w w w w w ",
"*.*.*.*.>.C.!.B eX.XR.|..XI.F.|..XR.R.R.R.R.R.R.R.R..X.XI.I..XXXR.R.R.R.R.R.R.R.R.: L 3X5X}.o.' ' ' ' ' ' ' ' ' ' ' ' ' ' ' ' ' ' ' ' ' t w w w w w w ",
"*.*.*.*.m.}.b.B eX].|.I.V a p f v..XR.R.R.R.R.R.R..XM.k a p 8 5.XXR.R.R.R.R.R.R.Y.3.M & !.VXo.' ' ' ' ' ' ' ' ' ' ' ' ' ' ' ' ' ' ' ' ' / y y y y y y ",
"*.*.*.*.>.V.x.B eX.XR.N h.BXBX(.h D..XR.R.R.R.R..XS.v (.xXkXl.% 5..XR.R.R.R.R.R.|.+X@XF.: k.B.;.' ' ' ' ' ' ' ' ' ' ' ' ' ' ' ' ' ' ' ' ' { { { { { { ",
"*.*.*.*.*.*.$.n 7XOX8.h._.H (.VX1X1..XR.R.R.R.R.|.c.!.R H 0XNX(.s |.R.R.R.R.R.XXc.l U XXM.a lXqX*.' ' ' ' ' ' ' ' ' ' ' ' ' ' ' ' ' ' ' ' ' ' ' ' ' ' ",
"*.*.*.*.*.*.:.n $XOXK.h.O   J VXxX'.R.R.R.R.R.R.R.$Xa X X !.VXNXJ F.|.R.R.R.XX3.& F @.I..X8 0XcXo.' ' ' ' ' ' ' ' ' ' ' ' ' ' ' ' ' ' ' ' ' ' ' ' ' ' ",
"*.*.*.*.*.*.V.n  XOXOXP X @ O p.VX&XY.R.R.R.R.R.XXc.O @ O @ (.VXx.I.|.R.R.|.I.> 4.J.G.U.XXk <X}._ _ _ _ _ _ _ _ _ _ _ _ _ _ _ _ _ _ _ _ _ _ _ _ _ _ _ ",
"*.*.*.*.*.*.C.J A.&XXXI o @   R VXXXY.XX.X.X|.R..Xv.O @ @ X /.VXoXY.R.R.R..X3.j J.G.G.U.|.s 1X:.4 4 4 4 4 4 4 4 4 4 4 4 4 4 4 4 4 4 4 4 4 4 4 4 4 4 4 ",
"*.*.*.*.*.*.C.d.<.7XR.K.% X * 0XrXY..X2.f Z I..X|.R.l . . v xXrXY.R.R.R.R..XS.4.G.N.G.|.D.d 0X4 < < < < < < < < < < < < < < < < < < < < < < < < < < < ",
"*.*.*.*.*.*.C.).n eXY.|.F.2.#X&XY.|.v.6 ^.^.I.R.R.|.T.2.f.tXrXY.Y.R.R.R.R.R.|.J.G.G.R.OXj p.*.< < < 1 < < < < < < < 1 1 1 < < < < < < 1 1 1 < < < < < ",
"*.*.*.*.*.*.C.lXa 8XXXL.L.Y.Y.Y.R..X8.2.7XOX|.R.R.R.|.XXOXY.H.H.H.U.R.R.R.R.].Y.Y..XOXF d kX< < 4 4 2 < < < < < < < 1 1 1 < < < < < 1 1 1 1 < < < < < ",
"*.*.*.*.*.*.V.NXz ^.@XH.H.H.H.U.R.R.R.R.Y.R.R.R.R.R.R.R.Y.H.H.H.H.H.R.R.R..XR..X|.D.j - 0Xm.W 6XcXcXzX}.}.}.}.}.}.V.Q ` < < < < < < < < 1 1 1 < 1 1 < ",
"*.*.*.*.*.*.V.VXR I wXH.H.H.H.U.R..X.X.X.XXX.X|.R.R.R.R.Y.H.H.H.H.L.R.R.XXv.8 f k d p.xXcXqX[.!.j.j.<X!.R P P P s.j.n.`.%.` 0 < < < < 1 1 1 1 1 1 1 < ",
"[ [ [ [ [ [ B.VX0X= *X|.U.L.U.R..X5.k n N l h s 6 k Y.R.R.L.H.H.L.Y.R.|.K.k 6.6 $ /.VXVXxXR d J 0.L @ J l.-X,X(.j.J h R xXVX%.1 1 1 1 1 < < < 1 1 1 < ",
"' ' ' ' ' ' r.zXbXv <.7XR.R.R.R.XXY   O . @ ; ; o > R.R.R.R.R.R.R.R..XT.f 3.+X|.1.8 d R z R kXMXMXMXa.h.VXhXhXjXmXmXuXR * _.*.4 2 1 1 1 < < < 1 1 1 < ",
"' ' ' ' ' ' o.;.>.<X& '.OXR.R.R.|.T.8 . , { { ) ; 6..XR.R.R.R.R.R..XR.g U XXR.|.XXR.8.M * VXnXdXdXhX2Xc BXgXsXfXsXfXgXmX,X% s.cXV.1 < < < < 1 1 1 1 1 ",
"' ' ' ' ' ' ' ' [ zX~.p $XXXR.R.Y..XI.D M m m Z D.XXR.R.R.R.R.R.XXP.8 A XXR.R.R.R.R.|.XXk (.MXdXfXfXgXv 1XMXfXfXfXfXfXfXmX2X* 3X`.1 1 < < < 1 1 1 1 1 ",
"' ' ' ' ' ' ' ' [ B.V.N d '.OXR.R.R..XoXY.P.T.XX.XR.R.R.R.R..XXX3.& Y XX|.R.R.R.R.R.R.XX4.H MXfXfXfXjXL !.VXdXfXfXfXfXfXfXmX,X* [.}.L.1 < < 1 1 < < < ",
"' ' ' ' ' ' ' ' ' ' ' qX~.= 1.|.XX.XR.R.|..X|.R.R.R.R.|..X|.v.k > 7.XXR.Y.R.R.R.R.R.R.|.Y.g iXjXfXfXnXg.d.VXsXfXfXfXfXfXfXfXmXi.n VXcX1 < < 1 < < < < ",
"r r r r r r r r r r r Q.:XE.x 7 U F..XXXXXXXXXXXXXXX.XF.1.f > U R.XXR.R.R.R.R.R.R.R.R.R.XXN /.mXfXfXnXg.p.VXfXfXfXfXfXfXfXfXgXfX- <XzX2 < < < < < < < ",
"w w w w w w w w w w w w w u.VX/.J a k C U 3.#.Y D n 8 > f 2.P.XX.XR.R.R.R.R.R.R.R.R.R.R.XXF h.MXfXfXnXk.,.VXsXfXfXfXfXfXfXfXfXmXg.J qX2 < < 1 < < < < ",
"w w w w w w w w w w w w w y.bXNXNXxXx > d @ N l C U 6.K.OXI.I $X|.R.R.R.R.R.R.R.R.R.R.R..X#.p.MXdXfXnXg.d.VXsXfXfXfXfXfXfXfXfXgX2Xd 3X2 < < < < < 1 1 ",
"w w w w w w w w w w w w w w O.Q.pXh.a 8X#X& S.+XXXXX.X|.R.g A.%XY.R.R.R.R.R.R.R.R.R.R.R..X#.0.MXfXfXmXi.j.VXsXfXfXfXfXfXfXfXfXfXhXH b.2 < < < < < < 1 ",
"w w w w w w w w w w w w w w w.Q.T 6 $XwXOX#.& T.|.R.R..X2.b eXR.R.R.R.R.R.R.R.R.R.R.R.R..X@.a.MXdXfXhXH <XMXdXfXfXfXfXfXfXfXfXfXmXL E 2 < < < < < < < ",
"w w w w w w w w w w w Q.9XpX3Xq b 8XeXR.R..Xk g .X|.R..Xk b.&XY.R.R.R.R.R.R.R.R.R.R.R.R.XXS j.MXnXmX2XG VXmXgXfXfXfXfXfXfXfXfXfXmXa.T 2 1 1 2 2 2 2 2 ",
"w w w w w w w w w w w :XNX!.p E eX=XR.Y.R.|.R.> C XX|.I.6 #XOXY.R.R.R.R.R.R.R.R.R.R.R.R..Xn ,X2Xz.a.x = g.z.aXmXgXfXfXfXfXfXfXfXmXa.E ^ ^ ^ ^ ^ ^ ^ ^ ",
"w w w O.Q.u.} } e.u.} T c h ^.eXoXY.R.R.R.R..XP.& A @X7.h 7XR.R.R.R.R.R.R.R.|.R.R.R.R..XT.& v v I <.6.5.F M d i.aXhXfXsXfXfXfXfXjXL x.' ' ' ' ' ' ' ' ",
"w w i lXb.n P Z B H B I A.eX%XR.Y.R.R.R.R.R.R.|.F.& Y D I 7XY.R.R.R.R.R.R.R.T.R.R.R.|..XM p Z.$X%XOX.XXXXXXXF.M z 2XjXsXfXfXfXfXgXH ~.' ' ' ' ' ' ' ' ",
"w w y.j.s  X=X=X&X$X&X7X%XR.Y.R.R.R.R.R.R.R.R.R.+X8.X O Z.&XR.R.R.R.R.R.R.T.#.R.R.|.].j P eX=XR.R.R.R.R.R.R..XOX@.- aXgXfXfXfXgX2Xb qX' ' ' ' ' ' ' ' ",
"w r 5Xb P.OXv.6.S.Y.|.R.R.R.R.R.R.R.R.R.R.R.R.XXT.8 p.a '.oXR.R.R.R.R.R..XF.N R.|..Xl I rXOXY.R.R.R.R.R.R.R.R.R.OXM i.mXfXfXfXmXg.R qX' ' ' ' ' ' ' ' ",
"w i NXJ D Z f P Z 1.|.R.R.R.R.R.R.R.R.R.R.R.XXI.: p.xXd $X.XR.R.R.R.R.R..X6.N .XXXU b yX%XY.R.R.R.R.R.R.R.R.R.R..XS.c sXfXfXgXfXz 0XzX' ' ' ' ' ' ' ' ",
"w w {.kX$ V .XOXOX.XR.R.R.R.R.R.R.R.R.R.|.OXS.# p.VX(.b 7XR.R.R.R.R.R.R.XXU Z +XD.6 4X=XY.R.R.R.R.R.R.R.R.R.R.R.R.R.k 2XgXfXmXg.$ xX9X~ ~ ~ ~ ~ ~ ~ ~ ",
"w w O.VXJ 1.@XD.3.S.R.R.R.R.R.R.R.R.R.XX.XF & (.VXNXR E =XY.R.R.R.R.R.R..Xk Y +Xl f.yXR.R.R.R.R.R.R.R.R.R.R.R.R.R.|.l >XhXmX>X% j d ).! ! ! ! ! ! ! ! ",
"w w r u.x.8 M p $ X v.XXR.R.R.R.R.XXXX7.8 v ~.u.w.9Xv A.@XY.R.R.R.R.R.|.Y.> S.D.d 8XOXY.R.R.R.R.R.R.R.R.R.R.R.R.R.|.k ,XMX>X$ @.@X@.% [.}.+.! ! ! ! ! ",
"w w w w :X0Xl.R s Y I.|.R.R..XXX.X7.M c /.VX9Xw w ~.c &X.XR.R.R.R.R.R..X8.& .XZ <.eXR.R.R.R.R.R.R.R.R.R.R.R.R.R.|.I.v dXk.@ @.XX|.XXM d.VXw.! ! ! ! ! ",
"w w w i Q.:XqXv 4.*XXXXX.XY.M.D 8 d T [.:XQ.u.O.y.E P 7XY.R.R.R.R.R.R.XXY O k s #X%XY.R.R.R.R.R.R.R.R.R.R.R.R..X@Xv.- G & 7.XX|.R.|.I.> kXw.! ! ! ! ! ",
"w w w u i w y.~.: C D C l f b p.3XVXe.w w w w 9XVXc Z.%XR.R.R.R.R.R.R.|.f /.L g rX.XR.R.R.R.R.R.R.R.R..X.X.X.XI.3.> @ S T.XXR.R.R.R.OXM h.-.! ! ! ! ! ",
"w w w w w w w.bX).s.0.d.!.3XqX:X;Xu.i w w w u NX1Xp 8X.XR.R.R.R.R.R.|.D.p VXj.P yXR.R.R.R.R.R.R.R.|.T.U C l s > 6 Y I.XX|.R.R.R.R.R.XX6.n t.| ! ! ! ! ",
"t t t t t t t u u u u u u u t t t t t t t t ..VXR I 7XY.R.R.R.R.R.R.XXU K VX,.E eXR.R.R.R.R.R.R.R.R.Y.1.Y Y 3.D.R.XX.XR.R.R.R.R.R.R..XI.s 3XW...! ! ! ",
"' ' ' ' ] ' ] ] ] ] ' ' ' ' ' ' ' ] ] ] ] ' &.kXa '.oXR.R.R.R.R.R.R.XX8 /.VXp.E eXR.R.R.R.R.R.R.R.R.R..XXXXX.X|.R.R.R.R.R.R.R.R.R.R.R..Xf _.NX`.! ! ! ",
"' ' ' ' ' ' ' ' ' ' ' ' ' ' ' ' ' ' ' ' *.:XqXd.n 8XY.R.R.R.R.R.R.|.S.p lX6Xh.P eXR.R.R.R.R.R.R.R.R.R.R.R.R.R.R.R.R.R.R.|.R.R.R.R.R.R.XXV d.VX{.! ! ! ",
"' ' ' ' ' ' ' ' ' ' ' ' ' ' ' ' ' ' ' ' m.cX0X% '.@XY.R.R.R.R.R.R.OXC L VX}.<Xd 8X.XR.R.R.R.R.R.R.R.R.R.R.R.R.R.R.R.R..XY.T.R.R.R.Y.].OX#.J VX{.! ! ! ",
"' ' ' ' ' ' ' ' ' ' ' ' ' ' ' ' ' ' ' ' C.0X$ Z.wX|.R.R.R.R.R.R.|.T.: 0XcX*.W.d Z.@XR.R.R.R.R.R.R.R.R.R.R.R.R.R.R.|.OXv.# 6.XXR.|.R.U T.5.v VX{.! ! ! ",
"5 5 5 5 5 5 5 5 5 5 5 5 5 5 5 5 5 5 5 ` }.d x.wXK.Y T..X|.R.R.R.OXD H VX6X' ' b.a oX|.R.R.R.R.R.R.R.R.R.R.R.R.|.XXT.Z = K f .X|.D..X2.s 9 h.VXB.! ! ! ",
"< < < < < < < < < < < < < < < < < < < }.).l yXT.s #.XX6.3..XR..XI.% ).5X;.' ' zXR s T.XXR.R.R.R.R.R.R.R.R..XOXY.U : K kXVXz F %XU A %X1.O 4X6X! ! ! ! ",
"1 1 1 1 < < < < 1 1 1 < < < < < < < 5 N.E I yXY l +XF.> S.|..X.X9 j.m.3 _ ' ' pXVXR > 8..XXX.X|.|.|..XXX.XD.D > v -XNXcXNXkX* S S.: 9 9 h.w.! ! ! ! ! ",
"1 1 1 1 < < < < 1 1 1 < < < < < < < 4 0 $.d E : 6.*XZ A %XXXI.9 v VXm.3 _ ' ' >.9XcXl.a l @.8.D.F.M.4.A 8 a L 1XNXNXzX9XcXVXkXL d h K l.VXw.! ! ! ! ! ",
"1 < 1 1 < < < < 1 1 1 1 < < 1 < < < < 2 N.lXR v 8 V @ g F l > R %.Q 0 3 _ ' ' ' ' ;.>.r.x.L J b d d v p./.+.=.=.=.+...! ..+.=.=.....=.=.=. .! ! ! ! ! ",
"< < 1 1 1 < < < 1 1 1 1 < < 1 1 < < < < *.qXVXVX_.!.3X!.j./.iXvXW < < 3 _ ' ' ' ' ' ' _ ~ =.`.0XVXVXVXVXVX| ! ! ! ! ! ! ! ! ! ! ! ! ! ! ! ! ! ! ! ! ! ",
"< < < < 1 1 1 1 < < < < 1 1 1 1 < < < < 1 1 Q ` 9.m.m.m.m.m.%.0 < < < 3 _ ' ' ' ' ' ' ' ' ( ( X.B.W.W.W.V.X.( ( ( ( ( ( ( ( ( ( ( ( ( ( ( ( ( ( ( ( ( ",
"< < < < 1 1 1 1 < < < < 1 1 1 1 < < < < 1 1 1 1 < < < 1 < < < 1 < < < 3 _ ' ' ' ' ' ' ' ' ' ' ' ' ' ' ' ' ' ' ' ' ' ' ' ' ' ' ' ' ' ' ' ' ' ' ' ' ' ' ",
"1 1 < < 1 1 1 1 < < < < 1 1 1 < < < 1 < < 1 1 1 1 1 1 1 1 < < < < < < 3 _ ' ' ' ' ' ' ' ' ' ' ' ' ' ' ' ' ' ' ' ' ' ' ' ' ' ' ' ' ' ' ' ' ' ' ' ' ' ' "
};
