/* XPM */
static char *_462efb44fcf4b69a12e848364c082ffFQ2gqYtxp770oK3O[] = {
/* columns rows colors chars-per-pixel */
"75 75 241 2 ",
"   c #5A0D0F",
".  c #5F171A",
"X  c #631618",
"o  c #671C23",
"O  c #692525",
"+  c #722928",
"@  c #712B2B",
"#  c #7A312D",
"$  c #6F2E31",
"%  c #783635",
"&  c #7C3634",
"*  c #7D3B3C",
"=  c #7E413E",
"-  c #7D494A",
";  c #8A3531",
":  c #853A35",
">  c #823D3A",
",  c #B13E3E",
"<  c #F43127",
"1  c #F4332A",
"2  c #F4382F",
"3  c #F43730",
"4  c #F43831",
"5  c #F43D38",
"6  c #85413B",
"7  c #894439",
"8  c #8B443D",
"9  c #934A3D",
"0  c #F54239",
"q  c #853E45",
"w  c #E7245D",
"e  c #E8275A",
"r  c #E92C5D",
"t  c #EC345A",
"y  c #EE3A5B",
"u  c #EB3A65",
"i  c #E83368",
"p  c #854443",
"a  c #874846",
"s  c #8C4A42",
"d  c #8A4D4C",
"f  c #934C43",
"g  c #954D47",
"h  c #8D514D",
"j  c #9C5346",
"k  c #97544A",
"l  c #9B554B",
"z  c #8B4E51",
"x  c #8A5657",
"c  c #8C5554",
"v  c #8D5B5C",
"b  c #955955",
"n  c #9A5D5A",
"m  c #AB4C47",
"M  c #A55A4C",
"N  c #A35D53",
"B  c #9E615C",
"V  c #A9614F",
"C  c #A86455",
"Z  c #AA665A",
"A  c #AD6A5C",
"S  c #B16756",
"D  c #B46D5B",
"F  c #B8725C",
"G  c #905D60",
"H  c #946364",
"J  c #996768",
"K  c #92696B",
"L  c #9C7677",
"P  c #A56B67",
"I  c #A9736A",
"U  c #BC7563",
"Y  c #B97766",
"T  c #AC6A72",
"R  c #A67879",
"E  c #B47B77",
"W  c #F34C4B",
"Q  c #F6544C",
"!  c #E7415D",
"~  c #EA445D",
"^  c #F44D50",
"/  c #F1465A",
"(  c #F04E5B",
")  c #E85753",
"_  c #F45256",
"`  c #F65C55",
"'  c #F4545A",
"]  c #F8575A",
"[  c #F4595D",
"{  c #F9595B",
"}  c #D05C7C",
"|  c #E84762",
" . c #E94B65",
".. c #E7546E",
"X. c #F05360",
"o. c #F45B61",
"O. c #EB4B7A",
"+. c #E95A73",
"@. c #C37B65",
"#. c #C27D69",
"$. c #D87172",
"%. c #F56865",
"&. c #F46568",
"*. c #F4696B",
"=. c #EB6279",
"-. c #EC647A",
";. c #F66C72",
":. c #F07773",
">. c #F57579",
",. c #A8807E",
"<. c #B88579",
"1. c #C6836D",
"2. c #C68673",
"3. c #CC8A75",
"4. c #D38D72",
"5. c #D38D76",
"6. c #D4927A",
"7. c #D79479",
"8. c #DC997E",
"9. c #F8857F",
"0. c #A97E82",
"q. c #BB7D82",
"w. c #ED6986",
"e. c #E56388",
"r. c #EE7887",
"t. c #EE768A",
"y. c #EF6C93",
"u. c #EA7899",
"i. c #9D8788",
"p. c #AA8384",
"a. c #A78689",
"s. c #B58386",
"d. c #B38A8C",
"f. c #B5918B",
"g. c #A99597",
"h. c #B59392",
"j. c #BA999A",
"k. c #B79FA2",
"l. c #BCA4A6",
"z. c #B0A9AD",
"x. c #C68E8B",
"c. c #D59785",
"v. c #DC9A81",
"b. c #C79B9A",
"n. c #E9898D",
"m. c #F88987",
"M. c #E29E82",
"N. c #F69789",
"B. c #F58D96",
"V. c #F79597",
"C. c #F89B9D",
"Z. c #CCA196",
"A. c #D2A799",
"S. c #E3A286",
"D. c #E8A688",
"F. c #EBAB8D",
"G. c #F6A887",
"H. c #FEA38E",
"J. c #FEB18B",
"K. c #EBAC92",
"L. c #FBAA92",
"P. c #EDB194",
"I. c #F3B394",
"U. c #FDB395",
"Y. c #FDBA97",
"T. c #F8B799",
"R. c #FFBE9D",
"E. c #D094A3",
"W. c #F69AA3",
"Q. c #F291AD",
"!. c #C6A6A8",
"~. c #D4ADAF",
"^. c #DBB4A5",
"/. c #C7ADB1",
"(. c #C9B4B6",
"). c #D6B7B9",
"_. c #D2BBBC",
"`. c #F7A4A9",
"'. c #E4BBA9",
"]. c #FCB9A6",
"[. c #E5AFB5",
"{. c #F4A8B5",
"}. c #FAB7B7",
"|. c #FFC29E",
" X c #ECC1AC",
".X c #FFC4A2",
"XX c #FFC9A5",
"oX c #FDC7AB",
"OX c #FFCBAB",
"+X c #FFD0A7",
"@X c #FFD1AC",
"#X c #EBC8B7",
"$X c #F6CDB6",
"%X c #FFD2B4",
"&X c #FDD4BB",
"*X c #FAD8B9",
"=X c #FFD9BD",
"-X c #D3BEC2",
";X c #F5ABC1",
":X c #F8B8C7",
">X c #BEC3C6",
",X c #CBC8CB",
"<X c #DBC5C5",
"1X c #DAC9CA",
"2X c #CCD6D8",
"3X c #E5C6C9",
"4X c #EECFC9",
"5X c #F9C4C9",
"6X c #FBCBCC",
"7X c #FFDDC3",
"8X c #F9DAC7",
"9X c #F9CBD4",
"0X c #E7D8D9",
"qX c #F9D6D8",
"wX c #FFE5C9",
"eX c #FFE3CC",
"rX c #FEE7D6",
"tX c #F7ECD6",
"yX c #FFEAD4",
"uX c #D8DDE0",
"iX c #E6DDE1",
"pX c #FCDCE1",
"aX c #D6E9EC",
"sX c #D9EDEF",
"dX c #D7ECF0",
"fX c #DAEDF1",
"gX c #DDF2F6",
"hX c #DDF8FB",
"jX c #ECE5E6",
"kX c #F7E5E6",
"lX c #FDE4E4",
"zX c #F3ECEC",
"xX c #FDECED",
"cX c #FEF0EF",
"vX c #FDEEF1",
"bX c #E3F6FD",
"nX c #E3FCFF",
"mX c #EBFEFF",
"MX c #FDF3F5",
"NX c #F7F7F8",
"BX c #FEFEFE",
/* pixels */
"_ _ _ _ _ _ _ ' ' ' ' ' ' ' ' ' ' ' ' ' ' ' ' ' ' ' ' ' ' ' ' ' ' ' ' ' ' ' ' ~ ! ! ! ! ! ! ! ! ! ! ! ! ! ! ! ! ! ! ! ~ ~ ( ' _ ' ' ' ' ] y w w w w w ",
"' ' ' ' ' ' ' ' ' ' ' ' ' ' ' _ _ _ _ _ _ _ _ _ _ _ _ _ _ _ _ ' ' ' ' ' ' ' ' ~ ! ! ! ! ! ! ! ! ! ! ! ! ! ! ! ! ! ! ! ~ ~ ( ' _ ' ' ' ' ] y w w w w w ",
"' ' ' ' ' ' ' ' ' ' ' ' ' ' ' [ [ [ [ [ [ [ [ [ [ [ [ [ [ [ [ ' ' ' ' ' ' ' ' ~ ! ! ! ! ! ! ! ! ! ! ! ! ! ! ! ! ! ! ! ~ ~ ( ' _ ' ' ' ' ] y w w w w w ",
"] ] ] ] ] ] ' ' ' ' ' ' ' _ o.*.*.*.*.*.*.*.*.*.*.*.*.*.*.*.&.' _ ' ' ' ' ' ' ~ ! ! ! -.-.t.t.t.t.t.t.t.t.w...! ! ! ! ~ ~ ( ' _ ' ' ' ' ] y w w w w w ",
"y y y y y y / ' ' ' ' ' ' _ o.*.*.*.*.*.*.*.*.*.*.*.*.*.*.*.&.' _ ' ' ' ' ' ' ~ ! ! +.MXBXBXzX0X1X_._.<X0XzXxX:XB.-.B. .~ ( ' _ ' ' ' ' ] y w w w w w ",
"w w w w w w t ' ' ' ' ' ' _ o.*.*.*.*.*.*.*.*.*.*.*.*.*.*.*.&.' _ ' ' ' ' ' o.| |  .w.<Xp.c a d b n n b h d c d.-XB.{.=. .X.' _ ' ' ' ' ] y w w w w w ",
"w w w w w w y ' ' ' ' ' ' _ o.*.*.*.*.*.*.*.*.*.*.*.*.*.*.*.&.' _ ' ' ' ' ' 6XlXlX!.a p I Z. X&X=X=X7X7X7X$X^.R d d !.vXMXB.' _ ' ' ' ' ] y w w w w w ",
"w w w w w w y ' ' ' ' ' ' _ o.*.*.*.*.*.*.*.*.*.*.*.*.*.*.*.&.' _ ' ' ' ' ' qXzXH s c.oX@XXX.XR.Y.R.Y.Y.R.oX&XeX8XZ.s c jXB.' _ ' ' ' ' ] y w w w w w ",
"w w w w w w y ' ' ' ' ' ' _ o.*.*.*.*.*.*.*.*.*.*.*.*.*.*.*.&.' _ ' ' &.6X6X!.% D .XOXR.R.R.R.R.R.R.R.R.R.R.R.R.oXeXrX<.* q.6XC.' ' ' ' ] y w w w w w ",
"w w w w w w y ' ' ' ' ' ' _ o.*.*.*.*.*.*.*.*.*.*.*.*.*.*.*.&.' _ ' ' o.BX_.# 6.XXR.Y.R.R.R.R.R.R.R.R.R.R.R.R.R.Y.R.%XyX'.6 !.6X' ' ' ' ] y w w w w w ",
"w w w w w w y ' ' ' ' ' ' _ o.*.*.*.*.*.*.*.*.*.*.*.*.*.*.*.&.' _ >.W.`.(.# S.OXR.R.R.R.R.R.R.R.R.R.R.R.R.R.R.R.R.R.|.OXyX4Xs T C.V.[ ' ] y w w w w w ",
"w w w w w w y ' ' ' ' ' ' _ o.*.*.*.*.*.*.*.*.*.*.*.*.*.*.*.&.' _ C.BXzX% 7.XXR.R.R.R.R.R.R.R.R.R.R.R.R.R.R.R.R.R..Xv.#.I.yX#X* <XBXo.' ' y e e r r r ",
"w w w w w w y ' ' ' ' ' ' _ o.*.*.*.*.*.*.*.*.*.*.*.*.*.*.*.&.' _ V.BXx D OXR.R.R.R.R.R.R.R.R.R.R.R.R.R.R.R.R.R.XX3.s f 6 P.yX^.> 4X>.;.' ' ( ( ( ( ( ",
"w w w w w w y ' ' ' ' ' ' _ o.*.*.*.*.*.*.*.*.*.*.*.*.*.*.*.&.' _ C.<X: R.R.R.R.R.R.R.R.R.R.R.R.R.R.R.R.R..X.XR..X1.K.XX> U OXyXI H MXBXr.' ' ' ' ' ' ",
"w w w w w w y ' ' ' ' ' ' _ o.*.*.*.*.*.*.*.*.*.*.*.*.*.*.*.&.' _ V.H 1.XXR.R.R.R.R.R.R.R.R.R.R.R.R.R.R..X7.S.XXR..X.X|.> 1.|.&X8X* 1XBXV.' ' ' ' ' ' ",
"w w w w w w y ' ' ' ' ' ' _ o.*.*.*.*.*.*.*.*.*.*.*.*.*.*.*.&.B.pX~.8 R.|.R.R.R.R.R.R.R.R.R.R.R.R.R.R.R.XXZ # I.XXXXXXD & T.|..XyX<.J BXB.' ' ' ' ' ' ",
"w w w w w w y ' ' ' ' ' ' _ o.*.*.*.*.*.*.*.*.*.*.*.*.*.*.*.&.`.BXR S XXR.R.R.R.R.R.R.R.R.R.R.R.R.R.R.R.|.T.8 @ C A p @ 8.XXR.R.&X#X> MXB._ _ _ _ _ _ ",
"w w w w w w y ' ' ' ' ' ' _ o.*.*.*.*.*.*.*.*.*.*.*.*.*.*.*.&.W.BXd 8.XXR.R.R.R.R.R.R.R.R.R.R.R.R.R.R.R.R.|.R.#.g f Z K..XR.R.R.oXyXb ).B.' ' ' ' ' ' ",
"w w w w w w y ' ' ' ' ' ' _ o.*.*.*.*.*.*.*.*.*.*.*.*.*.*.*.&.V.zXp T..XR.R.R.R.R.R.R.R.R.R.R.R.R.R.R.R.R.R..XXX.X.XXX.XR.R.R.R.R.rX<.0.C.&.&.&.*.*.&.",
"w w w w w w y ' ' ' ' ' ' _ o.*.*.*.*.*.*.*.*.*.*.*.*.*.*.*.&.W.0X8 |.R.R.R.R.R.R.R.R.R.R.R.R.R.R.R.R.R.R.R.R.R.R.R.R.R.R.R.R.R.Y.7X^.J C.*.*.*.*.*.*.",
"w w w w w w y ' ' ' ' ' ' _ o.*.*.*.*.*.*.*.*.*.*.*.*.*.*.*.&.W.<Xg .XR.R.R.R.R.R.R.R.R.R.R.R.R.R.R.R.R.R.R.R.R.R.R.R.R.R.R.R.R.Y.%X#Xn n.*.*.*.*.*.*.",
"w w w w w w y ' ' ' ' ' ' _ o.*.*.*.*.*.*.*.*.*.*.*.*.*.*.*.&.`.-Xj .XR.R.R.R.R.R.R.R.R.R.R.R.R.R.R.R.R.R.R.R.R.R.R.R.R.R.R.R.R.Y.oX7Xn $.*.*.*.*.*.*.",
"w w w w w w y ' ' ' ' ' ' _ o.*.*.*.*.*.*.*.*.*.*.*.*.*.*.*.&.9X_.j .XR.R.R.R.R.R.R.R.R.R.R.R.R.R.R.R.R.R.R.R.R.R.R.R.R.R.R.R.R.Y.XXeXc ).m.m.*.*.*.*.",
"w w w w w w y ' ' ' ' ' ' _ o.*.*.*.*.*.*.*.*.*.*.*.*.*.*.*.&.6X0Xg |.R.R.R.R.R.R.R.R.R.R..X.XR.R.R.R.R.R.R.R.R.R.R.R.R..X|.R.R.Y..XeXb <Xm.>.*.*.*.*.",
"w w w w w w t ' ' ' ' ' ' ' ' [ [ [ [ [ [ [ [ [ [ [ [ [ o.}.5X3XL : R.R.R.R.R.R.R.R.R.XX.XI.I..X.XR.R.R.R.R.R.R.R.R..X.XF.I..X|.R..XeXB !.C.>.*.*.*.*.",
"y y y y y y / ' ' ' ' ' ' ' ' _ _ _ _ _ _ _ _ _ _ _ _ _ o.BX!.& M 3.Y.R.R.R.R.R.R.R.XX5.8 p p g M..XR.R.R.R.R.R.R..Xv.f p a V I..X.XeXB b.}.m.*.*.*.*.",
"] ] ] ] ] ] ' ' ' ' ' ' ' ' ' ' ' ' ' ' ' ' ' ' ' ' [ ;.B.k.: F.@X+X|.R.R.R.R.R.R..X5.% l.jXzX(.v S..XR.R.R.R.R..XD.h (.NXNXh.N R..XeXB x.V.>.*.*.*.*.",
"' ' ' ' ' ' ' ' ' ' ' ' ' ' ' ' ' ' ' ' ' ' ' ' ' ' *.qXkXa M.XXU l c.XXR.R.R.R.R.|.s (.MX0XH R !.c.|.R.R.R.R.R..X1.1XBX(.H _.h.8.OX7Xn $.*.*.*.*.*.*.",
"' ' ' ' ' ' ' ' ' ' ' ' ' ' ' ' ' ' ' ' ' ' ' ' ' ' o.xX0X8 .XI.@.U & 3.XXR.R.R.|.F.J MXBX!.X X a $XR.R.R.R.R.R.R.'.zXBXJ   O h.K.OX$Xn :.*.*.*.*.*.*.",
"_ _ _ _ _ _ _ _ _ _ _ _ _ _ _ _ _ _ _ _ _ _ _ _ _ _ _ }.<Xg XXU.G.J.4.> I.|.R.R.|.I.x.BX(.@ O @ O c.XXR.Y.R.R.R.Y.&XBXp.O @ X P OXOX Xn V.*.*.*.*.*.*.",
"4 4 4 4 4 4 4 4 4 4 4 4 4 4 4 4 4 4 4 4 4 4 4 4 4 4 4 ;.1Xs |.U.G.G.J.j 3..XR.R.R.Y.oXBX/.X @ @ O v..XR.|.|..XXXY.XXBXR   @ o I XX&XA.J C.*.*.*.*.*.*.",
"< < < < < < < < < < < < < < < < < < < < < < < < < < < 4 0Xd D.|.G.N.G.4.S..XR.R.R.R.Y.rXzXv . . l R.|..XI.Z f 1..XY.rX0X* X % K.R.7X<.d.C.*.*.*.*.*.*.",
"< < < < 1 1 1 < 1 1 1 1 < < < < < < 1 1 < < < < 1 1 1 1 *.p.j XXY.G.G.J.|.R.R.R.R.R.Y.Y.rXtXf.2.T.|.R.R.I.^.~.6 v.|.Y.&X#X2.F.|.Y.7Xb ).C.*.*.*.*.*.*.",
"< < < < 1 1 1 < 1 1 1 1 < < < < < < < 1 < < < < 2 2 4 1 1 jXd D OX|.Y.Y.].R.R.R.R.U.H.H.H.Y.OXXX|.R.R.R.R.OX7X2.8..XR.Y.Y.Y.L.U.XX8Xa kXW.*.*.*.*.*.*.",
"< < 1 1 1 1 < < 1 < 1 1 < < < Q Q V.}.}.}.}.}.}.lXlXlX6XW m.0X- j D.|..XR..XR.R.R.H.H.H.H.H.Y.R.R.R.R.R.R.R.Y.R.R.R.R.U.H.H.H.H.@X^.z MXV.*.*.*.*.*.*.",
"< < 1 1 1 1 < < < < 1 1 0 ` %.`.n.j.s.P P P R !.<Xj.j./.[.9XxXzXp.d k f 8 v.XXR.R.L.H.H.H.H.Y.R.R.R.R.|..XXX.X.X.X.XR.U.H.H.H.L.wXI R BXV.*.*.*.*.*.*.",
"< 1 1 1 < < < < < < < < %.BXzXR h J h.(.,X-Xl.J @ L 0.J d R zXBXBX/.$ 6 6.k K.|.R.Y.L.H.H.L.R.R.Y.k 6 s h l N n k 5..XR.U.L.U.|.*X= 0XBXB.[ [ [ [ [ [ ",
"1 1 1 1 < 1 < < < < 1 2 *._.* R uXmXmXnXhXhXBXh.a.mXmXmXjXR z R d 8 1.|.+X3.f T..XR.R.R.R.R.R.R.R.> o ; ; @ X O   Y XXR.R.R.R.7X<.c MXlXr._ _ _ _ _ _ ",
"1 1 1 1 1 1 1 1 1 1 V.lXs.% ,XmXgXfXfXfXsXgXNXc 2XhXdXdXbXBX* M 8.R.XX|.R.XXU g R..XR.R.R.R.R.R..X6.; ) { { , . 8 T.|.R.R.R.OX'.& <X>.;.o.' ' ' ' ' ' ",
"< 1 1 1 1 1 1 1 1 1 `.3X* 2XnXfXfXfXfXfXfXmX1Xv gXfXfXsXmX(.k XX|.R.R.R.R.R.XXA 8 P.XXR.R.R.R.R.R.XXD.Z m m M D I..XY.R.R.XX$Xp ~.lX[ ' ' ' ' ' ' ' ' ",
"< < 1 1 1 1 1 1 L.}.[.* ,XnXfXfXfXfXfXfXfXmX!.L nXfXfXfXmXH 4.XXR.R.R.R.R.R.|.XXY & 3.XX.XR.R.R.R.R..XXXT.P.Y.oX.XR.R.R.OX'.d N V.B.[ ' ' ' ' ' ' ' ' ",
"< < 1 1 1 1 1 1 xXBXv i.mXfXfXfXfXfXfXfXsXBXd.g.nXfXfXhXiXg Y.|.R.R.R.R.R.R.Y.R.XX7.> k v.|..X|.R.R.R.R.|..X|.R.R..XXX|.1.= ~.9X_ _ _ _ _ _ _ _ _ _ _ ",
"< < < < < < 1 1 lX<X- fXgXfXfXfXfXfXfXfXfXBXp.j.nXfXfXmX/.M XXR.R.R.R.R.R.R.R.R.R.XXR.U > f 1.F..XXXXXXXXXXXXXXX.XF.U 7 x E.:XQ.r r r r r r r r r r r ",
"< < < < < < < 1 qXJ g.nXfXfXfXfXfXfXfXfXsXBX,.k.nXfXfXmXh.F XXR.R.R.R.R.R.R.R.R.R.R..XXXP.1.f > 8 n D Y #.3.U C k p J /.BXu.w w w w w w w w w w w w w ",
"1 1 1 1 < 1 1 1 3Xd 2XgXfXfXfXfXfXfXfXfXsXBXd.g.nXfXdXmXp.#..XR.R.R.R.R.R.R.R.R.R.R.|.$XI I.OXK.6.U C l N @ d > x zXMXMXvXy.w w w w w w w w w w w w w ",
"1 1 1 1 < 1 1 1 b.H gXfXfXfXfXfXfXfXfXfXsXmXj.i.nXfXfXmX0.#..XR.R.R.R.R.R.R.R.R.R.R.Y.%XA.g R..X.XXXXX+XS.& #X8Xp h.pXQ.O.w w w w w w w w w w w w w w ",
"< < < < < < < 1 E L nXfXfXfXfXfXfXfXfXfXsXmX<XH hXfXdXmXa.@..XR.R.R.R.R.R.R.R.R.R.R.R.R.eXb 2..XR.R.|.T.& #.OXwX#X6 T Q.w.w w w w w w w w w w w w w w ",
"1 1 1 1 1 1 1 1 T a.nXfXfXfXfXfXfXfXfXfXgXmXBXG 2XmXnXmXj.S XXR.R.R.R.R.R.R.R.R.R.R.R.Y.&Xb.k .XR.|..Xg k .XR.R.eX8Xb q 3XpX9XQ.w w w w w w w w w w w ",
"^ ^ ^ ^ ^ ^ ^ ^ E a.nXfXfXfXfXfXfXfXgXnXaXz.g.= x a.z.2X,Xn .XR.R.R.R.R.R.R.R.R.R.R.R.Y.OX#X6 I.|.XXC > R.|.R.Y.R.=XeXE p !.MX:Xw w w w w w w w w w w ",
"[ [ [ [ [ [ [ [ x.L nXfXfXfXfXsXfXhXaXi.d M F 5.6.<.I c v & T..XR.R.R.R.|.R.R.R.R.R.R.R.R.7Xh 7.@XA & P..XR.R.R.R.Y.oXeX^.h c T } u.e.} } u.Q.O.w w w ",
"' ' ' ' ' ' ' ' ~.H gXfXfXfXfXsXhX2Xz M F.XXXXXX.XOX%X$XZ.p M .X|.R.R.R.T.R.R.R.R.R.R.R.Y.7XI D Y & F.|.R.R.R.R.R.R.Y.R.%XeXA.I B H B Z P n b.kXi w w ",
"' ' ' ' ' ' ' ' qXb 2XgXfXfXfXgXaX- @.OX.XR.R.R.R.R.R.R.=XeXP j ].|.R.R.#.T.R.R.R.R.R.R.R.&XZ.O X 8.+XR.R.R.R.R.R.R.R.R.Y.|.%X7X&X$X&X=X&X Xs j.y.w w ",
"' ' ' ' ' ' ' [ qXR g.mXfXfXfXnXi.N XXR.R.R.R.R.R.R.R.R.Y.OXrXI l .X|.R.N F..XR.R.R.R.R.R.oX'.a p.7 T.XXR.R.R.R.R.R.R.R.R.R.R.R.|.Y.S.5.v.@XP.b 5Xr w ",
"' ' ' ' ' ' ' ' lX0Xz fXgXfXfXsXc S..XR.R.R.R.R.R.R.R.R.R.Y.%XyXb U XX.XN 6..XR.R.R.R.R.R..X$Xd zXp.: I.XXR.R.R.R.R.R.R.R.R.R.R.|.1.Z A 9 Z D J MXi w ",
"~ ~ ~ ~ ~ ~ ~ ~ 9XzX$ g.nXfXgX2Xk R.R.R.R.R.R.R.R.R.R.R.R.R.Y.=X4X6 D.+XZ U XXR.R.R.R.R.R.R.7Xc (.BXp.# S.XX|.R.R.R.R.R.R.R.R.R.R..XOXOX.XV $ jX{.w w ",
"! ! ! ! ! ! ! ! ).d j % >XnXhX>Xl |.R.R.R.R.R.R.R.R.R.R.R.R.R.R.yXf.l +XY k .XR.R.R.R.R.R.Y.=XE R MXBX(.% F .XXXR.R.R.R.R.R.R.R.].S.3.D.@X#.J BXO.w w ",
"! ! ! ! ! +.;X[.% @.@X@.$ >XmX,Xk |.R.R.R.R.R.R.R.R.R.R.R.R.R.Y.OX8Xd D.S.> Y.|.R.R.R.R.R.Y.@XA.v 9Xw.u.~.v 7 7.XX.XR.R.R.R.R.XXv.X $ p M 8 x.u.r w w ",
"! ! ! ! ! w.BXd.M XX|.XX@.@ k.sXv I.|.R.R.R.R.R.R.R.R.R.R.R.R.R.R.eX<.Z .X& 8..XR.R.R.R.R.R..X&Xc ~.w w 9XBX/.c M 7..XXX.XR.R.|.I.Y 8 R l.0X:Xw w w w ",
"! ! ! ! ! w.jX> I.|.R.R.XX7.: G - v.@X.XR.R.R.R.R.R.R.R.R.R.R.R.Y.%X#Xs k O U XXR.R.R.R.R.R.Y.7XP E y.O.u.Q.:X[.T d 7 D M.T..XXXXX*X4.v qX:XQ.i w w w ",
"! ! ! ! ! -.h.M OXR.R.R.R.XXT.S @ > 3.I..X.XXX.XR.R.R.R.R.R.R.R.R..XrXh L /.f |.R.R.R.R.R.R.R.%XZ.c BX9Xw w w w e.BX1Xp.b f l C D S : ~.y.w i u w w w ",
"! ! ! ! | t.b 5.XXR.R.R.R.R.|.XXI.Y 6 > s l C U T.|.R.R.R.R.R.R.R.R.yXP j.BXp D.|.R.R.R.R.R.R.|.8Xp 3XMXu w w w i u.;X:XqX3X!.d.0.s.).vXw.w w w w w w ",
"! ! ! ..W.3Xs I..XR.R.R.R.R.R.R..XXXR.D.3.Y Y 1.Y.R.R.R.R.R.R.R.R.R.eXE ,.BXK U XXR.R.R.R.R.R.Y.7XI R BX..t t t t t t t t u u u u u u u t t t t t t t ",
"! ! ! `.MX_.f .XR.R.R.R.R.R.R.R.R.R.R.|..XXXXX.XR.R.R.R.R.R.R.R.R.R.eXE p.BX/.9 XXR.R.R.R.R.R.R.oX'.a jX*.] ' ' ' ' ] ] ' ' ' ' ' ' ' ' ] ] ' ' ' ' ' ",
"! ! ! {.BXd.V XXR.R.R.R.R.R.|.R.R.R.R.R.R.R.R.R.R.R.R.R.R.R.R.R.R.R.eXP h.6XkXp S.|.R.R.R.R.R.R.Y.7Xn d.qX:X*.' ' ' ' ' ' ' ' ' ' ' ' ' ' ' ' ' ' ' ' ",
"! ! ! {.BXJ #.XX].Y.R.R.|.T.Y..XR.R.R.R.R.R.R.R.R.R.R.R.R.R.R.R.R..X8Xd <X}.BXL S OXR.R.R.R.R.R.Y.OX'.% 0XxXm.' [ [ [ ' ' ' ' ' ' ' ' ' ' ' ' ' ' ' ' ",
"! ! ! {.BXv 5.T.U R.|.R.XX6.# v.OX|.R.R.R.R.R.R.R.R.R.R.R.R.R.R.R.@XZ.d W.*.xX0X: T.|.R.R.R.R.R.R.|.wXZ.$ 0XC.' [ [ [ ' ' ' ' ' ' ' ' ' ' ' ' ' [ [ ' ",
"! ! ! B.BXh.9 s 2..XD.|..Xf K = C T.XX|.R.R.R.R.R.R.R.R.R.R.R.R.|.oXa b.' ' 6XBXH D OXR.R.R.|..XT.Y K.wXx.d }.` 5 5 5 5 5 5 5 5 5 5 5 5 5 5 5 5 5 5 5 ",
"! ! ! ! 9X4XO 1.%XA U %XD z BXjXK : U Y.OX.XR.R.R.R.R.R.R.R.R.XX|.s R lX[ [ ;.5X).% I..XR..X3.6.XX#.s T.yXl ).}.1 < < < < < < < < < < < < < < < < < < ",
"! ! ! ! ! w.h.9 9 : S.S * jXMXxXMX-Xv > D D..XXX.X|.|.|..XXX.X8.: R BXpX[ [ ^ 3 m.j.9 XX.X|.S.> F.+Xl Y yXP E N.5 < < < 1 1 < < 1 1 1 1 < < < < 1 1 1 ",
"! ! ! ! ! w.BXl.K h d L jXBXxX9XlXMXMX1XL a 8 A 4.M.F.D.8.@.l a l.xX9X>.' [ _ 3 m.BXv 9 I.XX%XD Z =X6.: Y d $.0 2 < < < 1 < < < 1 1 1 1 < < < < 1 1 1 ",
"! ! ! ! ! | =.=.=.....=.=.+...! ..+.=.=.=.+./.p.v d d b J L x.r.;.;.' _ ' [ _ 3 0 Q %.R > j F g @ V 9 v R kXN.1 1 < 1 1 1 1 < < 1 < 1 1 < < < < 1 1 < ",
"! ! ! ! ! ! ! ! ! ! ! ! ! ! ! ! ! ! ! ! ! | BXBXBXBXBX0X`.=.~ ' _ ' ' ' ' [ _ 3 < < W cXiX/.j.!.3X!.-XBXBXqX*.1 1 1 1 1 1 1 < < < < 1 1 1 < < < < < < ",
"( ( ( ( ( ( ( ( ( ( ( ( ( ( ( ( ( ( ( ( ( X.V.W.W.W.B.X.( ( ( ' ' ' ' ' ' [ _ 3 < 1 1 0 %.m.m.m.m.m.9.` Q < < < < < < < 1 1 < < < < < < 1 1 1 1 < < < ",
"' ' ' ' ' ' ' ' ' ' ' ' ' ' ' ' ' ' ' ' ' ' ' ' ' ' ' ' ' ' ' ' ' ' ' ' ' [ _ 3 < 1 1 < < < < < < < 1 < < < < < < < 1 1 1 1 < < < < < < 1 1 1 1 < < < ",
"' ' ' ' ' ' ' ' ' ' ' ' ' ' ' ' ' ' ' ' ' ' ' ' ' ' ' ' ' ' ' ' ' ' ' ' ' [ _ 3 < 1 < < < < < < 1 1 1 1 1 1 1 1 1 1 1 1 1 1 1 1 1 1 < < 1 1 1 1 < < < "
};
