/* XPM */
static char *_a17a42885f64fb5f55cd379f61e737fgxh8E2trtDb5vXeE[] = {
/* columns rows colors chars-per-pixel */
"30 30 149 2 ",
"   c None",
".  c #060000",
"X  c #0A0401",
"o  c #0D0A05",
"O  c #0D0A0B",
"+  c #110D0E",
"@  c #12110E",
"#  c #1A160E",
"$  c #110F12",
"%  c #151413",
"&  c #171817",
"*  c #191915",
"=  c #171918",
"-  c #191B1D",
";  c #181617",
":  c #351F0B",
">  c #1C201F",
",  c #3D2109",
"<  c #2B2116",
"1  c #3D2719",
"2  c #342216",
"3  c #1C1E25",
"4  c #1D1D28",
"5  c #1D2324",
"6  c #1E232B",
"7  c #1B2431",
"8  c #19283B",
"9  c #292826",
"0  c #21242D",
"q  c #232B2D",
"w  c #222631",
"e  c #252C32",
"r  c #252B3A",
"t  c #273135",
"y  c #26323D",
"u  c #29353C",
"i  c #2D383F",
"p  c #363130",
"a  c #363438",
"s  c #3A3939",
"d  c #442F1B",
"f  c #4F3013",
"g  c #46311D",
"h  c #583F2F",
"j  c #553A25",
"k  c #403836",
"l  c #4E3D32",
"z  c #7F4B1F",
"x  c #594439",
"c  c #6B482A",
"v  c #794B2B",
"b  c #7E502D",
"n  c #62493C",
"m  c #1D2E42",
"M  c #2A3542",
"N  c #2D3B45",
"B  c #213648",
"V  c #283C4C",
"C  c #303E49",
"Z  c #383F49",
"A  c #32434D",
"S  c #2C4252",
"D  c #2A495C",
"F  c #254556",
"G  c #334552",
"H  c #354A56",
"J  c #394C52",
"K  c #374C59",
"L  c #3A4D5C",
"P  c #35515F",
"I  c #3B525E",
"U  c #3C5562",
"Y  c #3F5964",
"T  c #3E5B69",
"R  c #3B5D72",
"E  c #3A6074",
"W  c #404542",
"Q  c #444843",
"!  c #55514A",
"~  c #40565E",
"^  c #4D5B5D",
"/  c #555D5B",
"(  c #78654E",
")  c #686051",
"_  c #405363",
"`  c #425B65",
"'  c #435E6A",
"]  c #435F71",
"[  c #47606A",
"{  c #456472",
"}  c #496977",
"|  c #476979",
" . c #496D7C",
".. c #737065",
"X. c #81481B",
"o. c #8C4E1B",
"O. c #865125",
"+. c #8F5320",
"@. c #945521",
"#. c #9B5B27",
"$. c #945929",
"%. c #8C613F",
"&. c #956138",
"*. c #D1782F",
"=. c #D57426",
"-. c #A26E40",
";. c #80857C",
":. c #4D6F83",
">. c #4D7586",
",. c #4C7488",
"<. c #507585",
"1. c #587885",
"2. c #537B8E",
"3. c #4F849F",
"4. c #578397",
"5. c #5D8094",
"6. c #58879C",
"7. c #63899E",
"8. c #5B8DA3",
"9. c #5691AE",
"0. c #5B91AA",
"q. c #638FA4",
"w. c #6292A7",
"e. c #6495AB",
"r. c #669CB5",
"t. c #689EB6",
"y. c #6CA3BB",
"u. c #77A9BF",
"i. c #73A6BC",
"p. c #6FA8C3",
"a. c #76AAC1",
"s. c #7CB3CB",
"d. c #7BB6D0",
"f. c #828C86",
"g. c #898F87",
"h. c #82BBD5",
"j. c #82BED9",
"k. c #82C0DB",
"l. c #89C4DE",
"z. c #85C5E1",
"x. c #8AC7E1",
"c. c #8DCAE4",
"v. c #8CCDE9",
"b. c #93D3EE",
"n. c #95D6F2",
"m. c #96D7F4",
"M. c #96D8F5",
"N. c #95D8F3",
"B. c #9ADDFA",
/* pixels */
"                                                            ",
"                                                            ",
"                                                            ",
"                  6 M :.7.7.5.L ] A 0 % @                   ",
"                6 _ a.z.N.B.c.} 8.| M 0 - %                 ",
"              r L y.M.c.h.h.u.U ,.U w 6 6 % @               ",
"            4 ] r.8.e.q.N L L H K K i q t t > @             ",
"            4 ' 6.U 3 M <.l.x.x.l.x.c.t.s.d.K X             ",
"            0 G N m R >.y.n.m.n.n.n.M.p.k.z.I .             ",
"            0 S ! %.g.0. .' ' ' ' ' [ H I ` e O             ",
"            w S ( =.&.V - $ X $ X $ X % O X @ %             ",
"            r 6 9 k a 3 5 U N I N I C L N = %               ",
"                o O 7 A { s.j.j.h.j.h.j.h.~                 ",
"                A J A G A A }  . . . . .I 5 o               ",
"              ` s.M.v.q.u q 5 % + X O % 5 6 3 -             ",
"            . 1.B.x.b.s.U U I A ' T { H K A r 0 @           ",
"            . Y j.b.s.` u 2.4.i.h.k.k.s.w.K w 6 @           ",
"              5 q u q % 5 ' {  .e.t.t.2.} u % %             ",
"                  o % w y I P P 3.9.9.E H e o               ",
"                    - 0 p W Q ) ;.f.f...s =                 ",
"                    % # : 2 1 v b v X.o.f                   ",
"                      % 6 S S V 8 B c o.h                   ",
"                      5 L Y Y I y H -.*.n                   ",
"                      u I I H 5 w K ^ / Z                   ",
"                  % % % & = & % 7 S D F y                   ",
"                  % % % % @ @ % l x x j <                   ",
"                  % % % % %   * z @.+.O.d                   ",
"                  % %         % : , , @                     ",
"                              * O.#.#.$.g                   ",
"                                                            "
};
