/* XPM */
static char *_e0db21ae9cb41f8c22a09f8211919460zmV6gdFfr7ipBdq[] = {
/* columns rows colors chars-per-pixel */
"75 75 247 2 ",
"   c #0C080B",
".  c #170C07",
"X  c #16120F",
"o  c #1B120A",
"O  c #19171A",
"+  c #27100F",
"@  c #28180C",
"#  c #251A16",
"$  c #2B1D12",
"%  c #331714",
"&  c #3A1916",
"*  c #3A240E",
"=  c #292117",
"-  c #322214",
";  c #372619",
":  c #352A1E",
">  c #3C2A1B",
",  c #1C1A24",
"<  c #201D29",
"1  c #281D31",
"2  c #10393F",
"3  c #292629",
"4  c #342B21",
"5  c #3A2D22",
"6  c #382828",
"7  c #3D3224",
"8  c #3A352B",
"9  c #313136",
"0  c #481E1C",
"q  c #541717",
"w  c #6B1C1C",
"e  c #751F1D",
"r  c #442719",
"t  c #53241D",
"y  c #49331A",
"u  c #4A361C",
"i  c #51371B",
"p  c #563A1A",
"a  c #5B1D38",
"s  c #601E3B",
"d  c #412B29",
"f  c #542C2D",
"g  c #433424",
"h  c #473927",
"j  c #493528",
"k  c #463829",
"l  c #4C3B2A",
"z  c #593326",
"x  c #553E22",
"c  c #5A3D22",
"v  c #523E29",
"b  c #463834",
"n  c #7B2826",
"m  c #6A2B33",
"M  c #763733",
"N  c #7D3232",
"B  c #793C35",
"V  c #6C4717",
"C  c #574020",
"Z  c #5D4124",
"A  c #56432E",
"S  c #5E452C",
"D  c #4F443A",
"F  c #514436",
"G  c #574738",
"H  c #644526",
"J  c #664827",
"K  c #694827",
"L  c #654729",
"P  c #674829",
"I  c #6A4A2A",
"U  c #714D2A",
"Y  c #654A30",
"T  c #684D33",
"R  c #6E5336",
"E  c #69543D",
"W  c #6F593F",
"Q  c #745433",
"!  c #795633",
"~  c #7A5836",
"^  c #74593B",
"/  c #7B5B39",
"(  c #342C47",
")  c #3C2E48",
"_  c #3B3D53",
"`  c #412E49",
"'  c #453246",
"]  c #463348",
"[  c #49344A",
"{  c #5F314F",
"}  c #1C4A4D",
"|  c #2C4A49",
" . c #484848",
".. c #5E4543",
"X. c #584C43",
"o. c #494858",
"O. c #565758",
"+. c #6F4F43",
"@. c #634949",
"#. c #76494B",
"$. c #69544A",
"%. c #715245",
"&. c #745E42",
"*. c #655A55",
"=. c #685B5C",
"-. c #776145",
";. c #796146",
":. c #7E6548",
">. c #514F68",
",. c #645D60",
"<. c #6C6A6A",
"1. c #75686A",
"2. c #70706F",
"3. c #717376",
"4. c #7B7577",
"5. c #982E27",
"6. c #91332F",
"7. c #853532",
"8. c #A43935",
"9. c #AA3B34",
"0. c #995A16",
"q. c #845F3A",
"w. c #AF5430",
"e. c #84623F",
"r. c #89623D",
"t. c #B4732A",
"y. c #E87838",
"u. c #8F5A5B",
"i. c #A94F48",
"p. c #866441",
"a. c #886643",
"s. c #8C6844",
"d. c #846A4C",
"f. c #8E6F4B",
"g. c #916C46",
"h. c #95744D",
"j. c #96784F",
"k. c #8E6C55",
"l. c #917352",
"z. c #997A57",
"x. c #AE6E5F",
"c. c #9D6C65",
"v. c #8A7B7C",
"b. c #A26765",
"n. c #AB756E",
"m. c #DE4E47",
"M. c #CD534F",
"N. c #D95A56",
"B. c #E8524A",
"V. c #E25A55",
"C. c #E85E57",
"Z. c #EA645B",
"A. c #E97250",
"S. c #F07654",
"D. c #F17855",
"F. c #D36F61",
"G. c #E76B65",
"H. c #ED7671",
"J. c #DE8524",
"K. c #F59031",
"L. c #F3B13E",
"P. c #A08161",
"I. c #AA846A",
"U. c #B79062",
"Y. c #BA9467",
"T. c #B6946A",
"R. c #BB976B",
"E. c #BD986B",
"W. c #B38F72",
"Q. c #B88B75",
"!. c #EF844A",
"~. c #EF9E44",
"^. c #EFA948",
"/. c #CC846A",
"(. c #C09769",
"). c #C29C6F",
"_. c #CA8E75",
"`. c #C59E72",
"'. c #C99B79",
"]. c #C7A274",
"[. c #CBA373",
"{. c #D4AB7A",
"}. c #705E98",
"|. c #7464A1",
" X c #339199",
".X c #3A9CA4",
"XX c #43ACB5",
"oX c #61B1B0",
"OX c #49BDC5",
"+X c #51C3CA",
"@X c #928B8B",
"#X c #979695",
"$X c #97989B",
"%X c #B6948D",
"&X c #A89498",
"*X c #ABA098",
"=X c #ADADAB",
"-X c #B9BAB9",
";X c #C49B85",
":X c #C79D93",
">X c #EA8E8A",
",X c #F2928D",
"<X c #EC9A96",
"1X c #E99C98",
"2X c #D4A782",
"3X c #DDAC89",
"4X c #C7B187",
"5X c #CEB98C",
"6X c #D7B58E",
"7X c #E1AF8B",
"8X c #E5B38D",
"9X c #E8B58E",
"0X c #F2A49F",
"qX c #FDA29E",
"wX c #E8B791",
"eX c #F1B392",
"rX c #CDB0B1",
"tX c #D6B6B7",
"yX c #EDA6A3",
"uX c #FBA7A4",
"iX c #EBBAB7",
"pX c #BAC0BF",
"aX c #E3C295",
"sX c #E8C698",
"dX c #EBCB9B",
"fX c #F5CD95",
"gX c #EFCFA0",
"hX c #F4D3A1",
"jX c #ECC1BE",
"kX c #BBBEC2",
"lX c #D1BFC6",
"zX c #BDC2C4",
"xX c #C5C7C7",
"cX c #CFD4D2",
"vX c #D7D8D7",
"bX c #D9D8D8",
"nX c #EDC4C2",
"mX c #F2C6C5",
"MX c #E6D8DC",
"NX c #DCDEE0",
"BX c #DEE0E2",
"VX c #E1E4E3",
"CX c #E7EAEC",
"ZX c #EFF3F5",
"AX c #F2F4F4",
"SX c #F6F9F8",
"DX c #FFFFFE",
/* pixels */
"xX#X#X#X#X#X#X#X#X#X#X#X#X#X#X#X#X#X#X#X#X#X#X#X#X#X#X#X#X#X#X#X#X#X#X#X#X#X#X#X#X#X#X#X#X#X#X#X#X#X#X#X#X#X#X#X#X#X#X#X#X#X#X#X#X#X#X#X#X#X#X#X#X$XAX",
"<.R j.h.h.h.h.h.h.h.h.h.h.h.h.h.h.h.h.h.h.h.h.h.h.h.h.h.h.h.h.h.h.h.h.h.h.h.h.h.h.h.h.h.h.h.h.h.h.h.h.h.h.h.h.h.h.h.h.h.h.h.h.h.h.h.h.h.h.h.h.h.h.7 NX",
"2.h.].).].[.[.[.[.[.[.[.[.[.[.[.[.[.[.[.[.[.[.[.[.[.[.[.[.[.[.[.[.[.[.[.[.[.[.[.[.[.[.[.[.[.[.[.[.[.[.[.[.[.[.[.[.[.[.[.[.[.[.[.[.[.[.[.[.].).).(.D NX",
"2.f.).R.d.W W W W W W W W W W W W W W W W W W W W W W W W W W W W W W W W W W W W W W W W W W W W W W W W W W W W W W W W W W W W W W &.W d.E.R.Y.F NX",
"2.f.).T.: S T T T Y Y Y Y Y Y Y Y Y Y Y Y Y Y Y Y Y Y Y Y Y Y Y Y Y Y Y Y Y Y Y Y Y Y Y Y Y Y Y Y Y Y Y Y Y Y Y Y Y Y Y Y Y Y Y Y Y Y T j 7 ).E.Y.F NX",
"2.f.).T.7 L I L / s.s.s.s.s.s.s.s.s.s.s.s.s.s.s.s.s.s.s.s.s.s.s.s.s.s.s.s.s.s.s.s.s.s.s.s.s.s.s.s.s.s.s.s.s.s.s.s.s.s.s.s.s.s.s.s.s.s.g.Q h ).E.Y.F NX",
"2.f.).R.#  .$X@X8 / a.p.p.p.p.p.p.p./ / / / / q.a.p.p.p.p.p.p.p.p.p.p.p.p.p.p.p.p.p.p.p.p.p.p.p.p.p.p.p.p.p.p.p.p.p.p.p.p.p.p.p.p.p.p.a.R h ).E.Y.F NX",
"2.f.).R.. 4.DXDXb ~ a.p.p.p.p.a.q.g A G G G G l v s.p.p.p.p.p.p.p.p.p.p.p.p.p.p.p.p.p.p.p.p.a.a.p.p.p.p.p.p.p.p.p.p.p.p.p.p.p.p.p.p.p.s.R h ).E.Y.F NX",
"2.f.).R.o 3.DXAXb ~ p.p.p.p.p.a.Q k 3X3X3X3X8XI.; s.p.p.p.p.p.e.p.p.p.p.e.e.r.r.r.r.a.p.p.p.p.p.p.p.p.p.p.p.p.p.p.p.p.p.p.p.p.p.p.p.p.a.R h ).E.Y.F NX",
"2.f.).R.o 3.DXAXb Z I I P P P H i k wXwX9X9XeXW.$ Z v v Z P I I I K K K K K > 8 8 8 4 Z I I I I I I I I I I I I I I I I I I I I I I I I x g ).E.Y.F NX",
"2.f.).R.o 3.DXSX8 % r r r r + ; # # u.u.u.u.u.#.o V V V i > I H > k k k k g O .XXXXX} y I H p p p c I H H H H H H H H H H H H H H H H I u g ).E.Y.F NX",
"2.f.).R.o 3.DXAX8 5.8.8.8.8.% ..d = _.Q.Q.Q._.k.@ K.K.K.t.o y @  .CXCXCXCXbX9 .XOX+X} @ * 7 D D X.8 y I L L L L L L L L L L L L L L L I i g ).E.Y.F NX",
"2.f.).R.o 3.DXAXb 5.9.9.9.9.& ..d 4 wX9X8X8XwXW.@ y.y.y.w.O -X4. .xXkXkXzX-X9 .XOXOX} w w ,.SXZXDX-X$ I L L L L L L L L L L L L L L L I i g ).E.Y.F NX",
"2.f.).R.o 3.DXAXb 5.9.9.9.9.& ..d 4 7X7X3X3XwXI.$ ^.^.^.t.3 rX@X9 $X#X#X$X@X9 oXoXoX| e e 9 SXDXDXVX4 Z P L L L L L L L L L L L L L L I i g ).E.Y.F NX",
"2.f.).R.o 3.DXAXb 5.9.9.9.9.& ..d 4 7X7X3X3X9XI.3 AXDXDX-X3 &X4. .xXkX-XkX=X8 '.8XwXD w n   cXDXSXSX .y I L L L L L L L L L L L L L L I i g ).E.Y.F NX",
"2.f.).R.o 3.DXAXb 5.9.9.9.9.& ..d 4 7X7X3X3X9XI.3 AXDXDX-X3 &X4.O.DXDXDXDXAXD '.8XwXD w 7.  $XDXSXDX<.* I P L L L L L L L L L L L L L I i g ).E.Y.F NX",
"2.f.).R.o 3.DXAXb 5.9.9.9.9.& ..d 4 7X7X3X3XwXI.3 AXDXDX-X3 &X4.O.DXDXDXDXAXb '.8X9XD w 7.  <.DXSXDX$X$ I L L L L L L L L L L L L L L I i g ).E.Y.F NX",
"2.f.).R.o 3.DXAXb 5.9.9.9.9.& ..d 4 7X7X3X3XwXI.3 AXDXDX-X3 &X4.O.DXDXDXDXAXb '.8X9XD w n @ b AXSXDXxX$ K L L L L L L L L L L L L L L I i g ).E.Y.F NX",
"2.f.).R.o 3.DXAXb 5.9.9.9.9.& ..d 4 7X7X3X3XwXI.3 SXDXDXpX3 &X4.O.DXDXDXDXAXb '.eXeXG w n - - xXDXDXCX5 c I L L L L L L L L L L L L L I i g ).E.Y.F NX",
"2.f.).R.o 4.DXDXb 5.9.9.9.9.& G 6 4 wXwX9X9XeXW.$ 9XfXfXU.3 &X4.O.DXDXDXDXSX8 #X=X=X| e n ; * #XDXSXDX .y I H L L L L L L L L L L L L I i g ).E.Y.F NX",
"2.f.).R.o O.tX=Xb x./././.F.d $.b # n.n.n.n.n.u.@ J.K.K.t.3 &X4. .rXrXrXrXrX9 .XOXOX} e n ; y O.DXSXDX3.* I L H H H H H L L L L L L L I i g ).E.Y.F NX",
"3.f.).R.o ,.MXlXb x././././.v &Xv.# b.b.b.b.b.u.@ A.!.!.w.3 cX#X .MXMXMXMXbX9 .XOX+X} e 7.- H 8 AXDXDX=X$ I P P J J J J P P P P P P P I i g ).E.Y.F NX",
"3.f.).R.o O.cXzX6 8.i.i.i.i.% b # = 2X2X2X2X3XI.. t.t.t.0.O =X4. .ZXZXZXAXVX9  X.X.X2 q q $ H @ $XxX=X3.o Z Z Z Z Z Z Z Z Z Z Z Z Z Z H y g ).E.Y.F NX",
"2.f.).R.: = 5 : 5 z z z z z g 5 5 7 F F F F F l : : : : : 5 k 7 k X.X.X.X.X.7 8 8 8 7 : 4 g v g : : - - g l l l l l l l l l l l l l l v - 7 ).E.Y.F NX",
"2.f.).T.k U.).E.).R.R.R.R.R.E.).).).T.T.T.T.T.T.).E.E.E.).).R.E.E.Y.Y.Y.Y.Y.).(.(.(.).).).E.R.E.E.E.).).E.E.E.E.E.E.E.E.E.E.E.E.E.E.E.].%.: `.E.Y.F NX",
"2.f.).T.k T.[.].].].].].].].].].].].].].].].].].].].].].].].].].].].].].].].].].].].].].].].].`.].].].].].].].].].].].].].].].].].].].{.&.4 `.E.Y.F NX",
"2.f.).T.7 E &.&.&.&.&.&.&.&.&.&.&.&.&.&.&.&.&.&.&.&.&.&.&.&.&.&.&.&.W E W &.&.&.&.&.&.&.&.&.&.&.&.&.&.&.&.&.&.&.&.&.&.&.&.&.&.&.&.&.&.;.7 4 `.E.Y.F NX",
"2.f.).T.5 v L L L L L L S S S L L L L L S S L L L L L L S L L L Y g $ E # j L L L L S S S L L L S S S L L L L S L L L L L L L L L L L L j g ).E.Y.F NX",
"2.f.).T.g / s.s.s.s.s.s.s.s.s.s.s.s.s.s.s.s.s.s.s.s.s.s.s.s.s.s.g.Y G {.l R g.s.s.s.s.s.s.s.s.s.s.s.s.s.s.s.s.s.s.s.s.s.s.s.s.s.s.s.s.g.Q h ).E.Y.F NX",
"2.f.).T.7 ^ a.p.p.p.p.p.p.p.p.p.p.p.p.p.p.p.p.p.p.p.p.p.p.p.p.p.s.Y F [.k T a.p.p.p.p.p.p.p.p.p.p.p.p.p.p.p.p.p.p.p.p.p.p.p.p.p.p.p.p.a.R h ).E.Y.F NX",
"2.f.).T.7 / s.a.p.p.a.a.a.a.a.a.a.p.a.a.p.a.a.a.a.p.p.a.p.a.a.a.s.Y F [.k T s.a.a.a.a.a.a.a.a.a.a.a.a.a.a.a.a.a.a.a.a.a.p.p.a.a.p.a.a.s.R h ).E.Y.F NX",
"2.f.).T.g I ! ! Q Q Q Q ! ! ! ! ! ! Q Q Q ! ! ! ! ! Q Q Q ! ! Q e.Y F ].l L / / / / / / / / / / / / / / / / / / / / / / / / / / / / ~ e.R h ).E.Y.F NX",
"2.f.).T.g c H H H H H H L L H L H H H H H H H H H H H H H H H H / Y F [.A c H H H H H H H H H H H H H H H H H H H H H H H H H H H H H ~ R k ).E.Y.F NX",
"2.f.).T.g Z P L L L L L L L I I J C x x Z P I I L L L L L L L H / Y F ].A c K L L L L L L L L L L L L L L L L L L L L L L L L L L L H ~ R k ).E.Y.F NX",
"2.f.).T.g Z P L L L L L I I i ; r t z z t ; ; p I I L L L L L H / Y F ].A c K H L L L L L L L L L L L L L L L L L L L L L L L L L L H ~ R k ).E.Y.F NX",
"2.f.).T.g Z P L L L L I Z - t 8.M.G.H.G.Z.M.6.t - H I L L L L H / Y F ].A c P L L I K K K K K K K K K K K K K K K K K K I I L L L L H ~ R k ).E.Y.F NX",
"2.f.).T.g Z P L L L I x $ 8.G.,XyXiXtXiXiXyX>XC.7.$ H I H L L H / Y F ].A c P L I u > j v l l l l l l l l l j l v l l l > x I L L L H ~ R k ).E.Y.F NX",
"2.f.).T.g Z P L L P P # 8.H.iXnXnXiXc.iXnXnXnXyXG.N - I H L L H / Y F ].A c P L I $ &X@X*.=.=.=.=.=.=.=.=.=.=.=.=.=.=.v.@X$ I L L L H ~ R k ).E.Y.F NX",
"2.f.).T.g Z P L L I u t G.iXnXiXjXrXz.nXmXmXmXmX<XN.& x I L L H / Y F ].A c P L I - tX1.=XbXvXvXvXvXvXvXvXvXvXvXvXbXxX=.*X- I L L L H ~ R k ).E.Y.F NX",
"2.f.).T.g Z P L L I > n H.nXjXiXnXrXk.%X%X%X%XtXiXZ.t u I L L H q.Y F ].A c P L I - tX1.xXDXDXDXDXDXDXDXDXDXDXDXDXDXSX<.&X- I L L L H ~ R k ).E.Y.F NX",
"2.f.).T.g Z P L L I u t G.iXnXiXiXiXrX:X:X:X;XtX0XN.& x I L L H q.Y F [.A c P L I - tX1.xXDXDXDXDXDXDXDXDXDXDXDXDXDXAX<.&X- I L L L H ~ R k ).E.Y.F NX",
"2.f.).T.g Z P L L J P @ 8.>XjXnXjXiXnXmXmXmXmXiXH.7.$ I H L L H q.Y F [.A c P L I - tX1.xXDXDXDXDXDXDXDXDXDXDXDXDXDXAX<.&X- I L L L H ~ R k ).E.Y.F NX",
"2.f.).T.g Z I L L L I x % 9.H.0XiXjXnXjXiXiX,XG.6.$ Z I L H H H / Y F ].A c P L I - tX1.xXDXDXDXDXDXDXDXDXDXDXDXDXDXAX<.&X- I H L L H ~ R k ).E.Y.F NX",
"2.f.).T.g Z P L I K H K C $ w w.N.G.H.H.G.M.8.t - Z K H H H I H / Y F ].A c P L I - tX=.=XVXVXVXVXVXVXVXVXVXVXVXVXVXcXO.&X- I H L L H ~ R k ).E.Y.F NX",
"2.f.).T.g Z P I u > j j j j = # d m M M z 6 O ; j j j j j j > Z q.Y F ].A c P L I $ tX*X4.@Xv.v.v.v.v.v.v.v.v.v.v.v.v.@X=X$ I L L L H ~ R k ).E.Y.F NX",
"2.f.).T.g Z I I - u.yX<X<X<X<X<X<X1X<X<X1X<X<X<X<X<X<X<X<X1Xf y q.Y F [.A c I L I > D *.$. .@.$.$.$.$.$.$.$.$.$.X.X.$.*.b r I J L L H ~ Q k ).E.Y.F NX",
"2.f.).T.g x Z H @ b.uXqXqXqXqXqXqXqXqXqXqXqXqXqXqXqXqXqXqXuXf r ! Z l `.l i H H H H p i @ . i p i i i i i i i p * . i i p H H H H H Z Q T k ).E.Y.F NX",
"2.f.).T.5 g l l 7 G %.+.+.+.+.+.+.+.+.+.+.+.+.+.+.+.+.+.+.%.k g A h k T k l v v v v v l : v v v v v v v v v v v A 5 j v v v v v v v v A ; 7 `.E.Y.F NX",
"2.f.).T.k T.].`.].).E.E.E.E.E.E.E.E.E.E.E.E.E.E.E.E.E.E.E.E.].].`.`.`.).`.`.`.`.`.`.`.`.[.`.`.`.`.`.`.`.`.`.`.`.`.[.`.`.`.`.`.`.`.`.`.{.&.: `.E.Y.F NX",
"2.f.).T.7 &.:.:.:.:.:.:.:.:.:.:.:.:.:.:.:.:.:.:.:.:.:.:.:.:.:.:.:.:.:.:.:.:.:.:.:.:.:.:.:.:.:.:.:.:.:.:.:.:.:.:.:.:.:.:.:.:.:.:.:.:.:.d.k 4 `.E.Y.F NX",
"2.f.).T.5 v L S S S S S S S S S S S S S S S S S S S S S S S S S S S S S S S S S S S S S S S S S S S S S S S S S S S S S S S S S S S S L j h ).E.Y.F NX",
"2.f.).T.g / g.s.s.s.s.s.s.s.s.s.s.s.s.s.s.s.s.s.s.s.s.s.s.s.s.s.s.s.s.s.s.s.s.s.s.s.s.s.s.s.s.s.s.s.s.s.s.s.s.s.s.s.s.s.s.s.s.s.s.s.s.g.Q h ).E.Y.F NX",
"2.f.).T.g Q ! ! ! ! ! ! ! ! / p.e.e.e.e.p.p.e.e.e.e.e.e.e.e.e.e.e.e.e.e.e.e.e.e.e.e.e.e.e.e.e.e.e.e.e.e.e.e.e.e.e.e.e.e.e.e.e.e.e.e.e.a.R h ).E.Y.F NX",
"2.f.).T.; 4 *.*.*.*.*.*.*.*.D y I I I I I I I I I I I I I I I I I I I I I I I I I I I I I I I I I I I I I I I I I I I I I I I I I I P ~ R k ).E.Y.F NX",
"2.f.).R.o O.DXDXDXDXDXDXDXDX-X- I I I I I I I J H H H H H H H H H H H H H H H H H H H H L L H H H H H H H H H H H H H H H H H H H H H ~ R k ).E.Y.F NX",
"2.f.).R.o O.DXDXDXDXDXDXDXDX-X@ u y y y y y u c I I I I I I I I I I I I I I I I I I I I I I I L L L L L L L L L L L L L L L L L L L H ~ R k ).E.Y.F NX",
"2.f.).R.o O.DXDXDXDXDXDXDXDX-X  3 3 3 3 3 3 , # i u u u u u u u u u u u u u u u u u u u u u x L L L L L L L L L L L L L L L L L L L H ~ R k ).E.Y.F NX",
"2.f.).R.o O.DXDXDXDXDXDXDXDXpXO [ [ [ [ [ [ 9 . N 7.N N N N N N N N N N N N N N N N N N 7.N % Z I L L L L L L L L L L L L L L L L L H ~ R k ).E.Y.F NX",
"2.f.).R.# b 0X0X1X1X1X1X1X0Xn.O ' ' ' ' ' [ 9 + Z.Z.Z.S.S.S.S.S.S.S.S.S.S.S.S.S.S.D.Z.Z.Z.Z.r C I L L L L L L L L L L L L L L L L L H ~ R k ).E.Y.F NX",
"2.f.).R.= 0 B.m.m.m.m.m.m.B.i., ] ' ' ' ] [ 9 + N.V.!.L.L.L.L.L.L.L.L.L.L.L.L.L.L.L.!.N.N.N.r C I L L L L L L L L L L L L L L L L L H ~ R k ).E.Y.F NX",
"2.f.).R.= 0 C.V.V.V.N.N.V.C.i., ] ' ' ' ' [ 9 + N.V.A.~.~.~.~.~.~.~.~.~.~.~.~.~.~.~.!.N.V.N.r x I L L L L L L L L L L L L L L L L L H ~ R k ).E.Y.F NX",
"2.f.).R.= 0 C.V.V.N.N.N.V.C.i., ] ' ' ' ] [ 9 + N.C.V.Z.V.V.V.V.V.V.V.V.V.V.V.V.V.V.V.C.Z.V.0 p I P L L L L L L L L L L L L L L L L H ~ R k ).E.Y.F NX",
"2.f.).R.= 0 C.V.V.V.V.N.V.C.i., ] ' ' ' ' [ 9 X B B M m M B B B B B B B B B B B B B B M m B ; 7 > Z I L L L L L L L L L L L L L L L H ~ R k ).E.Y.F NX",
"2.f.).R.= 0 C.V.V.V.V.V.V.C.i., ] ' ' ' ' [ 1 7 5X5XP.a W.5X4X4X4X4X4X4X4X4X4X4X4X4X5Xu.a ;X6X6XF y U I I I I I I I I L L L L L L L H ~ R k ).E.Y.F NX",
"2.f.).R.= 0 B.m.m.m.m.m.m.B.i., ] ' ' ' ' [ 1 k dXhXQ.s ;XgXsXsXsXsXsXsXsXsXsXsXsXsXhXb.m 6XdXhXE y y > > > > > > ; Z I L L L L L L H ~ R k ).E.Y.F NX",
"2.f.).R.# f ,X>X>X>X>X>X>X,Xn.O ' ' ' ' ' [ 1 k dXdXW.s ;XdXaXaXaXaXaXaXaXaXaXaXaXaXdXc.m 6XdXdXG r # _ o.o.o.o.o., y I L L L L L L H ~ R k ).E.Y.F NX",
"2.f.).R.o O.DXDXDXDXDXDXDXDX-XX ) ) ) ) ) ` 1 k dXdXW.s ;XdXaXaXaXaXaXaXaXaXaXaXaXaXdXc.m 6XdXdXG r = o.>.>.>.>.>.3 y U K K K K K I H ~ R k ).E.Y.F NX",
"2.f.).R.o O.DXDXDXDXDXDXDXDX-X# @.@.......@.d k dXdXW.s ;XdXaXaXaXaXaXaXaXaXaXaXaXaXdXc.s 6XdXdXG # O , , , , , < O = 5 5 5 5 5 ; u J ~ R k ).E.Y.F NX",
"2.f.).R.o O.DXDXDXDXDXDXDXDXkXi ^.^.^.^.^.^.t.k gXhXQ.s 2XhXdXdXdXdXdXdXdXdXdXdXdXdXhXn.{ wXgXhXG _ |.}.}.}.}.}.}.}.}.}.}.}.}.|.>.- I / ^ k ).E.Y.F NX",
"2.f.).R.$ 3 2.2.2.2.2.2.2.3.o.o y r r r r y - X l l 5 # g l l l l l l l l l l l l l l 5 4 k l l X 1 ( ( ( ( ( ( ( ( ( ( ( ( ( ( 1 $ x v g g `.E.Y.F NX",
"2.f.).T.: -.h.f.f.f.f.f.f.f.h.z.l.l.l.l.l.l.z.z.l.l.l.z.l.l.l.l.l.l.l.l.l.l.l.l.l.l.l.z.z.l.l.l.z.z.j.j.j.j.j.j.j.j.j.j.j.j.j.h.z.z.P.P.E 5 `.E.Y.F NX",
"2.f.).T.= G ;.&.&.&.&.&.&.&.&.&.&.&.&.&.-.-.-.-.&.&.&.&.&.&.&.&.&.&.&.&.&.&.&.&.&.&.&.&.&.&.&.&.&.&.&.&.&.-.-.-.&.&.&.&.&.&.&.&.&.&.&.;.A 5 ).E.Y.F NX",
"2.f.).R.l.;.;.;.;.;.;.;.;.;.;.;.;.;.;.;.;.;.;.;.;.;.;.;.;.;.;.;.;.;.;.;.;.;.;.;.;.;.;.;.;.;.;.;.;.;.;.;.;.;.;.;.;.;.;.;.;.;.;.;.;.;.;.-.;.z.E.R.Y.F NX",
"2.h.].).].[.[.[.[.[.[.[.[.[.[.[.[.[.[.[.[.[.[.[.[.[.[.[.[.[.[.[.[.[.[.[.[.[.[.[.[.[.[.[.[.[.[.[.[.[.[.[.[.[.[.[.[.[.[.[.[.[.[.[.[.[.[.[.[.].).).(.D NX",
"2.R z.l.l.l.l.l.l.l.l.l.l.l.l.l.l.l.l.l.l.l.l.l.l.l.l.l.l.l.l.l.l.l.l.l.l.l.l.l.l.l.l.l.l.l.l.l.l.l.l.l.l.l.l.l.l.l.l.l.l.l.l.l.l.l.l.l.l.l.l.l.f.b BX"
};
