/* XPM */
static char *bb67295f17324a64e6f5b868490c6a45Ahv1E6YtbsFVR4QB[] = {
/* columns rows colors chars-per-pixel */
"75 75 224 2 ",
"   c #161F28",
".  c #19212B",
"X  c #192738",
"o  c #26292A",
"O  c #34322C",
"+  c #242C35",
"@  c #2A3239",
"#  c #343433",
"$  c #343737",
"%  c #353A3D",
"&  c #3C3C3B",
"*  c #403E37",
"=  c #4F4C2E",
"-  c #44443B",
";  c #575439",
":  c #6F6D38",
">  c #1D3147",
",  c #28394A",
"<  c #333F4C",
"1  c #253C57",
"2  c #2B3E54",
"3  c #39434A",
"4  c #2A415B",
"5  c #2C425A",
"6  c #384857",
"7  c #33465A",
"8  c #274464",
"9  c #2B4462",
"0  c #2C4A6C",
"q  c #354E69",
"w  c #3A516A",
"e  c #2C4C72",
"r  c #314F72",
"t  c #2F5076",
"y  c #2E527B",
"u  c #355376",
"i  c #3C5571",
"p  c #32547C",
"a  c #444442",
"s  c #4A4A46",
"d  c #484A4B",
"f  c #524F4A",
"g  c #53534D",
"h  c #5A5848",
"j  c #454D55",
"k  c #4B5358",
"l  c #555452",
"z  c #565857",
"x  c #5C5A54",
"c  c #5D5D5B",
"v  c #635D4A",
"b  c #635F55",
"n  c #5F614F",
"m  c #68644C",
"M  c #706C4B",
"N  c #797745",
"B  c #656353",
"V  c #6C6957",
"C  c #62625E",
"Z  c #736C54",
"A  c #736D5B",
"S  c #797559",
"D  c #555C62",
"F  c #465A70",
"G  c #5E646B",
"H  c #586572",
"J  c #676866",
"K  c #6D6C6B",
"L  c #706E6A",
"P  c #767468",
"I  c #656C73",
"U  c #6D7373",
"Y  c #747473",
"T  c #7C7A74",
"R  c #75797A",
"E  c #7C7B7A",
"W  c #807E3F",
"Q  c #857E55",
"!  c #837C63",
"~  c #887F67",
"^  c #827E72",
"/  c #858335",
"(  c #918F45",
")  c #908D4F",
"_  c #A29F43",
"`  c #A9A746",
"'  c #BAB648",
"]  c #ACA954",
"[  c #B4B154",
"{  c #8B8467",
"}  c #928B6A",
"|  c #99936B",
" . c #85827B",
".. c #898679",
"X. c #978D75",
"o. c #9D9372",
"O. c #A2976F",
"+. c #A4997A",
"@. c #AA9C7B",
"#. c #ACA677",
"$. c #B4A97D",
"%. c #BCB47F",
"&. c #C1BD4E",
"*. c #CBC74A",
"=. c #D2CF4F",
"-. c #DBD74F",
";. c #C9C65E",
":. c #D4D050",
">. c #DEDA50",
",. c #E5E15B",
"<. c #D7D463",
"1. c #EDE968",
"2. c #FAF673",
"3. c #FFFB76",
"4. c #325781",
"5. c #355985",
"6. c #385C87",
"7. c #345C89",
"8. c #37608F",
"9. c #3A608E",
"0. c #3A6394",
"q. c #3C6799",
"w. c #3E699C",
"e. c #3F6BA0",
"r. c #44668D",
"t. c #5D728A",
"y. c #446C9B",
"u. c #797D82",
"i. c #416EA4",
"p. c #4370A6",
"a. c #4574AC",
"s. c #4975AA",
"d. c #4677B0",
"f. c #4778B2",
"g. c #4A7CB7",
"h. c #4B7DB9",
"j. c #7D8084",
"k. c #4C80BD",
"l. c #848482",
"z. c #888887",
"x. c #8C8C8A",
"c. c #938E82",
"v. c #969186",
"b. c #9B968A",
"n. c #9C9688",
"m. c #939392",
"M. c #989896",
"N. c #9D9D9C",
"B. c #A49B89",
"V. c #A49E90",
"C. c #ADA38B",
"Z. c #B6A784",
"A. c #BCAB85",
"S. c #BDB683",
"D. c #AAA396",
"F. c #A6A39A",
"G. c #B4AC9B",
"H. c #959EA7",
"J. c #A3A3A3",
"K. c #A7A8A8",
"L. c #ADACAB",
"P. c #B1AFA9",
"I. c #BAB3A3",
"U. c #B5B4B3",
"Y. c #BBB9B4",
"T. c #BDBDBB",
"R. c #C1AF89",
"E. c #C3BB85",
"W. c #C6B68B",
"Q. c #CDBB95",
"!. c #D3BE95",
"~. c #C4BCAB",
"^. c #C5BDAB",
"/. c #CDC58B",
"(. c #D2C98D",
"). c #D8C996",
"_. c #DCD496",
"`. c #E3CA9E",
"'. c #E0D797",
"]. c #E4DB9A",
"[. c #ECE29E",
"{. c #C8C2B7",
"}. c #D2CAB7",
"|. c #D4CCBA",
" X c #DAD0BE",
".X c #E5CDA1",
"XX c #EBD1A4",
"oX c #F2D7A8",
"OX c #F4DAAB",
"+X c #FBDEAD",
"@X c #EEE5A1",
"#X c #F1E7A2",
"$X c #F7EDA5",
"%X c #F9EEA6",
"&X c #FFE0AF",
"*X c #FAF0A7",
"=X c #FBF1A8",
"-X c #FFE2B1",
";X c #FEE7B9",
":X c #C4C3C3",
">X c #CAC8C4",
",X c #CDCCCC",
"<X c #DCD4C4",
"1X c #D0CFD0",
"2X c #D4D3D2",
"3X c #DAD9D7",
"4X c #DBDBDA",
"5X c #E5DBC6",
"6X c #EFE0C2",
"7X c #EBE1CC",
"8X c #FCEACA",
"9X c #E0E0DF",
"0X c #F2E7D1",
"qX c #F5EAD3",
"wX c #FAEED6",
"eX c #FCF0D7",
"rX c #FEF2D9",
"tX c #E5E5E4",
"yX c #E8E7E7",
"uX c #EEEEEE",
"iX c #F0F0EF",
"pX c #F4F4F4",
"aX c #F8F8F8",
"sX c #FDFDFD",
/* pixels */
"sXsXsXpXuXuXaXsXsXsXuXuXpXsXsXsXpXuXuXaXsXsXsXuXuXpXsXsXsXpXuXuXaXsXsXsXuXuXpXsXsXsXpXuXuXaXsXsXsXuXuXpXsXsXsXpXuXuXaXsXsXsXuXuXuXsXsXsXpXuXuXaXsXsXsX",
"sXsXsXpXuXuXaXsXsXsXuXuXpXsXsXsXpXuXuXaXsXsXsXuXuXpXsXsXsXpXuXuXaXsXsXsXuXuXpXsXsXsXpXuXuXaXsXsXsXuXuXpXsXsXsXpXuXuXaXsXsXsXuXuXuXsXsXsXpXuXuXaXsXsXsX",
"aXaXaXaXaXaXaXaXaXaXaXaXaXaXaXaXaXaXaXaXaXaXaXaXaXaXaXaXaXaXaXaXaXaXaXaXaXaXaXaXaXaXaXsXsXaXaXsXaXaXaXaXaXaXaXaXaXaXaXaXaXaXaXaXaXaXaXaXaXaXaXaXaXaXaX",
"uXuXuXsXsXsXaXuXuXpXsXsXsXpXuXuXsXsXsXaXuXuXpXsXsXsXpXuXuXsXsXsXaXuXuXpXsXsXsXpXpXpXsXyXF...P N.tXsXsXsXpXuXuXsXsXsXaXuXuXpXsXsXsXuXuXuXsXsXsXaXuXuXpX",
"pXpXpXsXsXsXaXuXuXaXsXsXsXpXpXpXsXsXsXaXpXuXaXsXsXsXpXpXuXsXsXsXaXpXpXaXsXsXuXT.L.J.M.V [ <.` : A F.Y.4XpXpXpXsXsXsXaXpXpXpXsXsXsXpXpXpXsXsXsXaXpXpXpX",
"sXsXsXaXpXpXaXsXsXsXpXpXpXsXsXsXaXpXpXaXsXsXsXpXpXpXsXsXsXpXuXpXpX2XsXsXaX,X! ] ] ( ( <.2.2.1.>.&.` _ N J.sXsXaXpXpXaXsXsXsXpXpXpXsXsXsXaXpXpXaXsXsXsX",
"sXsXsXpXuXuXaXsXsXsXuXuXpXsXsXsXpXuXuXaXsXsXsXuXuXpXsXsXsXpXuXuXM.m F.:XK.Z ;.3.3.2.2.2.2.2.2.,.-.>.>.=.: J.sXpXuXuXaXsXsXsXuXuXuXsXsXsXpXuXuXaXsXsXsX",
"aXaXaXaXaXaXaXaXaXaXaXaXaXaXaXaXaXaXaXaXaXaXaXaXaXaXaXaXaXaXsXtXs ;.&.] [ <.] W ( ;.<.] N N ;.1.-.-.-.>.*.: ..pXaXaXaXaXaXaXaXaXaXaXaXaXaXaXaXaXaXaXaX",
"uXuXuXsXsXsXaXuXuXpXsXsXsXpXuXuXsXsXsXaXuXuXpXsXsXsXpXuXuXsXsXaXC ] 3.3.1.: V F.V...{ X.^.C.Q [ *.*.' ' &.-.( ,XsXsXaXuXuXpXsXsXsXpXuXuXsXsXsXaXuXuXpX",
"uXpXpXsXsXsXaXpXuXpXsXsXsXpXpXpXsXsXsXaXiXuXaXsXsXsXpXpXpXsXsXpXV = ( ] M b.qXrXrXrXeXrXrXeXOXA.| | O.o.; / :.) T.sXaXpXpXaXsXsXsXpXpXpXsXsXsXaXpXpXpX",
"sXsXsXaXpXpXaXsXsXsXuXpXpXsXsXsXaXpXpXaXsXsXsXpXpXpXsXsXsXaXpX,XN ] h v. . XrXeXeXeXeXrX5XG.OX-X+X+X-X;Xo.= -.&.P yXaXsXsXsXpXpXpXsXsXsXpXuXuXaXsXsXsX",
"sXsXsXpXuXuXaXsXsXsXuXuXpXsXsXsXpXuXuXaXsXsXsXuXuXpXsXsXsXpXuXtXT m 5X7X|.7XrXeXeXrXrXrX5Xb.C.+X+X+X+XZ.; ` -.=.Z tXaXsXsXsXuXuXuXsXsXsXpXuXuXaXsXsXsX",
"aXaXaXaXaXaXaXaXaXaXaXaXaXaXsXsXaXaXaXaXaXaXaXaXaXaXaXaXaXaXaXsXM.D.rX X<XrXeXeX0XrXeXeXrXrX6X+X&X&X+X@.M _ -.=.S uXaXaXaXaXaXaXaXaXaXaXaXaXaXaXaXaXaX",
"uXuXuXsXsXsXaXuXuXpXsXsXsX4X:X,XaXsXsXaXuXuXpXsXsXsXpXuXuXsXsXyXL 7XwXg L rXrX{.I.rXeXrXc.v.wX-X&X&XOX+.{ S ( ' ..sXaXuXuXpXsXsXsXpXuXuXsXsXsXaXuXuXuX",
"pXpXpXsXsXsXaXpXpXaXsXyXm.L T L L 3XsXaXuXuXpXsXsXsXpXpXpXsXsXT. .rXwXv.G.rX}.^ 5XrXeXwXx J wX-X&X&XOX+.S A m ; P.sXaXpXpXaXsXsXsXpXpXpXsXsXsXaXpXpXpX",
"sXsXsXaXpXpXaXsXsXsX4XE D.7XqX0Xb.K iXaXsXsXsXpXpXpXsXsXsXaXaXN.D.rXeXrXrXI.C |.rXeXeXrX<X5X8X-X&X&XOX@.S A B z tXuXaXsXsXsXpXpXpXsXsXsXaXuXpXaXsXsXsX",
"sXsXsXpXuXuXaXsXsXsXx.G.wXqXqXwXc.Y uXaXsXsXsXuXuXpXsXsXsXpXpXN.I.rXeXeXrXc.f 7XrXeXeXrXrXrX8X-X&X&XOXZ.Z.Z.B P.pXuXaXsXsXsXuXuXpXsXsXsXpXuXuXaXsXsXsX",
"aXaXaXaXaXaXaXaXaXuXY 5XqXqXqX Xs ,XsXaXaXaXaXaXaXaXaXaXaXaXsXJ.D.rXrXrXrX0Xb.}.rXrXrX X}.rX8X&X&X&X&XoX+X.XV :XsXaXaXaXaXaXaXaXaXaXaXaXaXaXaXaXaXaXaX",
"uXuXuXsXsXsXaXuXuXuXz.}.qXqXwX..K sXsXaXuXuXpXsXsXsXpXuXuXsXsX:Xc.qXD. XqXwXrXwX0X5X^.L * v.;X&X&X&X&X&X+X-XZ.U.sXsXaXuXuXpXsXsXsXpXuXuXsXsXsXaXuXuXpX",
"uXuXpXsXsXsXaXuXpXaX,X .0XqX8XA l.sXsXaXpXpXaXsXsXsXpXpXpXsXsXyXT }.&  .Y.>X{.Y.U.T.T.K.J O .X-X&X&X-X-X-XXX! 4XsXsXaXiXpXaXsXsXsXpXpXpXsXsXsXaXpXpXpX",
"sXsXsXaXuXpXsXsXaXaXyXJ Q.;X-XW.x :XuXaXsXsXsXpXpXpXsXsXsXaXuXpXm.F.^.D.M.N.L.P.N.x.T v.}.G.oX&X&X-XXXo.{ A L.aXuXuXaXsXsXsXpXpXpXsXsXsXaXuXuXaXsXsXsX",
"sXsXsXpXuX4XN.x.z.z.l.a A A.`.-X!.P  .4XsXsXsXuXuXpXsXsXsXpXuXuXtXE }.rX0X|.b.L b.^.5XrXeX-X&X&X-XOXZ Y ,XtXsXpXuXuXaXsXsXsXuXuXpXsXsXsXpXuXuXaXsXsXsX",
"aXaXaXaXaXE ..<X5X5X5X X^.V.^ { `.+X$.x ,XsXaXaXaXaXaXaXaXaXaXaXsX2XE {.rXrX<XG.7XrXrXeX;X&X-X-X`.m E pXsXsXaXaXaXaXaXaXaXaXaXaXaXaXaXaXaXaXaXaXaXaXaX",
"uXuXuXsXsXE ^.rXwXwXwXwXeXwX0XI.b `.-X@.s U.uXsXsXsXpXuXuXsXsXsXaXpX4XE b.7XrXrXrXeXeX8X-X&XXX@.* - ^ l.J.,XyXsXsXsXaXuXuXpXsXsXsXpXuXuXsXsXsXaXuXuXuX",
"pXpXpXsXsX:X..^.D.B.V.D.^.|.0XqXs Z.-XOXh - D J.4XpXpXpXpXsXsXsXuX,XM.L } X.D. XwXrX8X-X&X-XOXA.O S.[.S 1 i H N.4XsXsXpXpXaXsXsXsXpXpXpXsXsXsXaXuXiXpX",
"sXsXsXaXpX:Xx V.^.^.^.I.D.c...P v XX&XoXA L p r 6 D U u.z.j.R U t.r.5.h #X#XS.h b C.).&X&XXX@.; { #X=X$.0 h.p.6.F j.,XsXsXsXpXuXpXsXsXsXpXuXuXaXsXsXsX",
"sXsXsXpXpXl.I.rXeXeXrXeXwXqX5Xc.{ +X-XZ.! ! 0 h.f.i.q.0.0.0.q.i.f.g.g.9 S [.=X_.{ V ~ X.! m Z S.$X=X@XZ p h.h.h.f.q.i u.1XsXpXuXpXsXsXsXpXuXuXaXsXsXsX",
"aXaXaXaXsXL.b.}.I.G.I.^.|.7XwXqXB )..Xv ).Z 1 w.f.h.h.h.h.h.h.h.g.g.g.f.r h #.].=X[.(.(.(.].$X=X$XE.; , a.h.g.g.g.h.f.q.w u.3XsXsXaXaXaXaXaXaXaXaXaXaX",
"uXuXuXsXsXuXz P D.I.I.D.v. .v.b.f XX`.m oXf 8 7.0.a.h.g.g.g.g.g.g.g.g.h.h.0.4 3 Z #.(.$X%X%X%X_.h o 8 a.h.g.g.g.g.g.g.h.f.7.j L.aXpXuXuXsXsXsXaXuXuXpX",
"pXpXpXsXsX:XC 0XwXqXwXeXqX5XI.f { -XW.Z ).O y 7.7.8.i.f.h.g.g.g.g.g.g.g.g.h.g.i.7.r 3 /.*X$X%X(.6 i.h.h.g.g.g.g.g.g.g.g.g.h.i.9 Y 4XpXpXsXsXsXaXpXpXpX",
"sXsXsXpXpX2Xl ^.eX^. .^.7X0X0Xv.} .Xv A.{ X 7.7.7.7.7.0.i.f.g.h.h.h.g.g.g.g.g.h.h.k.5.o.=X$X$X$XT a.h.g.g.g.g.g.g.g.g.g.g.g.h.f.t k 3XsXaXuXuXaXsXsXsX",
"sXsXsXpXuXiXT.J B.`.A.{ X.n.X.} A.m @.Q.o 0 7.7.7.7.7.7.7.7.q.i.y.6.f.g.g.g.g.g.g.h.e.P %X$X$X*XZ.r.h.g.g.g.a.f.h.g.g.g.g.g.g.g.h.7.j 2XaXuXuXaXsXsXsX",
"aXaXaXaXsXaXsX9XN.P ~ o.+.+.o.A ; R.!.* > 7.7.7.7.7.7.7.7.4.e 1 X 8 f.g.g.g.g.g.g.g.d.D [.%X$X%X'.H f.g.g.h.r.F y.f.h.h.h.g.g.g.h.h.7.k 4XsXsXaXaXaXaX",
"uXuXuXsXsXsXaXuXpXuXtX,XT.L.U.U.x.P O X e y y y e e 8 1 , < a X y 7.a.h.g.g.g.g.g.g.h.w (.%X$X$X$XL i.h.g.h.s.K.J.t.y.d.g.g.g.g.g.g.h.p E sXsXaXuXuXpX",
"pXpXpXsXsXsXaXpXpXaXsXsXsXaXpXpXsXyX:XJ.z.R I G G J Y x.P.4X4X6 4.7.i.h.g.g.g.g.g.g.h.u $.=X$X$X=X| 7.h.g.g.a.H.sXtXI r h.g.g.g.g.g.h.d.6 tXsXaXpXpXpX",
"sXsXsXpXuXuXaXsXsXsXpXuXpXsXsXsXaXpXpXsXsXsXaXuXuXiXsXsXsXaXuXJ e 7.q.g.g.g.g.g.g.g.h.7.{ =X$X$X*XE.q h.g.g.f.t.tXU.6 a.h.g.g.g.h.g.a.8.k tXpXaXsXsXsX",
"sXsXsXpXuXuXaXsXsXsXuXuXpXsXsXsXpXuXuXaXsXsXsXuXuXpXsXsXsXpXpXz.8 7.0.f.g.g.g.g.g.g.h.0.B $X$X$X$X].j d.g.g.h.y.Y.k w.h.g.h.g.f.p.q.7.4 x.pXuXaXsXsXsX",
"aXaXaXaXsXsXaXaXaXaXaXaXaXaXaXaXaXsXsXaXaXaXaXsXsXaXaXaXaXaXsXJ.1 7.8.f.g.g.g.g.g.g.h.i.s @X%X$X$X$XV w.h.g.h.p.z r h.f.a.p.w.8.7.7.y j 4XsXaXaXaXaXaX",
"uXuXuXsXsXsXaXuXuXpXsXsXsXpXuXuXsXsXsXaXuXuXpXsXsXsXiXuXuXsXsXT.2 7.7.f.g.g.g.g.g.g.h.a.3 _.%X$X$X=X| 5.h.g.h.a.X p 0.0.7.7.7.7.7.5.2 J.sXsXsXaXuXuXiX",
"pXpXpXsXsXsXaXpXpXpXsXsXsXpXpXpXsXsXsXaXpXpXpXsXsXsXpXpXpXsXsX:X, 7.7.f.g.g.g.g.g.g.g.f., (.%X$X$X*XE.q h.h.e.7 % p 7.7.7.7.7.7.7.1 R uXsXsXsXaXpXpXpX",
"sXsXsXpXuXuXaXsXsXsXpXuXpXsXsXsXpXuXuXaXsXsXsXiXuXpXsXsXsXaXpX{.$ 6 e p.h.h.h.h.g.g.g.f., E.*X$X$X%X].j 0.r z S.+.4 q 0 e 5.7.7.8 I uXsXaXuXuXaXsXsXsX",
"sXsXsXpXuXuXaXsXsXsXuXuXpXsXsXsXpXuXuXaXsXsXsXuXuXiXsXsXsXpXpXT.S E.{ z w 5.q.p.d.f.h.d.@ E.*X$X$X$X$X} B #.[.=X/.! Q.Z.V 2 y 8 J yXsXsXpXuXuXaXsXsXsX",
"aXaXaXaXsXsXaXaXaXaXaXsXaXaXaXaXaXsXsXaXaXaXaXsXaXaXaXaXaXaXsXT.{ [.@X[.E.| V k 6 6 7 < - _.%X$X$X$X$X$X$X*X%X%X].X.-X-X+XZ.3 R yXaXaXaXaXsXsXaXaXaXaX",
"uXuXuXsXsXsXaXuXuXpXsXsXsXuXuXuXsXsXsXaXuXuXpXsXsXsXuXuXuXsXsXT.} [.@X%X*X=X$X[.'.(./.(.].$X$X$X$X$X$X$X$X$X$X=X(.m oX-X&X;X~ L.sXuXuXuXsXsXsXaXuXuXpX",
"pXpXpXsXsXsXaXpXpXpXsXsXsXpXpXpXsXsXsXaXpXpXpXsXsXsXpXpXpXsXsXL.| @X$X$X$X$X$X%X%X%X%X%X%X$X$X$X$X$X$X$X$X%X%XE.- @ ).-X-X).V :XsXpXpXpXsXsXsXaXpXpXpX",
"sXsXsXpXuXuXaXsXsXsXuXuXpXsXsXsXpXuXuXaXsXsXsXuXuXpXsXsXsXpXpXM.h /.$X*X%X$X$X$X$X$X$X$X$X$X$X$X$X%X*X=X$X(.S @ 4.u R.!.Z T :XiXpXsXsXsXaXuXuXaXsXsXsX",
"sXsXsXpXuXuXaXsXsXsXuXuXuXsXsXsXpXuXuXaXsXsXsXuXuXpXsXsXsXpXpXz.> 3 Z %.].$X=X=X=X=X=X=X=X=X*X$X@X_.E.| B 3 e a.k.5.@.OX@.P 4XuXpXsXsXsXpXuXuXaXsXsXsX",
"aXaXaXaXsXsXaXaXaXaXsXsXsXaXaXaXaXsXsXaXaXaXaXsXsXsXaXaXaXaXsXR 5.a.7.5 a n S } | O.| | } { S B g 3 7 p q.f.h.h.h.0.g +.+. .yXsXsXaXaXaXaXsXaXaXaXaXaX",
"uXuXuXsXsXsXaXuXuXpXsXsXsXpXuXuXsXsXsXaXuXuXpXsXsXsXpXuXuXsXsXI i.h.h.h.p.0.p 0 9 4 4 8 0 t 7.0.i.d.h.h.h.g.g.g.h.q.J ,X1XyXsXsXsXpXuXuXsXsXsXaXuXuXpX",
"pXpXpXsXsXsXaXpXpXaXsXsXsXpXpXpXsXsXsXaXpXpXaXsXsXsXpXpXpXsXuXF d.g.g.h.h.h.h.h.h.h.h.h.h.h.h.g.h.g.g.g.g.g.g.g.h.i.G pXpXaXsXsXsXpXpXpXsXsXsXaXpXpXpX",
"sXsXsXpXuXuXaXsXsXsXuXuXpXsXsXsXpXuXuXaXsXsXsXuXuXpXsXsXsXaX,Xi h.g.g.h.g.g.g.g.g.g.g.g.g.f.6.0.d.g.g.g.g.g.g.g.h.p.D aXsXsXiXuXpXsXsXsXaXuXuXaXsXsXsX",
"sXsXsXpXuXuXaXsXsXsXuXuXpXsXsXsXpXuXuXaXsXsXsXuXuXpXsXsXsXaXL.p h.g.g.g.g.g.g.g.g.g.h.g.h.p , 7.p.h.g.g.g.g.g.g.h.a.k iXsXsXuXuXuXsXsXsXpXuXuXaXsXsXsX",
"aXaXaXaXaXaXaXaXaXaXsXsXsXaXaXaXaXsXsXaXaXaXaXaXsXsXaXaXaXsXz.0.h.g.g.g.g.g.g.g.g.g.g.h.w., p 7.p.h.g.g.g.g.g.g.h.a.j tXaXaXsXsXsXaXaXaXaXsXsXaXaXaXaX",
"uXuXuXsXsXsXaXuXuXpXsXsXsXpXuXuXsXsXsXaXuXuXpXsXsXsXuXuXuXpXH p.h.g.g.g.g.g.g.g.g.g.g.f.1 e 7.7.a.h.g.g.g.g.g.g.h.a.6 4XuXpXsXsXsXpXuXuXsXsXsXaXuXuXpX",
"pXpXpXsXsXsXaXpXpXpXsXsXsXpXpXpXsXsXsXaXpXpXpXsXsXsXpXpXaX2XF f.g.g.g.g.g.g.g.g.g.g.h.5.  p 7.7.a.h.g.g.g.g.g.g.h.p.3 4XpXaXsXsXsXpXpXpXaXsXsXaXpXpXpX",
"sXsXsXpXuXuXaXsXsXsXuXuXpXsXsXsXpXuXuXaXsXsXsXuXuXpXsXsXsXJ.5.h.g.g.g.g.g.g.g.g.g.h.a.< c 0 7.7.a.h.g.g.g.g.g.g.h.i.3 yXsXsXuXuXpXsXsXsXaXuXuXaXsXsXsX",
"sXsXsXpXuXuXaXsXsXsXuXuXpXsXsXsXpXuXuXaXsXsXsXuXuXpXsXsXsXI e.h.g.g.g.g.g.g.g.g.g.h.p c L.5 7.7.a.h.g.g.g.g.g.g.h.w.d pXsXsXuXuXpXsXsXsXpXuXuXaXsXsXsX",
"aXaXaXaXsXsXaXaXaXaXsXaXaXaXaXaXaXsXsXaXaXaXaXaXsXsXaXaX3Xw f.g.g.g.g.g.g.g.g.g.g.f.> L.,X5 7.7.f.g.g.g.g.g.g.g.h.7.z pXaXaXsXsXsXaXaXaXaXaXsXaXaXaXaX",
"uXuXuXsXsXsXaXuXuXpXsXsXsXuXuXuXsXsXsXaXuXuXpXsXsXsXpXpXN.p h.g.g.g.g.g.g.g.g.g.h.9.$ yX4X7 7.8.f.g.g.g.g.g.g.g.h.e Y pXuXpXsXsXsXiXuXuXsXsXsXaXuXuXpX",
"pXpXpXsXsXsXaXpXpXpXsXsXsXpXpXpXsXsXsXaXpXpXaXsXsXsXpXuXG w.h.g.g.g.g.g.g.g.g.g.h.1 K sX3X7 7.0.f.g.g.g.g.g.g.g.h.1 F.aXpXaXsXsXsXpXpXpXaXsXsXaXpXpXpX",
"sXsXsXpXuXuXaXsXsXsXuXuXpXsXsXsXpXuXuXaXsXsXsXuXuXpXsX2X7 f.g.g.g.g.g.g.g.g.g.h.p.. P.aX,X7 7.0.f.g.g.g.g.g.g.g.f., ,XsXsXsXuXuXpXsXsXsXpXuXuXaXsXsXsX",
"sXsXsXpXuXuXaXsXsXsXuXuXpXsXsXsXpXuXuXaXsXsXsXuXuXuXsXm.p h.g.g.g.g.g.g.g.g.g.h.p & tXpX,X7 7.0.f.g.g.g.g.g.g.h.i.d yXsXsXsXuXuXpXsXsXsXpXuXuXaXsXsXsX",
"aXaXaXaXsXsXaXaXpXaXsXsXsXaXaXaXaXsXsXaXaXaXaXsXsXsXyXj w.h.g.g.g.g.g.g.g.g.g.g.> x.sXsX1X5 7.8.f.g.g.g.g.g.g.h.4.Y sXaXaXaXsXsXsXaXpXaXaXsXsXaXaXaXaX",
"uXuXuXsXsXsXaXuXuXpXsXsXsXpXuXuXsXsXsXaXuXuXpXsXsXsXU., f.g.g.g.g.g.g.g.g.g.h.q.% 2XsXsX2X5 7.7.d.g.g.g.g.g.g.h.9 L.sXuXuXpXsXsXsXpXuXuXsXsXsXaXuXuXpX",
"pXpXpXsXsXsXaXpXpXaXsXsXsXpXpXpXsXsXsXaXpXpXpXsXsXsXE e h.g.g.g.g.g.g.g.g.g.h.4 x.aXsXsX,X2 7.7.a.h.g.g.g.g.g.a.3 4XsXpXpXaXsXsXsXpXpXpXaXsXsXaXpXpXpX",
"sXsXsXpXuXuXaXsXsXsXuXuXpXsXsXsXpXuXuXaXsXsXsXuXuXyXk 0.h.g.g.g.g.g.g.g.g.h.0.k yXsXpXpX:X2 7.7.a.h.g.g.g.g.h.0.D uXaXsXsXsXuXuXpXsXsXsXpXuXuXaXsXsXsX",
"sXsXsXpXuXuXaXsXsXsXuXuXuXsXsXsXpXuXuXaXsXsXsXuXuX3X3 a.h.g.g.g.g.g.g.g.h.a.5 T.sXsXpXpX:X, 4.5.i.h.h.h.h.h.f.8 m.aXaXsXsXsXuXuXpXsXsXsXpXuXuXaXsXsXsX",
"aXaXaXaXsXsXaXaXaXaXsXsXaXaXaXpXaXsXsXaXaXaXaXsXsXtXd p f.h.h.h.h.h.h.h.f.9 m.aXaXaXaXsXtXd + , 7 r u i i q 6 $ K :XuXsXaXaXsXsXaXaXpXpXaXsXsXaXaXpXaX",
"uXuXuXsXsXsXaXuXuXpXsXsXsXpXuXuXsXsXsXaXuXuXpXsXsXsXK o 2 p 9.q.w.w.q.6.q x.sXpXuXuXsXsXsX .o a a # a g x x c C l l K m.,XpXsXsXsXpXuXuXsXsXsXaXuXuXuX",
"pXpXpXsXsXsXaXpXpXpXsXsXsXpXpXpXsXsXsXaXpXpXaXsXsX,X& c g a $ $ % % o K ,XaXsXpXpXpXsXsXsX4Xl.x d x & & s l c c C C c f a 2XsXsXsXpXpXpXsXsXsXaXpXpXpX",
"sXsXsXpXuXuXaXsXsXsXuXuXpXsXsXsXpXuXuXaXsXsXsXuXaXm.# J C C C C C a c tXpXuXuXsXsXsXpXuXuXsXsXsXuXyX,XF.E c s & # # # O x tXpXuXpXsXsXsXaXuXuXaXsXsXsX",
"sXsXsXpXuXuXaXsXsXsXuXuXpXsXsXsXpXuXuXaXsXsXsXuXpXL.# l c c c g - K tXsXuXuXuXsXsXsXpXuXuXaXsXsXsXuXpXaXsXsXyX,XU.L.L.>XpXsXuXuXpXsXsXsXpXuXuXaXsXsXsX",
"aXpXpXsXsXsXaXpXpXaXsXsXaXaXaXaXaXsXsXaXaXaXaXsXsXpXL.c & * l E U.yXaXaXsXsXsXaXpXpXaXsXsXaXaXpXaXsXsXsXaXpXaXsXsXsXsXaXaXaXsXsXsXaXpXpXaXsXsXaXaXaXaX",
"uXuXuXsXsXsXaXuXuXpXsXsXsXuXuXuXsXsXsXaXuXuXpXsXsXsXpXtX2X4XuXsXsXuXuXpXsXsXsXpXuXuXsXsXsXaXuXuXpXsXsXsXiXuXuXsXsXsXaXuXuXpXsXsXsXpXuXuXsXsXsXaXuXuXuX",
"pXpXpXsXsXsXaXpXuXpXsXsXsXpXpXpXsXsXsXaXpXpXaXsXsXsXpXpXpXsXsXsXaXuXpXaXsXsXsXpXpXpXsXsXsXaXuXuXpXsXsXsXpXuXpXsXsXsXaXpXpXpXsXsXsXpXuXuXsXsXsXaXpXpXpX"
};
